M48
;GenerationSoftware,Autodesk,EAGLE,9.6.2*%
;CreationDate,2022-08-08T06:10:21Z*%
FMAT,2
ICI,OFF
METRIC,TZ,000.000
T6C0.800
T5C0.813
T4C0.920
T3C1.016
T2C2.300
T1C3.100
%
G90
M71
T1
X64290Y58000
X4290Y4000
X64290Y4000
X4290Y58000
T2
X15655Y8245
X28795Y8245
T3
X36830Y57785
X2540Y14970
X66040Y9890
X66040Y12430
X66040Y14970
X66040Y17510
X66040Y20050
X66040Y22590
X66040Y27670
X66040Y30210
X39880Y53975
X52070Y57785
X39880Y51435
X39880Y48895
X39880Y46355
X36830Y60325
X39880Y43815
X36830Y55245
X36830Y52705
X36830Y50165
X36830Y47625
X36830Y45085
X36830Y42545
X36830Y40005
X36830Y37465
X36830Y34925
X36830Y32385
X36830Y29845
X36830Y27305
X36830Y24765
X36830Y22225
X36830Y19685
X36830Y17145
X36830Y14605
X36830Y12065
X36830Y9525
X36830Y6985
X36830Y4445
X36830Y1905
X52070Y60325
X66040Y25130
X52070Y55245
X52070Y52705
X52070Y50165
X52070Y47625
X52070Y45085
X52070Y42545
X52070Y40005
X52070Y37465
X52070Y34925
X52070Y32385
X52070Y29845
X52070Y27305
X52070Y24765
X52070Y22225
X52070Y19685
X52070Y17145
X52070Y14605
X52070Y12065
X52070Y9525
X52070Y6985
X52070Y4445
X52070Y1905
X2540Y25130
X2540Y22590
X2540Y20050
X2540Y17510
T4
X18725Y10955
X21225Y10955
X23225Y10955
X25725Y10955
T5
X58420Y57404
X58420Y59436
T6
X16510Y41910
X25400Y41910
X34290Y41275
X60960Y25400
X60325Y9525
X60325Y6985
X60325Y4445
X60325Y1905
X45085Y9525
X43180Y38735
X45720Y6985
X44614Y21590
X7620Y41910
M30