G04 EAGLE Gerber RS-274X export*
G75*
%MOMM*%
%FSLAX34Y34*%
%LPD*%
%IN*%
%IPPOS*%
%AMOC8*
5,1,8,0,0,1.08239X$1,22.5*%
G01*
%ADD10C,0.254000*%


D10*
X0Y0D02*
X685600Y0D01*
X685600Y575350D01*
X685410Y579708D01*
X684840Y584032D01*
X683896Y588291D01*
X682585Y592451D01*
X680915Y596481D01*
X678901Y600350D01*
X676558Y604029D01*
X673902Y607489D01*
X670955Y610705D01*
X667739Y613652D01*
X664279Y616308D01*
X660600Y618651D01*
X656731Y620665D01*
X652701Y622335D01*
X648541Y623646D01*
X644282Y624590D01*
X639958Y625160D01*
X635600Y625350D01*
X50000Y625350D01*
X45642Y625160D01*
X41318Y624590D01*
X37059Y623646D01*
X32899Y622335D01*
X28869Y620665D01*
X25000Y618651D01*
X21321Y616308D01*
X17861Y613652D01*
X14645Y610705D01*
X11698Y607489D01*
X9042Y604029D01*
X6699Y600350D01*
X4685Y596481D01*
X3015Y592451D01*
X1704Y588291D01*
X760Y584032D01*
X190Y579708D01*
X0Y575350D01*
X0Y0D01*
X58400Y39446D02*
X58321Y38342D01*
X58163Y37246D01*
X57928Y36164D01*
X57616Y35102D01*
X57229Y34065D01*
X56769Y33058D01*
X56239Y32086D01*
X55640Y31154D01*
X54977Y30268D01*
X54252Y29431D01*
X53469Y28648D01*
X52632Y27923D01*
X51746Y27260D01*
X50814Y26661D01*
X49843Y26131D01*
X48835Y25671D01*
X47798Y25284D01*
X46736Y24972D01*
X45654Y24737D01*
X44558Y24579D01*
X43454Y24500D01*
X42346Y24500D01*
X41242Y24579D01*
X40146Y24737D01*
X39064Y24972D01*
X38002Y25284D01*
X36965Y25671D01*
X35958Y26131D01*
X34986Y26661D01*
X34054Y27260D01*
X33168Y27923D01*
X32331Y28648D01*
X31548Y29431D01*
X30823Y30268D01*
X30160Y31154D01*
X29561Y32086D01*
X29031Y33058D01*
X28571Y34065D01*
X28184Y35102D01*
X27872Y36164D01*
X27637Y37246D01*
X27479Y38342D01*
X27400Y39446D01*
X27400Y40554D01*
X27479Y41658D01*
X27637Y42754D01*
X27872Y43836D01*
X28184Y44898D01*
X28571Y45935D01*
X29031Y46943D01*
X29561Y47914D01*
X30160Y48846D01*
X30823Y49732D01*
X31548Y50569D01*
X32331Y51352D01*
X33168Y52077D01*
X34054Y52740D01*
X34986Y53339D01*
X35958Y53869D01*
X36965Y54329D01*
X38002Y54716D01*
X39064Y55028D01*
X40146Y55263D01*
X41242Y55421D01*
X42346Y55500D01*
X43454Y55500D01*
X44558Y55421D01*
X45654Y55263D01*
X46736Y55028D01*
X47798Y54716D01*
X48835Y54329D01*
X49843Y53869D01*
X50814Y53339D01*
X51746Y52740D01*
X52632Y52077D01*
X53469Y51352D01*
X54252Y50569D01*
X54977Y49732D01*
X55640Y48846D01*
X56239Y47914D01*
X56769Y46943D01*
X57229Y45935D01*
X57616Y44898D01*
X57928Y43836D01*
X58163Y42754D01*
X58321Y41658D01*
X58400Y40554D01*
X58400Y39446D01*
X658400Y39446D02*
X658321Y38342D01*
X658163Y37246D01*
X657928Y36164D01*
X657616Y35102D01*
X657229Y34065D01*
X656769Y33058D01*
X656239Y32086D01*
X655640Y31154D01*
X654977Y30268D01*
X654252Y29431D01*
X653469Y28648D01*
X652632Y27923D01*
X651746Y27260D01*
X650814Y26661D01*
X649843Y26131D01*
X648835Y25671D01*
X647798Y25284D01*
X646736Y24972D01*
X645654Y24737D01*
X644558Y24579D01*
X643454Y24500D01*
X642346Y24500D01*
X641242Y24579D01*
X640146Y24737D01*
X639064Y24972D01*
X638002Y25284D01*
X636965Y25671D01*
X635958Y26131D01*
X634986Y26661D01*
X634054Y27260D01*
X633168Y27923D01*
X632331Y28648D01*
X631548Y29431D01*
X630823Y30268D01*
X630160Y31154D01*
X629561Y32086D01*
X629031Y33058D01*
X628571Y34065D01*
X628184Y35102D01*
X627872Y36164D01*
X627637Y37246D01*
X627479Y38342D01*
X627400Y39446D01*
X627400Y40554D01*
X627479Y41658D01*
X627637Y42754D01*
X627872Y43836D01*
X628184Y44898D01*
X628571Y45935D01*
X629031Y46943D01*
X629561Y47914D01*
X630160Y48846D01*
X630823Y49732D01*
X631548Y50569D01*
X632331Y51352D01*
X633168Y52077D01*
X634054Y52740D01*
X634986Y53339D01*
X635958Y53869D01*
X636965Y54329D01*
X638002Y54716D01*
X639064Y55028D01*
X640146Y55263D01*
X641242Y55421D01*
X642346Y55500D01*
X643454Y55500D01*
X644558Y55421D01*
X645654Y55263D01*
X646736Y55028D01*
X647798Y54716D01*
X648835Y54329D01*
X649843Y53869D01*
X650814Y53339D01*
X651746Y52740D01*
X652632Y52077D01*
X653469Y51352D01*
X654252Y50569D01*
X654977Y49732D01*
X655640Y48846D01*
X656239Y47914D01*
X656769Y46943D01*
X657229Y45935D01*
X657616Y44898D01*
X657928Y43836D01*
X658163Y42754D01*
X658321Y41658D01*
X658400Y40554D01*
X658400Y39446D01*
X58400Y579446D02*
X58321Y578342D01*
X58163Y577246D01*
X57928Y576164D01*
X57616Y575102D01*
X57229Y574065D01*
X56769Y573058D01*
X56239Y572086D01*
X55640Y571154D01*
X54977Y570268D01*
X54252Y569431D01*
X53469Y568648D01*
X52632Y567923D01*
X51746Y567260D01*
X50814Y566661D01*
X49843Y566131D01*
X48835Y565671D01*
X47798Y565284D01*
X46736Y564972D01*
X45654Y564737D01*
X44558Y564579D01*
X43454Y564500D01*
X42346Y564500D01*
X41242Y564579D01*
X40146Y564737D01*
X39064Y564972D01*
X38002Y565284D01*
X36965Y565671D01*
X35958Y566131D01*
X34986Y566661D01*
X34054Y567260D01*
X33168Y567923D01*
X32331Y568648D01*
X31548Y569431D01*
X30823Y570268D01*
X30160Y571154D01*
X29561Y572086D01*
X29031Y573058D01*
X28571Y574065D01*
X28184Y575102D01*
X27872Y576164D01*
X27637Y577246D01*
X27479Y578342D01*
X27400Y579446D01*
X27400Y580554D01*
X27479Y581658D01*
X27637Y582754D01*
X27872Y583836D01*
X28184Y584898D01*
X28571Y585935D01*
X29031Y586943D01*
X29561Y587914D01*
X30160Y588846D01*
X30823Y589732D01*
X31548Y590569D01*
X32331Y591352D01*
X33168Y592077D01*
X34054Y592740D01*
X34986Y593339D01*
X35958Y593869D01*
X36965Y594329D01*
X38002Y594716D01*
X39064Y595028D01*
X40146Y595263D01*
X41242Y595421D01*
X42346Y595500D01*
X43454Y595500D01*
X44558Y595421D01*
X45654Y595263D01*
X46736Y595028D01*
X47798Y594716D01*
X48835Y594329D01*
X49843Y593869D01*
X50814Y593339D01*
X51746Y592740D01*
X52632Y592077D01*
X53469Y591352D01*
X54252Y590569D01*
X54977Y589732D01*
X55640Y588846D01*
X56239Y587914D01*
X56769Y586943D01*
X57229Y585935D01*
X57616Y584898D01*
X57928Y583836D01*
X58163Y582754D01*
X58321Y581658D01*
X58400Y580554D01*
X58400Y579446D01*
X658400Y579446D02*
X658321Y578342D01*
X658163Y577246D01*
X657928Y576164D01*
X657616Y575102D01*
X657229Y574065D01*
X656769Y573058D01*
X656239Y572086D01*
X655640Y571154D01*
X654977Y570268D01*
X654252Y569431D01*
X653469Y568648D01*
X652632Y567923D01*
X651746Y567260D01*
X650814Y566661D01*
X649843Y566131D01*
X648835Y565671D01*
X647798Y565284D01*
X646736Y564972D01*
X645654Y564737D01*
X644558Y564579D01*
X643454Y564500D01*
X642346Y564500D01*
X641242Y564579D01*
X640146Y564737D01*
X639064Y564972D01*
X638002Y565284D01*
X636965Y565671D01*
X635958Y566131D01*
X634986Y566661D01*
X634054Y567260D01*
X633168Y567923D01*
X632331Y568648D01*
X631548Y569431D01*
X630823Y570268D01*
X630160Y571154D01*
X629561Y572086D01*
X629031Y573058D01*
X628571Y574065D01*
X628184Y575102D01*
X627872Y576164D01*
X627637Y577246D01*
X627479Y578342D01*
X627400Y579446D01*
X627400Y580554D01*
X627479Y581658D01*
X627637Y582754D01*
X627872Y583836D01*
X628184Y584898D01*
X628571Y585935D01*
X629031Y586943D01*
X629561Y587914D01*
X630160Y588846D01*
X630823Y589732D01*
X631548Y590569D01*
X632331Y591352D01*
X633168Y592077D01*
X634054Y592740D01*
X634986Y593339D01*
X635958Y593869D01*
X636965Y594329D01*
X638002Y594716D01*
X639064Y595028D01*
X640146Y595263D01*
X641242Y595421D01*
X642346Y595500D01*
X643454Y595500D01*
X644558Y595421D01*
X645654Y595263D01*
X646736Y595028D01*
X647798Y594716D01*
X648835Y594329D01*
X649843Y593869D01*
X650814Y593339D01*
X651746Y592740D01*
X652632Y592077D01*
X653469Y591352D01*
X654252Y590569D01*
X654977Y589732D01*
X655640Y588846D01*
X656239Y587914D01*
X656769Y586943D01*
X657229Y585935D01*
X657616Y584898D01*
X657928Y583836D01*
X658163Y582754D01*
X658321Y581658D01*
X658400Y580554D01*
X658400Y579446D01*
X168050Y81998D02*
X167979Y81097D01*
X167838Y80205D01*
X167627Y79326D01*
X167348Y78467D01*
X167002Y77632D01*
X166591Y76827D01*
X166119Y76056D01*
X165588Y75325D01*
X165001Y74638D01*
X164362Y73999D01*
X163675Y73412D01*
X162944Y72881D01*
X162173Y72409D01*
X161368Y71998D01*
X160533Y71652D01*
X159674Y71373D01*
X158795Y71162D01*
X157903Y71021D01*
X157002Y70950D01*
X156098Y70950D01*
X155197Y71021D01*
X154305Y71162D01*
X153426Y71373D01*
X152567Y71652D01*
X151732Y71998D01*
X150927Y72409D01*
X150156Y72881D01*
X149425Y73412D01*
X148738Y73999D01*
X148099Y74638D01*
X147512Y75325D01*
X146981Y76056D01*
X146509Y76827D01*
X146098Y77632D01*
X145752Y78467D01*
X145473Y79326D01*
X145262Y80205D01*
X145121Y81097D01*
X145050Y81998D01*
X145050Y82902D01*
X145121Y83803D01*
X145262Y84695D01*
X145473Y85574D01*
X145752Y86433D01*
X146098Y87268D01*
X146509Y88073D01*
X146981Y88844D01*
X147512Y89575D01*
X148099Y90262D01*
X148738Y90901D01*
X149425Y91488D01*
X150156Y92019D01*
X150927Y92491D01*
X151732Y92902D01*
X152567Y93248D01*
X153426Y93527D01*
X154305Y93738D01*
X155197Y93879D01*
X156098Y93950D01*
X157002Y93950D01*
X157903Y93879D01*
X158795Y93738D01*
X159674Y93527D01*
X160533Y93248D01*
X161368Y92902D01*
X162173Y92491D01*
X162944Y92019D01*
X163675Y91488D01*
X164362Y90901D01*
X165001Y90262D01*
X165588Y89575D01*
X166119Y88844D01*
X166591Y88073D01*
X167002Y87268D01*
X167348Y86433D01*
X167627Y85574D01*
X167838Y84695D01*
X167979Y83803D01*
X168050Y82902D01*
X168050Y81998D01*
X299450Y81998D02*
X299379Y81097D01*
X299238Y80205D01*
X299027Y79326D01*
X298748Y78467D01*
X298402Y77632D01*
X297991Y76827D01*
X297519Y76056D01*
X296988Y75325D01*
X296401Y74638D01*
X295762Y73999D01*
X295075Y73412D01*
X294344Y72881D01*
X293573Y72409D01*
X292768Y71998D01*
X291933Y71652D01*
X291074Y71373D01*
X290195Y71162D01*
X289303Y71021D01*
X288402Y70950D01*
X287498Y70950D01*
X286597Y71021D01*
X285705Y71162D01*
X284826Y71373D01*
X283967Y71652D01*
X283132Y71998D01*
X282327Y72409D01*
X281556Y72881D01*
X280825Y73412D01*
X280138Y73999D01*
X279499Y74638D01*
X278912Y75325D01*
X278381Y76056D01*
X277909Y76827D01*
X277498Y77632D01*
X277152Y78467D01*
X276873Y79326D01*
X276662Y80205D01*
X276521Y81097D01*
X276450Y81998D01*
X276450Y82902D01*
X276521Y83803D01*
X276662Y84695D01*
X276873Y85574D01*
X277152Y86433D01*
X277498Y87268D01*
X277909Y88073D01*
X278381Y88844D01*
X278912Y89575D01*
X279499Y90262D01*
X280138Y90901D01*
X280825Y91488D01*
X281556Y92019D01*
X282327Y92491D01*
X283132Y92902D01*
X283967Y93248D01*
X284826Y93527D01*
X285705Y93738D01*
X286597Y93879D01*
X287498Y93950D01*
X288402Y93950D01*
X289303Y93879D01*
X290195Y93738D01*
X291074Y93527D01*
X291933Y93248D01*
X292768Y92902D01*
X293573Y92491D01*
X294344Y92019D01*
X295075Y91488D01*
X295762Y90901D01*
X296401Y90262D01*
X296988Y89575D01*
X297519Y88844D01*
X297991Y88073D01*
X298402Y87268D01*
X298748Y86433D01*
X299027Y85574D01*
X299238Y84695D01*
X299379Y83803D01*
X299450Y82902D01*
X299450Y81998D01*
M02*
