G04 EAGLE Gerber RS-274X export*
G75*
%MOMM*%
%FSLAX34Y34*%
%LPD*%
%INSilkscreen Top*%
%IPPOS*%
%AMOC8*
5,1,8,0,0,1.08239X$1,22.5*%
G01*
%ADD10C,0.152400*%
%ADD11C,0.406400*%
%ADD12C,0.076200*%
%ADD13C,0.304800*%
%ADD14R,1.270000X0.025400*%
%ADD15R,1.219200X0.025400*%
%ADD16R,1.600200X0.025400*%
%ADD17R,1.752600X0.025400*%
%ADD18R,0.812800X0.025400*%
%ADD19R,1.320800X0.025400*%
%ADD20R,1.244600X0.025400*%
%ADD21R,1.625600X0.025400*%
%ADD22R,1.803400X0.025400*%
%ADD23R,0.863600X0.025400*%
%ADD24R,1.346200X0.025400*%
%ADD25R,1.651000X0.025400*%
%ADD26R,1.828800X0.025400*%
%ADD27R,1.397000X0.025400*%
%ADD28R,1.295400X0.025400*%
%ADD29R,1.676400X0.025400*%
%ADD30R,0.889000X0.025400*%
%ADD31R,1.422400X0.025400*%
%ADD32R,1.701800X0.025400*%
%ADD33R,1.854200X0.025400*%
%ADD34R,0.914400X0.025400*%
%ADD35R,1.473200X0.025400*%
%ADD36R,1.727200X0.025400*%
%ADD37R,1.498600X0.025400*%
%ADD38R,1.371600X0.025400*%
%ADD39R,1.879600X0.025400*%
%ADD40R,0.939800X0.025400*%
%ADD41R,1.549400X0.025400*%
%ADD42R,1.778000X0.025400*%
%ADD43R,1.574800X0.025400*%
%ADD44R,1.905000X0.025400*%
%ADD45R,0.965200X0.025400*%
%ADD46R,1.447800X0.025400*%
%ADD47R,1.930400X0.025400*%
%ADD48R,0.990600X0.025400*%
%ADD49R,1.524000X0.025400*%
%ADD50R,1.955800X0.025400*%
%ADD51R,1.016000X0.025400*%
%ADD52R,1.981200X0.025400*%
%ADD53R,1.041400X0.025400*%
%ADD54R,2.006600X0.025400*%
%ADD55R,1.066800X0.025400*%
%ADD56R,2.032000X0.025400*%
%ADD57R,0.279400X0.025400*%
%ADD58R,2.057400X0.025400*%
%ADD59R,1.092200X0.025400*%
%ADD60R,0.762000X0.025400*%
%ADD61R,0.050800X0.025400*%
%ADD62R,0.304800X0.025400*%
%ADD63R,0.076200X0.025400*%
%ADD64R,0.254000X0.025400*%
%ADD65R,0.330200X0.025400*%
%ADD66R,0.736600X0.025400*%
%ADD67R,1.117600X0.025400*%
%ADD68R,0.711200X0.025400*%
%ADD69R,0.685800X0.025400*%
%ADD70R,0.660400X0.025400*%
%ADD71R,0.635000X0.025400*%
%ADD72R,0.609600X0.025400*%
%ADD73R,0.584200X0.025400*%
%ADD74R,0.558800X0.025400*%
%ADD75R,0.533400X0.025400*%
%ADD76R,0.508000X0.025400*%
%ADD77R,0.482600X0.025400*%
%ADD78R,0.457200X0.025400*%
%ADD79R,0.228600X0.025400*%
%ADD80R,0.431800X0.025400*%
%ADD81R,0.203200X0.025400*%
%ADD82R,0.406400X0.025400*%
%ADD83R,0.177800X0.025400*%
%ADD84R,0.381000X0.025400*%
%ADD85R,0.152400X0.025400*%
%ADD86R,0.127000X0.025400*%
%ADD87R,1.168400X0.025400*%
%ADD88R,0.025400X0.025400*%
%ADD89R,0.101600X0.025400*%
%ADD90R,0.838200X0.025400*%
%ADD91R,1.193800X0.025400*%
%ADD92R,0.787400X0.025400*%
%ADD93R,0.035556X0.017781*%
%ADD94R,0.017781X0.017781*%
%ADD95R,0.088900X0.017775*%
%ADD96R,0.142238X0.017781*%
%ADD97R,0.177800X0.017775*%
%ADD98R,0.231138X0.017781*%
%ADD99R,0.266700X0.017781*%
%ADD100R,0.320038X0.017775*%
%ADD101R,0.302256X0.017775*%
%ADD102R,0.355600X0.017781*%
%ADD103R,0.391163X0.017775*%
%ADD104R,0.391156X0.017775*%
%ADD105R,0.444500X0.017781*%
%ADD106R,0.480056X0.017781*%
%ADD107R,0.533400X0.017775*%
%ADD108R,0.568956X0.017781*%
%ADD109R,0.568963X0.017781*%
%ADD110R,0.622300X0.017775*%
%ADD111R,0.657856X0.017781*%
%ADD112R,0.711200X0.017781*%
%ADD113R,0.746756X0.017775*%
%ADD114R,0.800100X0.017781*%
%ADD115R,0.835663X0.017775*%
%ADD116R,0.835656X0.017775*%
%ADD117R,0.889000X0.017781*%
%ADD118R,0.124456X0.017781*%
%ADD119R,0.871219X0.017781*%
%ADD120R,0.924556X0.017781*%
%ADD121R,0.177800X0.017781*%
%ADD122R,0.977900X0.017775*%
%ADD123R,0.213356X0.017775*%
%ADD124R,0.960119X0.017775*%
%ADD125R,1.013456X0.017781*%
%ADD126R,1.013463X0.017781*%
%ADD127R,1.066800X0.017775*%
%ADD128R,0.302262X0.017775*%
%ADD129R,1.049019X0.017775*%
%ADD130R,1.102356X0.017781*%
%ADD131R,0.337819X0.017781*%
%ADD132R,1.137919X0.017781*%
%ADD133R,0.373375X0.017781*%
%ADD134R,0.373381X0.017781*%
%ADD135R,1.617975X0.017775*%
%ADD136R,1.617981X0.017775*%
%ADD137R,1.653538X0.017781*%
%ADD138R,1.671319X0.017775*%
%ADD139R,1.706875X0.017781*%
%ADD140R,1.706881X0.017781*%
%ADD141R,1.724656X0.017781*%
%ADD142R,1.742438X0.017775*%
%ADD143R,1.778000X0.017781*%
%ADD144R,1.795781X0.017775*%
%ADD145R,1.795775X0.017775*%
%ADD146R,1.831338X0.017781*%
%ADD147R,1.849119X0.017775*%
%ADD148R,1.831338X0.017775*%
%ADD149R,1.849119X0.017781*%
%ADD150R,1.813556X0.017775*%
%ADD151R,1.813556X0.017781*%
%ADD152R,1.813563X0.017775*%
%ADD153R,1.795781X0.017781*%
%ADD154R,1.795775X0.017781*%
%ADD155R,1.778000X0.017775*%
%ADD156R,1.760219X0.017775*%
%ADD157R,1.760219X0.017781*%
%ADD158R,1.742438X0.017781*%
%ADD159R,1.724662X0.017781*%
%ADD160R,1.724656X0.017775*%
%ADD161R,1.706875X0.017775*%
%ADD162R,1.706881X0.017775*%
%ADD163R,1.689100X0.017781*%
%ADD164R,1.689100X0.017775*%
%ADD165R,1.671319X0.017781*%
%ADD166R,1.866900X0.017781*%
%ADD167R,1.866900X0.017775*%
%ADD168R,1.884681X0.017775*%
%ADD169R,1.902456X0.017781*%
%ADD170R,1.902456X0.017775*%
%ADD171R,1.938019X0.017781*%
%ADD172R,1.920238X0.017781*%
%ADD173R,1.938019X0.017775*%
%ADD174R,1.955800X0.017775*%
%ADD175R,1.973575X0.017781*%
%ADD176R,1.973581X0.017781*%
%ADD177R,1.973575X0.017775*%
%ADD178R,1.973581X0.017775*%
%ADD179R,1.991356X0.017781*%
%ADD180R,1.991363X0.017781*%
%ADD181R,1.991356X0.017775*%
%ADD182R,1.884675X0.017775*%
%ADD183R,1.884681X0.017781*%
%ADD184R,1.884675X0.017781*%
%ADD185R,1.813563X0.017781*%
%ADD186R,1.991363X0.017775*%
%ADD187R,2.080262X0.017781*%
%ADD188R,2.062475X0.017781*%
%ADD189R,2.151381X0.017781*%
%ADD190R,2.151375X0.017781*%
%ADD191R,2.240275X0.017775*%
%ADD192R,2.240281X0.017775*%
%ADD193R,2.346956X0.017781*%
%ADD194R,2.329175X0.017781*%
%ADD195R,2.418081X0.017775*%
%ADD196R,2.418075X0.017775*%
%ADD197R,2.489200X0.017781*%
%ADD198R,2.506975X0.017781*%
%ADD199R,2.524763X0.017781*%
%ADD200R,2.506981X0.017775*%
%ADD201R,2.506981X0.017781*%
%ADD202R,2.489200X0.017775*%
%ADD203R,2.471419X0.017781*%
%ADD204R,2.471419X0.017775*%
%ADD205R,2.453638X0.017775*%
%ADD206R,2.453638X0.017781*%
%ADD207R,2.435856X0.017775*%
%ADD208R,2.435863X0.017775*%
%ADD209R,2.435856X0.017781*%
%ADD210R,2.435863X0.017781*%
%ADD211R,2.418081X0.017781*%
%ADD212R,2.400300X0.017775*%
%ADD213R,2.400300X0.017781*%
%ADD214R,2.524756X0.017781*%
%ADD215R,2.506975X0.017775*%
%ADD216R,2.382519X0.017775*%
%ADD217R,2.364737X0.017775*%
%ADD218R,2.293619X0.017781*%
%ADD219R,2.204719X0.017781*%
%ADD220R,2.133600X0.017775*%
%ADD221R,2.026919X0.017781*%
%ADD222R,2.044700X0.017781*%
%ADD223R,1.902463X0.017781*%
%ADD224R,1.920238X0.017775*%
%ADD225R,1.955800X0.017781*%
%ADD226R,2.009138X0.017781*%
%ADD227R,2.062481X0.017781*%
%ADD228R,2.115819X0.017775*%
%ADD229R,4.640575X0.017775*%
%ADD230R,4.622800X0.017781*%
%ADD231R,4.587238X0.017775*%
%ADD232R,4.587238X0.017781*%
%ADD233R,4.569456X0.017775*%
%ADD234R,4.551681X0.017781*%
%ADD235R,4.533900X0.017781*%
%ADD236R,4.516119X0.017775*%
%ADD237R,4.498337X0.017781*%
%ADD238R,4.480556X0.017775*%
%ADD239R,4.480556X0.017781*%
%ADD240R,4.445000X0.017781*%
%ADD241R,4.445000X0.017775*%
%ADD242R,4.427219X0.017781*%
%ADD243R,4.409438X0.017775*%
%ADD244R,4.409438X0.017781*%
%ADD245R,4.373881X0.017781*%
%ADD246R,4.373881X0.017775*%
%ADD247R,4.516119X0.017781*%
%ADD248R,4.551681X0.017775*%
%ADD249R,4.605019X0.017775*%
%ADD250R,4.658356X0.017781*%
%ADD251R,4.676138X0.017775*%
%ADD252R,4.693919X0.017781*%
%ADD253R,4.729481X0.017775*%
%ADD254R,4.747256X0.017781*%
%ADD255R,4.765038X0.017781*%
%ADD256R,4.800600X0.017775*%
%ADD257R,4.818375X0.017781*%
%ADD258R,4.836156X0.017775*%
%ADD259R,4.871719X0.017781*%
%ADD260R,4.907281X0.017781*%
%ADD261R,4.925056X0.017775*%
%ADD262R,4.942838X0.017781*%
%ADD263R,4.978400X0.017775*%
%ADD264R,4.996175X0.017781*%
%ADD265R,5.013956X0.017781*%
%ADD266R,5.049519X0.017775*%
%ADD267R,5.049519X0.017781*%
%ADD268R,5.085081X0.017775*%
%ADD269R,5.120637X0.017781*%
%ADD270R,5.138419X0.017781*%
%ADD271R,5.156200X0.017775*%
%ADD272R,5.191756X0.017781*%
%ADD273R,5.209538X0.017775*%
%ADD274R,5.227319X0.017781*%
%ADD275R,5.262881X0.017781*%
%ADD276R,5.298438X0.017775*%
%ADD277R,5.298438X0.017781*%
%ADD278R,5.334000X0.017775*%
%ADD279R,5.334000X0.017781*%
%ADD280R,5.262881X0.017775*%
%ADD281R,1.244600X0.017775*%
%ADD282R,1.191256X0.017781*%
%ADD283R,2.364737X0.017781*%
%ADD284R,1.155700X0.017781*%
%ADD285R,2.275838X0.017781*%
%ADD286R,1.120138X0.017775*%
%ADD287R,2.204719X0.017775*%
%ADD288R,1.102356X0.017775*%
%ADD289R,1.066800X0.017781*%
%ADD290R,2.098038X0.017781*%
%ADD291R,1.031238X0.017775*%
%ADD292R,2.026919X0.017775*%
%ADD293R,0.977900X0.017781*%
%ADD294R,0.942338X0.017781*%
%ADD295R,0.889000X0.017775*%
%ADD296R,0.853438X0.017781*%
%ADD297R,0.800100X0.017775*%
%ADD298R,1.582419X0.017775*%
%ADD299R,0.764538X0.017781*%
%ADD300R,1.493519X0.017781*%
%ADD301R,1.404619X0.017781*%
%ADD302R,0.675638X0.017775*%
%ADD303R,1.315719X0.017775*%
%ADD304R,0.640081X0.017781*%
%ADD305R,1.280156X0.017781*%
%ADD306R,0.622300X0.017781*%
%ADD307R,0.586738X0.017775*%
%ADD308R,1.262375X0.017775*%
%ADD309R,0.551175X0.017781*%
%ADD310R,1.244600X0.017781*%
%ADD311R,0.533400X0.017781*%
%ADD312R,0.497838X0.017781*%
%ADD313R,0.462275X0.017775*%
%ADD314R,0.462281X0.017775*%
%ADD315R,0.408938X0.017781*%
%ADD316R,1.226819X0.017781*%
%ADD317R,0.373381X0.017775*%
%ADD318R,1.209037X0.017775*%
%ADD319R,0.320038X0.017781*%
%ADD320R,1.209037X0.017781*%
%ADD321R,0.284481X0.017781*%
%ADD322R,0.284475X0.017781*%
%ADD323R,0.231138X0.017775*%
%ADD324R,0.195581X0.017781*%
%ADD325R,0.195575X0.017781*%
%ADD326R,0.160019X0.017775*%
%ADD327R,1.173481X0.017775*%
%ADD328R,0.142238X0.017775*%
%ADD329R,0.106675X0.017781*%
%ADD330R,1.173481X0.017781*%
%ADD331R,0.106681X0.017781*%
%ADD332R,0.071119X0.017781*%
%ADD333R,0.053338X0.017781*%
%ADD334R,1.155700X0.017775*%
%ADD335R,1.137919X0.017775*%
%ADD336R,1.084575X0.017775*%
%ADD337R,1.084575X0.017781*%
%ADD338R,1.049019X0.017781*%
%ADD339R,1.031238X0.017781*%
%ADD340R,0.995681X0.017781*%
%ADD341R,0.995681X0.017775*%
%ADD342R,0.960119X0.017781*%
%ADD343R,0.924556X0.017775*%
%ADD344C,0.127000*%
%ADD345C,0.200000*%
%ADD346C,0.101600*%


D10*
X355600Y6350D02*
X533400Y6350D01*
D11*
X533400Y615950D01*
D10*
X484800Y615950D01*
X404200Y615950D02*
X355600Y615950D01*
X355600Y6350D01*
X407000Y565150D02*
X482000Y565150D01*
X482000Y615150D01*
X407000Y615150D01*
X407000Y565150D01*
X404200Y615950D02*
X484800Y615950D01*
X484800Y622300D01*
X404200Y622300D01*
X404200Y615950D01*
X679450Y401000D02*
X679450Y0D01*
X679450Y401000D02*
X4450Y401000D01*
X4450Y0D01*
X679450Y0D01*
D12*
X30632Y460756D02*
X30632Y463367D01*
X30633Y463367D02*
X30631Y463468D01*
X30625Y463569D01*
X30615Y463670D01*
X30602Y463770D01*
X30584Y463870D01*
X30563Y463969D01*
X30537Y464067D01*
X30508Y464164D01*
X30476Y464260D01*
X30439Y464354D01*
X30399Y464447D01*
X30355Y464539D01*
X30308Y464628D01*
X30257Y464716D01*
X30203Y464802D01*
X30146Y464885D01*
X30086Y464967D01*
X30022Y465045D01*
X29956Y465122D01*
X29886Y465195D01*
X29814Y465266D01*
X29739Y465334D01*
X29661Y465399D01*
X29581Y465461D01*
X29499Y465520D01*
X29414Y465576D01*
X29328Y465628D01*
X29239Y465677D01*
X29148Y465723D01*
X29056Y465764D01*
X28962Y465803D01*
X28867Y465837D01*
X28771Y465868D01*
X28673Y465895D01*
X28575Y465919D01*
X28475Y465938D01*
X28375Y465954D01*
X28275Y465966D01*
X28174Y465974D01*
X28073Y465978D01*
X27971Y465978D01*
X27870Y465974D01*
X27769Y465966D01*
X27669Y465954D01*
X27569Y465938D01*
X27469Y465919D01*
X27371Y465895D01*
X27273Y465868D01*
X27177Y465837D01*
X27082Y465803D01*
X26988Y465764D01*
X26896Y465723D01*
X26805Y465677D01*
X26717Y465628D01*
X26630Y465576D01*
X26545Y465520D01*
X26463Y465461D01*
X26383Y465399D01*
X26305Y465334D01*
X26230Y465266D01*
X26158Y465195D01*
X26088Y465122D01*
X26022Y465045D01*
X25958Y464967D01*
X25898Y464885D01*
X25841Y464802D01*
X25787Y464716D01*
X25736Y464628D01*
X25689Y464539D01*
X25645Y464447D01*
X25605Y464354D01*
X25568Y464260D01*
X25536Y464164D01*
X25507Y464067D01*
X25481Y463969D01*
X25460Y463870D01*
X25442Y463770D01*
X25429Y463670D01*
X25419Y463569D01*
X25413Y463468D01*
X25411Y463367D01*
X21234Y463889D02*
X21234Y460756D01*
X21235Y463889D02*
X21237Y463979D01*
X21243Y464068D01*
X21252Y464158D01*
X21266Y464247D01*
X21283Y464335D01*
X21304Y464422D01*
X21329Y464509D01*
X21358Y464594D01*
X21390Y464678D01*
X21425Y464760D01*
X21465Y464841D01*
X21507Y464920D01*
X21553Y464997D01*
X21603Y465072D01*
X21655Y465145D01*
X21711Y465216D01*
X21769Y465284D01*
X21831Y465349D01*
X21895Y465412D01*
X21962Y465472D01*
X22031Y465529D01*
X22103Y465583D01*
X22177Y465634D01*
X22253Y465682D01*
X22331Y465726D01*
X22411Y465767D01*
X22493Y465805D01*
X22576Y465839D01*
X22661Y465869D01*
X22747Y465896D01*
X22833Y465919D01*
X22921Y465938D01*
X23010Y465953D01*
X23099Y465965D01*
X23188Y465973D01*
X23278Y465977D01*
X23368Y465977D01*
X23458Y465973D01*
X23547Y465965D01*
X23636Y465953D01*
X23725Y465938D01*
X23813Y465919D01*
X23899Y465896D01*
X23985Y465869D01*
X24070Y465839D01*
X24153Y465805D01*
X24235Y465767D01*
X24315Y465726D01*
X24393Y465682D01*
X24469Y465634D01*
X24543Y465583D01*
X24615Y465529D01*
X24684Y465472D01*
X24751Y465412D01*
X24815Y465349D01*
X24877Y465284D01*
X24935Y465216D01*
X24991Y465145D01*
X25043Y465072D01*
X25093Y464997D01*
X25139Y464920D01*
X25181Y464841D01*
X25221Y464760D01*
X25256Y464678D01*
X25288Y464594D01*
X25317Y464509D01*
X25342Y464422D01*
X25363Y464335D01*
X25380Y464247D01*
X25394Y464158D01*
X25403Y464068D01*
X25409Y463979D01*
X25411Y463889D01*
X25411Y461800D01*
X21234Y469378D02*
X30632Y472511D01*
X21234Y475643D01*
X30632Y479044D02*
X30632Y481654D01*
X30633Y481654D02*
X30631Y481755D01*
X30625Y481856D01*
X30615Y481957D01*
X30602Y482057D01*
X30584Y482157D01*
X30563Y482256D01*
X30537Y482354D01*
X30508Y482451D01*
X30476Y482547D01*
X30439Y482641D01*
X30399Y482734D01*
X30355Y482826D01*
X30308Y482915D01*
X30257Y483003D01*
X30203Y483089D01*
X30146Y483172D01*
X30086Y483254D01*
X30022Y483332D01*
X29956Y483409D01*
X29886Y483482D01*
X29814Y483553D01*
X29739Y483621D01*
X29661Y483686D01*
X29581Y483748D01*
X29499Y483807D01*
X29414Y483863D01*
X29328Y483915D01*
X29239Y483964D01*
X29148Y484010D01*
X29056Y484051D01*
X28962Y484090D01*
X28867Y484124D01*
X28771Y484155D01*
X28673Y484182D01*
X28575Y484206D01*
X28475Y484225D01*
X28375Y484241D01*
X28275Y484253D01*
X28174Y484261D01*
X28073Y484265D01*
X27971Y484265D01*
X27870Y484261D01*
X27769Y484253D01*
X27669Y484241D01*
X27569Y484225D01*
X27469Y484206D01*
X27371Y484182D01*
X27273Y484155D01*
X27177Y484124D01*
X27082Y484090D01*
X26988Y484051D01*
X26896Y484010D01*
X26805Y483964D01*
X26717Y483915D01*
X26630Y483863D01*
X26545Y483807D01*
X26463Y483748D01*
X26383Y483686D01*
X26305Y483621D01*
X26230Y483553D01*
X26158Y483482D01*
X26088Y483409D01*
X26022Y483332D01*
X25958Y483254D01*
X25898Y483172D01*
X25841Y483089D01*
X25787Y483003D01*
X25736Y482915D01*
X25689Y482826D01*
X25645Y482734D01*
X25605Y482641D01*
X25568Y482547D01*
X25536Y482451D01*
X25507Y482354D01*
X25481Y482256D01*
X25460Y482157D01*
X25442Y482057D01*
X25429Y481957D01*
X25419Y481856D01*
X25413Y481755D01*
X25411Y481654D01*
X21234Y482177D02*
X21234Y479044D01*
X21235Y482177D02*
X21237Y482267D01*
X21243Y482356D01*
X21252Y482446D01*
X21266Y482535D01*
X21283Y482623D01*
X21304Y482710D01*
X21329Y482797D01*
X21358Y482882D01*
X21390Y482966D01*
X21425Y483048D01*
X21465Y483129D01*
X21507Y483208D01*
X21553Y483285D01*
X21603Y483360D01*
X21655Y483433D01*
X21711Y483504D01*
X21769Y483572D01*
X21831Y483637D01*
X21895Y483700D01*
X21962Y483760D01*
X22031Y483817D01*
X22103Y483871D01*
X22177Y483922D01*
X22253Y483970D01*
X22331Y484014D01*
X22411Y484055D01*
X22493Y484093D01*
X22576Y484127D01*
X22661Y484157D01*
X22747Y484184D01*
X22833Y484207D01*
X22921Y484226D01*
X23010Y484241D01*
X23099Y484253D01*
X23188Y484261D01*
X23278Y484265D01*
X23368Y484265D01*
X23458Y484261D01*
X23547Y484253D01*
X23636Y484241D01*
X23725Y484226D01*
X23813Y484207D01*
X23899Y484184D01*
X23985Y484157D01*
X24070Y484127D01*
X24153Y484093D01*
X24235Y484055D01*
X24315Y484014D01*
X24393Y483970D01*
X24469Y483922D01*
X24543Y483871D01*
X24615Y483817D01*
X24684Y483760D01*
X24751Y483700D01*
X24815Y483637D01*
X24877Y483572D01*
X24935Y483504D01*
X24991Y483433D01*
X25043Y483360D01*
X25093Y483285D01*
X25139Y483208D01*
X25181Y483129D01*
X25221Y483048D01*
X25256Y482966D01*
X25288Y482882D01*
X25317Y482797D01*
X25342Y482710D01*
X25363Y482623D01*
X25380Y482535D01*
X25394Y482446D01*
X25403Y482356D01*
X25409Y482267D01*
X25411Y482177D01*
X25411Y480088D01*
X45415Y460756D02*
X54813Y460756D01*
X45415Y460756D02*
X45415Y463367D01*
X45417Y463467D01*
X45423Y463567D01*
X45432Y463666D01*
X45446Y463766D01*
X45463Y463864D01*
X45484Y463962D01*
X45508Y464059D01*
X45537Y464155D01*
X45569Y464250D01*
X45604Y464343D01*
X45643Y464435D01*
X45686Y464526D01*
X45732Y464614D01*
X45782Y464701D01*
X45834Y464786D01*
X45890Y464869D01*
X45949Y464950D01*
X46012Y465028D01*
X46077Y465104D01*
X46145Y465178D01*
X46215Y465248D01*
X46289Y465316D01*
X46365Y465381D01*
X46443Y465444D01*
X46524Y465503D01*
X46607Y465559D01*
X46692Y465611D01*
X46779Y465661D01*
X46867Y465707D01*
X46958Y465750D01*
X47050Y465789D01*
X47143Y465824D01*
X47238Y465856D01*
X47334Y465885D01*
X47431Y465909D01*
X47529Y465930D01*
X47627Y465947D01*
X47727Y465961D01*
X47826Y465970D01*
X47926Y465976D01*
X48026Y465978D01*
X48026Y465977D02*
X52203Y465977D01*
X52203Y465978D02*
X52303Y465976D01*
X52403Y465970D01*
X52502Y465961D01*
X52602Y465947D01*
X52700Y465930D01*
X52798Y465909D01*
X52895Y465885D01*
X52991Y465856D01*
X53086Y465824D01*
X53179Y465789D01*
X53271Y465750D01*
X53362Y465707D01*
X53450Y465661D01*
X53537Y465611D01*
X53622Y465559D01*
X53705Y465503D01*
X53786Y465444D01*
X53864Y465381D01*
X53940Y465316D01*
X54014Y465248D01*
X54084Y465178D01*
X54152Y465104D01*
X54217Y465028D01*
X54280Y464950D01*
X54339Y464869D01*
X54395Y464786D01*
X54447Y464701D01*
X54497Y464614D01*
X54543Y464526D01*
X54586Y464435D01*
X54625Y464343D01*
X54660Y464250D01*
X54692Y464155D01*
X54721Y464059D01*
X54745Y463962D01*
X54766Y463864D01*
X54783Y463766D01*
X54797Y463666D01*
X54806Y463567D01*
X54812Y463467D01*
X54814Y463367D01*
X54813Y463367D02*
X54813Y460756D01*
X54813Y469683D02*
X45415Y472815D01*
X54813Y475948D01*
X52464Y475165D02*
X52464Y470466D01*
X54813Y481350D02*
X45415Y481350D01*
X45415Y483960D02*
X45415Y478739D01*
X45415Y489884D02*
X54813Y486751D01*
X54813Y493017D02*
X45415Y489884D01*
X52464Y492234D02*
X52464Y487535D01*
X73773Y465977D02*
X73773Y464411D01*
X73773Y465977D02*
X78994Y465977D01*
X78994Y462844D01*
X78992Y462755D01*
X78986Y462667D01*
X78977Y462579D01*
X78964Y462491D01*
X78947Y462404D01*
X78927Y462318D01*
X78902Y462233D01*
X78875Y462148D01*
X78843Y462065D01*
X78809Y461984D01*
X78770Y461904D01*
X78729Y461826D01*
X78684Y461749D01*
X78636Y461675D01*
X78585Y461602D01*
X78531Y461532D01*
X78473Y461465D01*
X78413Y461399D01*
X78351Y461337D01*
X78285Y461277D01*
X78218Y461219D01*
X78148Y461165D01*
X78075Y461114D01*
X78001Y461066D01*
X77924Y461021D01*
X77846Y460980D01*
X77766Y460941D01*
X77685Y460907D01*
X77602Y460875D01*
X77517Y460848D01*
X77432Y460823D01*
X77346Y460803D01*
X77259Y460786D01*
X77171Y460773D01*
X77083Y460764D01*
X76995Y460758D01*
X76906Y460756D01*
X71684Y460756D01*
X71593Y460758D01*
X71502Y460764D01*
X71411Y460774D01*
X71321Y460788D01*
X71232Y460806D01*
X71143Y460827D01*
X71056Y460853D01*
X70970Y460882D01*
X70885Y460915D01*
X70801Y460952D01*
X70719Y460992D01*
X70640Y461036D01*
X70562Y461083D01*
X70486Y461134D01*
X70412Y461188D01*
X70341Y461245D01*
X70273Y461305D01*
X70207Y461368D01*
X70144Y461434D01*
X70084Y461502D01*
X70027Y461573D01*
X69973Y461647D01*
X69922Y461723D01*
X69875Y461800D01*
X69831Y461880D01*
X69791Y461962D01*
X69754Y462046D01*
X69721Y462130D01*
X69692Y462217D01*
X69666Y462304D01*
X69645Y462393D01*
X69627Y462482D01*
X69613Y462572D01*
X69603Y462663D01*
X69597Y462754D01*
X69595Y462845D01*
X69596Y462844D02*
X69596Y465977D01*
X69596Y470510D02*
X78994Y470510D01*
X78994Y475731D02*
X69596Y470510D01*
X69596Y475731D02*
X78994Y475731D01*
X78994Y480263D02*
X69596Y480263D01*
X69596Y482874D01*
X69598Y482974D01*
X69604Y483074D01*
X69613Y483173D01*
X69627Y483273D01*
X69644Y483371D01*
X69665Y483469D01*
X69689Y483566D01*
X69718Y483662D01*
X69750Y483757D01*
X69785Y483850D01*
X69824Y483942D01*
X69867Y484033D01*
X69913Y484121D01*
X69963Y484208D01*
X70015Y484293D01*
X70071Y484376D01*
X70130Y484457D01*
X70193Y484535D01*
X70258Y484611D01*
X70326Y484685D01*
X70396Y484755D01*
X70470Y484823D01*
X70546Y484888D01*
X70624Y484951D01*
X70705Y485010D01*
X70788Y485066D01*
X70873Y485118D01*
X70960Y485168D01*
X71048Y485214D01*
X71139Y485257D01*
X71231Y485296D01*
X71324Y485331D01*
X71419Y485363D01*
X71515Y485392D01*
X71612Y485416D01*
X71710Y485437D01*
X71808Y485454D01*
X71908Y485468D01*
X72007Y485477D01*
X72107Y485483D01*
X72207Y485485D01*
X72207Y485484D02*
X76383Y485484D01*
X76383Y485485D02*
X76483Y485483D01*
X76583Y485477D01*
X76682Y485468D01*
X76782Y485454D01*
X76880Y485437D01*
X76978Y485416D01*
X77075Y485392D01*
X77171Y485363D01*
X77266Y485331D01*
X77359Y485296D01*
X77451Y485257D01*
X77542Y485214D01*
X77630Y485168D01*
X77717Y485118D01*
X77802Y485066D01*
X77885Y485010D01*
X77966Y484951D01*
X78044Y484888D01*
X78120Y484823D01*
X78194Y484755D01*
X78264Y484685D01*
X78332Y484611D01*
X78397Y484535D01*
X78460Y484457D01*
X78519Y484376D01*
X78575Y484293D01*
X78627Y484208D01*
X78677Y484121D01*
X78723Y484033D01*
X78766Y483942D01*
X78805Y483850D01*
X78840Y483757D01*
X78872Y483662D01*
X78901Y483566D01*
X78925Y483469D01*
X78946Y483371D01*
X78963Y483273D01*
X78977Y483173D01*
X78986Y483074D01*
X78992Y482974D01*
X78994Y482874D01*
X78994Y480263D01*
X119532Y463367D02*
X119532Y460756D01*
X119533Y463367D02*
X119531Y463468D01*
X119525Y463569D01*
X119515Y463670D01*
X119502Y463770D01*
X119484Y463870D01*
X119463Y463969D01*
X119437Y464067D01*
X119408Y464164D01*
X119376Y464260D01*
X119339Y464354D01*
X119299Y464447D01*
X119255Y464539D01*
X119208Y464628D01*
X119157Y464716D01*
X119103Y464802D01*
X119046Y464885D01*
X118986Y464967D01*
X118922Y465045D01*
X118856Y465122D01*
X118786Y465195D01*
X118714Y465266D01*
X118639Y465334D01*
X118561Y465399D01*
X118481Y465461D01*
X118399Y465520D01*
X118314Y465576D01*
X118228Y465628D01*
X118139Y465677D01*
X118048Y465723D01*
X117956Y465764D01*
X117862Y465803D01*
X117767Y465837D01*
X117671Y465868D01*
X117573Y465895D01*
X117475Y465919D01*
X117375Y465938D01*
X117275Y465954D01*
X117175Y465966D01*
X117074Y465974D01*
X116973Y465978D01*
X116871Y465978D01*
X116770Y465974D01*
X116669Y465966D01*
X116569Y465954D01*
X116469Y465938D01*
X116369Y465919D01*
X116271Y465895D01*
X116173Y465868D01*
X116077Y465837D01*
X115982Y465803D01*
X115888Y465764D01*
X115796Y465723D01*
X115705Y465677D01*
X115617Y465628D01*
X115530Y465576D01*
X115445Y465520D01*
X115363Y465461D01*
X115283Y465399D01*
X115205Y465334D01*
X115130Y465266D01*
X115058Y465195D01*
X114988Y465122D01*
X114922Y465045D01*
X114858Y464967D01*
X114798Y464885D01*
X114741Y464802D01*
X114687Y464716D01*
X114636Y464628D01*
X114589Y464539D01*
X114545Y464447D01*
X114505Y464354D01*
X114468Y464260D01*
X114436Y464164D01*
X114407Y464067D01*
X114381Y463969D01*
X114360Y463870D01*
X114342Y463770D01*
X114329Y463670D01*
X114319Y463569D01*
X114313Y463468D01*
X114311Y463367D01*
X110134Y463889D02*
X110134Y460756D01*
X110135Y463889D02*
X110137Y463979D01*
X110143Y464068D01*
X110152Y464158D01*
X110166Y464247D01*
X110183Y464335D01*
X110204Y464422D01*
X110229Y464509D01*
X110258Y464594D01*
X110290Y464678D01*
X110325Y464760D01*
X110365Y464841D01*
X110407Y464920D01*
X110453Y464997D01*
X110503Y465072D01*
X110555Y465145D01*
X110611Y465216D01*
X110669Y465284D01*
X110731Y465349D01*
X110795Y465412D01*
X110862Y465472D01*
X110931Y465529D01*
X111003Y465583D01*
X111077Y465634D01*
X111153Y465682D01*
X111231Y465726D01*
X111311Y465767D01*
X111393Y465805D01*
X111476Y465839D01*
X111561Y465869D01*
X111647Y465896D01*
X111733Y465919D01*
X111821Y465938D01*
X111910Y465953D01*
X111999Y465965D01*
X112088Y465973D01*
X112178Y465977D01*
X112268Y465977D01*
X112358Y465973D01*
X112447Y465965D01*
X112536Y465953D01*
X112625Y465938D01*
X112713Y465919D01*
X112799Y465896D01*
X112885Y465869D01*
X112970Y465839D01*
X113053Y465805D01*
X113135Y465767D01*
X113215Y465726D01*
X113293Y465682D01*
X113369Y465634D01*
X113443Y465583D01*
X113515Y465529D01*
X113584Y465472D01*
X113651Y465412D01*
X113715Y465349D01*
X113777Y465284D01*
X113835Y465216D01*
X113891Y465145D01*
X113943Y465072D01*
X113993Y464997D01*
X114039Y464920D01*
X114081Y464841D01*
X114121Y464760D01*
X114156Y464678D01*
X114188Y464594D01*
X114217Y464509D01*
X114242Y464422D01*
X114263Y464335D01*
X114280Y464247D01*
X114294Y464158D01*
X114303Y464068D01*
X114309Y463979D01*
X114311Y463889D01*
X114311Y461800D01*
X110134Y469378D02*
X119532Y472511D01*
X110134Y475643D01*
X119532Y479044D02*
X119532Y481654D01*
X119533Y481654D02*
X119531Y481755D01*
X119525Y481856D01*
X119515Y481957D01*
X119502Y482057D01*
X119484Y482157D01*
X119463Y482256D01*
X119437Y482354D01*
X119408Y482451D01*
X119376Y482547D01*
X119339Y482641D01*
X119299Y482734D01*
X119255Y482826D01*
X119208Y482915D01*
X119157Y483003D01*
X119103Y483089D01*
X119046Y483172D01*
X118986Y483254D01*
X118922Y483332D01*
X118856Y483409D01*
X118786Y483482D01*
X118714Y483553D01*
X118639Y483621D01*
X118561Y483686D01*
X118481Y483748D01*
X118399Y483807D01*
X118314Y483863D01*
X118228Y483915D01*
X118139Y483964D01*
X118048Y484010D01*
X117956Y484051D01*
X117862Y484090D01*
X117767Y484124D01*
X117671Y484155D01*
X117573Y484182D01*
X117475Y484206D01*
X117375Y484225D01*
X117275Y484241D01*
X117175Y484253D01*
X117074Y484261D01*
X116973Y484265D01*
X116871Y484265D01*
X116770Y484261D01*
X116669Y484253D01*
X116569Y484241D01*
X116469Y484225D01*
X116369Y484206D01*
X116271Y484182D01*
X116173Y484155D01*
X116077Y484124D01*
X115982Y484090D01*
X115888Y484051D01*
X115796Y484010D01*
X115705Y483964D01*
X115617Y483915D01*
X115530Y483863D01*
X115445Y483807D01*
X115363Y483748D01*
X115283Y483686D01*
X115205Y483621D01*
X115130Y483553D01*
X115058Y483482D01*
X114988Y483409D01*
X114922Y483332D01*
X114858Y483254D01*
X114798Y483172D01*
X114741Y483089D01*
X114687Y483003D01*
X114636Y482915D01*
X114589Y482826D01*
X114545Y482734D01*
X114505Y482641D01*
X114468Y482547D01*
X114436Y482451D01*
X114407Y482354D01*
X114381Y482256D01*
X114360Y482157D01*
X114342Y482057D01*
X114329Y481957D01*
X114319Y481856D01*
X114313Y481755D01*
X114311Y481654D01*
X110134Y482177D02*
X110134Y479044D01*
X110135Y482177D02*
X110137Y482267D01*
X110143Y482356D01*
X110152Y482446D01*
X110166Y482535D01*
X110183Y482623D01*
X110204Y482710D01*
X110229Y482797D01*
X110258Y482882D01*
X110290Y482966D01*
X110325Y483048D01*
X110365Y483129D01*
X110407Y483208D01*
X110453Y483285D01*
X110503Y483360D01*
X110555Y483433D01*
X110611Y483504D01*
X110669Y483572D01*
X110731Y483637D01*
X110795Y483700D01*
X110862Y483760D01*
X110931Y483817D01*
X111003Y483871D01*
X111077Y483922D01*
X111153Y483970D01*
X111231Y484014D01*
X111311Y484055D01*
X111393Y484093D01*
X111476Y484127D01*
X111561Y484157D01*
X111647Y484184D01*
X111733Y484207D01*
X111821Y484226D01*
X111910Y484241D01*
X111999Y484253D01*
X112088Y484261D01*
X112178Y484265D01*
X112268Y484265D01*
X112358Y484261D01*
X112447Y484253D01*
X112536Y484241D01*
X112625Y484226D01*
X112713Y484207D01*
X112799Y484184D01*
X112885Y484157D01*
X112970Y484127D01*
X113053Y484093D01*
X113135Y484055D01*
X113215Y484014D01*
X113293Y483970D01*
X113369Y483922D01*
X113443Y483871D01*
X113515Y483817D01*
X113584Y483760D01*
X113651Y483700D01*
X113715Y483637D01*
X113777Y483572D01*
X113835Y483504D01*
X113891Y483433D01*
X113943Y483360D01*
X113993Y483285D01*
X114039Y483208D01*
X114081Y483129D01*
X114121Y483048D01*
X114156Y482966D01*
X114188Y482882D01*
X114217Y482797D01*
X114242Y482710D01*
X114263Y482623D01*
X114280Y482535D01*
X114294Y482446D01*
X114303Y482356D01*
X114309Y482267D01*
X114311Y482177D01*
X114311Y480088D01*
X134315Y460756D02*
X143713Y460756D01*
X134315Y460756D02*
X134315Y463367D01*
X134317Y463467D01*
X134323Y463567D01*
X134332Y463666D01*
X134346Y463766D01*
X134363Y463864D01*
X134384Y463962D01*
X134408Y464059D01*
X134437Y464155D01*
X134469Y464250D01*
X134504Y464343D01*
X134543Y464435D01*
X134586Y464526D01*
X134632Y464614D01*
X134682Y464701D01*
X134734Y464786D01*
X134790Y464869D01*
X134849Y464950D01*
X134912Y465028D01*
X134977Y465104D01*
X135045Y465178D01*
X135115Y465248D01*
X135189Y465316D01*
X135265Y465381D01*
X135343Y465444D01*
X135424Y465503D01*
X135507Y465559D01*
X135592Y465611D01*
X135679Y465661D01*
X135767Y465707D01*
X135858Y465750D01*
X135950Y465789D01*
X136043Y465824D01*
X136138Y465856D01*
X136234Y465885D01*
X136331Y465909D01*
X136429Y465930D01*
X136527Y465947D01*
X136627Y465961D01*
X136726Y465970D01*
X136826Y465976D01*
X136926Y465978D01*
X136926Y465977D02*
X141103Y465977D01*
X141103Y465978D02*
X141203Y465976D01*
X141303Y465970D01*
X141402Y465961D01*
X141502Y465947D01*
X141600Y465930D01*
X141698Y465909D01*
X141795Y465885D01*
X141891Y465856D01*
X141986Y465824D01*
X142079Y465789D01*
X142171Y465750D01*
X142262Y465707D01*
X142350Y465661D01*
X142437Y465611D01*
X142522Y465559D01*
X142605Y465503D01*
X142686Y465444D01*
X142764Y465381D01*
X142840Y465316D01*
X142914Y465248D01*
X142984Y465178D01*
X143052Y465104D01*
X143117Y465028D01*
X143180Y464950D01*
X143239Y464869D01*
X143295Y464786D01*
X143347Y464701D01*
X143397Y464614D01*
X143443Y464526D01*
X143486Y464435D01*
X143525Y464343D01*
X143560Y464250D01*
X143592Y464155D01*
X143621Y464059D01*
X143645Y463962D01*
X143666Y463864D01*
X143683Y463766D01*
X143697Y463666D01*
X143706Y463567D01*
X143712Y463467D01*
X143714Y463367D01*
X143713Y463367D02*
X143713Y460756D01*
X143713Y469683D02*
X134315Y472815D01*
X143713Y475948D01*
X141364Y475165D02*
X141364Y470466D01*
X143713Y481350D02*
X134315Y481350D01*
X134315Y483960D02*
X134315Y478739D01*
X134315Y489884D02*
X143713Y486751D01*
X143713Y493017D02*
X134315Y489884D01*
X141364Y492234D02*
X141364Y487535D01*
X162673Y465977D02*
X162673Y464411D01*
X162673Y465977D02*
X167894Y465977D01*
X167894Y462844D01*
X167892Y462755D01*
X167886Y462667D01*
X167877Y462579D01*
X167864Y462491D01*
X167847Y462404D01*
X167827Y462318D01*
X167802Y462233D01*
X167775Y462148D01*
X167743Y462065D01*
X167709Y461984D01*
X167670Y461904D01*
X167629Y461826D01*
X167584Y461749D01*
X167536Y461675D01*
X167485Y461602D01*
X167431Y461532D01*
X167373Y461465D01*
X167313Y461399D01*
X167251Y461337D01*
X167185Y461277D01*
X167118Y461219D01*
X167048Y461165D01*
X166975Y461114D01*
X166901Y461066D01*
X166824Y461021D01*
X166746Y460980D01*
X166666Y460941D01*
X166585Y460907D01*
X166502Y460875D01*
X166417Y460848D01*
X166332Y460823D01*
X166246Y460803D01*
X166159Y460786D01*
X166071Y460773D01*
X165983Y460764D01*
X165895Y460758D01*
X165806Y460756D01*
X160584Y460756D01*
X160493Y460758D01*
X160402Y460764D01*
X160311Y460774D01*
X160221Y460788D01*
X160132Y460806D01*
X160043Y460827D01*
X159956Y460853D01*
X159870Y460882D01*
X159785Y460915D01*
X159701Y460952D01*
X159619Y460992D01*
X159540Y461036D01*
X159462Y461083D01*
X159386Y461134D01*
X159312Y461188D01*
X159241Y461245D01*
X159173Y461305D01*
X159107Y461368D01*
X159044Y461434D01*
X158984Y461502D01*
X158927Y461573D01*
X158873Y461647D01*
X158822Y461723D01*
X158775Y461800D01*
X158731Y461880D01*
X158691Y461962D01*
X158654Y462046D01*
X158621Y462130D01*
X158592Y462217D01*
X158566Y462304D01*
X158545Y462393D01*
X158527Y462482D01*
X158513Y462572D01*
X158503Y462663D01*
X158497Y462754D01*
X158495Y462845D01*
X158496Y462844D02*
X158496Y465977D01*
X158496Y470510D02*
X167894Y470510D01*
X167894Y475731D02*
X158496Y470510D01*
X158496Y475731D02*
X167894Y475731D01*
X167894Y480263D02*
X158496Y480263D01*
X158496Y482874D01*
X158498Y482974D01*
X158504Y483074D01*
X158513Y483173D01*
X158527Y483273D01*
X158544Y483371D01*
X158565Y483469D01*
X158589Y483566D01*
X158618Y483662D01*
X158650Y483757D01*
X158685Y483850D01*
X158724Y483942D01*
X158767Y484033D01*
X158813Y484121D01*
X158863Y484208D01*
X158915Y484293D01*
X158971Y484376D01*
X159030Y484457D01*
X159093Y484535D01*
X159158Y484611D01*
X159226Y484685D01*
X159296Y484755D01*
X159370Y484823D01*
X159446Y484888D01*
X159524Y484951D01*
X159605Y485010D01*
X159688Y485066D01*
X159773Y485118D01*
X159860Y485168D01*
X159948Y485214D01*
X160039Y485257D01*
X160131Y485296D01*
X160224Y485331D01*
X160319Y485363D01*
X160415Y485392D01*
X160512Y485416D01*
X160610Y485437D01*
X160708Y485454D01*
X160808Y485468D01*
X160907Y485477D01*
X161007Y485483D01*
X161107Y485485D01*
X161107Y485484D02*
X165283Y485484D01*
X165283Y485485D02*
X165383Y485483D01*
X165483Y485477D01*
X165582Y485468D01*
X165682Y485454D01*
X165780Y485437D01*
X165878Y485416D01*
X165975Y485392D01*
X166071Y485363D01*
X166166Y485331D01*
X166259Y485296D01*
X166351Y485257D01*
X166442Y485214D01*
X166530Y485168D01*
X166617Y485118D01*
X166702Y485066D01*
X166785Y485010D01*
X166866Y484951D01*
X166944Y484888D01*
X167020Y484823D01*
X167094Y484755D01*
X167164Y484685D01*
X167232Y484611D01*
X167297Y484535D01*
X167360Y484457D01*
X167419Y484376D01*
X167475Y484293D01*
X167527Y484208D01*
X167577Y484121D01*
X167623Y484033D01*
X167666Y483942D01*
X167705Y483850D01*
X167740Y483757D01*
X167772Y483662D01*
X167801Y483566D01*
X167825Y483469D01*
X167846Y483371D01*
X167863Y483273D01*
X167877Y483173D01*
X167886Y483074D01*
X167892Y482974D01*
X167894Y482874D01*
X167894Y480263D01*
X208432Y463367D02*
X208432Y460756D01*
X208433Y463367D02*
X208431Y463468D01*
X208425Y463569D01*
X208415Y463670D01*
X208402Y463770D01*
X208384Y463870D01*
X208363Y463969D01*
X208337Y464067D01*
X208308Y464164D01*
X208276Y464260D01*
X208239Y464354D01*
X208199Y464447D01*
X208155Y464539D01*
X208108Y464628D01*
X208057Y464716D01*
X208003Y464802D01*
X207946Y464885D01*
X207886Y464967D01*
X207822Y465045D01*
X207756Y465122D01*
X207686Y465195D01*
X207614Y465266D01*
X207539Y465334D01*
X207461Y465399D01*
X207381Y465461D01*
X207299Y465520D01*
X207214Y465576D01*
X207128Y465628D01*
X207039Y465677D01*
X206948Y465723D01*
X206856Y465764D01*
X206762Y465803D01*
X206667Y465837D01*
X206571Y465868D01*
X206473Y465895D01*
X206375Y465919D01*
X206275Y465938D01*
X206175Y465954D01*
X206075Y465966D01*
X205974Y465974D01*
X205873Y465978D01*
X205771Y465978D01*
X205670Y465974D01*
X205569Y465966D01*
X205469Y465954D01*
X205369Y465938D01*
X205269Y465919D01*
X205171Y465895D01*
X205073Y465868D01*
X204977Y465837D01*
X204882Y465803D01*
X204788Y465764D01*
X204696Y465723D01*
X204605Y465677D01*
X204517Y465628D01*
X204430Y465576D01*
X204345Y465520D01*
X204263Y465461D01*
X204183Y465399D01*
X204105Y465334D01*
X204030Y465266D01*
X203958Y465195D01*
X203888Y465122D01*
X203822Y465045D01*
X203758Y464967D01*
X203698Y464885D01*
X203641Y464802D01*
X203587Y464716D01*
X203536Y464628D01*
X203489Y464539D01*
X203445Y464447D01*
X203405Y464354D01*
X203368Y464260D01*
X203336Y464164D01*
X203307Y464067D01*
X203281Y463969D01*
X203260Y463870D01*
X203242Y463770D01*
X203229Y463670D01*
X203219Y463569D01*
X203213Y463468D01*
X203211Y463367D01*
X199034Y463889D02*
X199034Y460756D01*
X199035Y463889D02*
X199037Y463979D01*
X199043Y464068D01*
X199052Y464158D01*
X199066Y464247D01*
X199083Y464335D01*
X199104Y464422D01*
X199129Y464509D01*
X199158Y464594D01*
X199190Y464678D01*
X199225Y464760D01*
X199265Y464841D01*
X199307Y464920D01*
X199353Y464997D01*
X199403Y465072D01*
X199455Y465145D01*
X199511Y465216D01*
X199569Y465284D01*
X199631Y465349D01*
X199695Y465412D01*
X199762Y465472D01*
X199831Y465529D01*
X199903Y465583D01*
X199977Y465634D01*
X200053Y465682D01*
X200131Y465726D01*
X200211Y465767D01*
X200293Y465805D01*
X200376Y465839D01*
X200461Y465869D01*
X200547Y465896D01*
X200633Y465919D01*
X200721Y465938D01*
X200810Y465953D01*
X200899Y465965D01*
X200988Y465973D01*
X201078Y465977D01*
X201168Y465977D01*
X201258Y465973D01*
X201347Y465965D01*
X201436Y465953D01*
X201525Y465938D01*
X201613Y465919D01*
X201699Y465896D01*
X201785Y465869D01*
X201870Y465839D01*
X201953Y465805D01*
X202035Y465767D01*
X202115Y465726D01*
X202193Y465682D01*
X202269Y465634D01*
X202343Y465583D01*
X202415Y465529D01*
X202484Y465472D01*
X202551Y465412D01*
X202615Y465349D01*
X202677Y465284D01*
X202735Y465216D01*
X202791Y465145D01*
X202843Y465072D01*
X202893Y464997D01*
X202939Y464920D01*
X202981Y464841D01*
X203021Y464760D01*
X203056Y464678D01*
X203088Y464594D01*
X203117Y464509D01*
X203142Y464422D01*
X203163Y464335D01*
X203180Y464247D01*
X203194Y464158D01*
X203203Y464068D01*
X203209Y463979D01*
X203211Y463889D01*
X203211Y461800D01*
X199034Y469378D02*
X208432Y472511D01*
X199034Y475643D01*
X208432Y479044D02*
X208432Y481654D01*
X208433Y481654D02*
X208431Y481755D01*
X208425Y481856D01*
X208415Y481957D01*
X208402Y482057D01*
X208384Y482157D01*
X208363Y482256D01*
X208337Y482354D01*
X208308Y482451D01*
X208276Y482547D01*
X208239Y482641D01*
X208199Y482734D01*
X208155Y482826D01*
X208108Y482915D01*
X208057Y483003D01*
X208003Y483089D01*
X207946Y483172D01*
X207886Y483254D01*
X207822Y483332D01*
X207756Y483409D01*
X207686Y483482D01*
X207614Y483553D01*
X207539Y483621D01*
X207461Y483686D01*
X207381Y483748D01*
X207299Y483807D01*
X207214Y483863D01*
X207128Y483915D01*
X207039Y483964D01*
X206948Y484010D01*
X206856Y484051D01*
X206762Y484090D01*
X206667Y484124D01*
X206571Y484155D01*
X206473Y484182D01*
X206375Y484206D01*
X206275Y484225D01*
X206175Y484241D01*
X206075Y484253D01*
X205974Y484261D01*
X205873Y484265D01*
X205771Y484265D01*
X205670Y484261D01*
X205569Y484253D01*
X205469Y484241D01*
X205369Y484225D01*
X205269Y484206D01*
X205171Y484182D01*
X205073Y484155D01*
X204977Y484124D01*
X204882Y484090D01*
X204788Y484051D01*
X204696Y484010D01*
X204605Y483964D01*
X204517Y483915D01*
X204430Y483863D01*
X204345Y483807D01*
X204263Y483748D01*
X204183Y483686D01*
X204105Y483621D01*
X204030Y483553D01*
X203958Y483482D01*
X203888Y483409D01*
X203822Y483332D01*
X203758Y483254D01*
X203698Y483172D01*
X203641Y483089D01*
X203587Y483003D01*
X203536Y482915D01*
X203489Y482826D01*
X203445Y482734D01*
X203405Y482641D01*
X203368Y482547D01*
X203336Y482451D01*
X203307Y482354D01*
X203281Y482256D01*
X203260Y482157D01*
X203242Y482057D01*
X203229Y481957D01*
X203219Y481856D01*
X203213Y481755D01*
X203211Y481654D01*
X199034Y482177D02*
X199034Y479044D01*
X199035Y482177D02*
X199037Y482267D01*
X199043Y482356D01*
X199052Y482446D01*
X199066Y482535D01*
X199083Y482623D01*
X199104Y482710D01*
X199129Y482797D01*
X199158Y482882D01*
X199190Y482966D01*
X199225Y483048D01*
X199265Y483129D01*
X199307Y483208D01*
X199353Y483285D01*
X199403Y483360D01*
X199455Y483433D01*
X199511Y483504D01*
X199569Y483572D01*
X199631Y483637D01*
X199695Y483700D01*
X199762Y483760D01*
X199831Y483817D01*
X199903Y483871D01*
X199977Y483922D01*
X200053Y483970D01*
X200131Y484014D01*
X200211Y484055D01*
X200293Y484093D01*
X200376Y484127D01*
X200461Y484157D01*
X200547Y484184D01*
X200633Y484207D01*
X200721Y484226D01*
X200810Y484241D01*
X200899Y484253D01*
X200988Y484261D01*
X201078Y484265D01*
X201168Y484265D01*
X201258Y484261D01*
X201347Y484253D01*
X201436Y484241D01*
X201525Y484226D01*
X201613Y484207D01*
X201699Y484184D01*
X201785Y484157D01*
X201870Y484127D01*
X201953Y484093D01*
X202035Y484055D01*
X202115Y484014D01*
X202193Y483970D01*
X202269Y483922D01*
X202343Y483871D01*
X202415Y483817D01*
X202484Y483760D01*
X202551Y483700D01*
X202615Y483637D01*
X202677Y483572D01*
X202735Y483504D01*
X202791Y483433D01*
X202843Y483360D01*
X202893Y483285D01*
X202939Y483208D01*
X202981Y483129D01*
X203021Y483048D01*
X203056Y482966D01*
X203088Y482882D01*
X203117Y482797D01*
X203142Y482710D01*
X203163Y482623D01*
X203180Y482535D01*
X203194Y482446D01*
X203203Y482356D01*
X203209Y482267D01*
X203211Y482177D01*
X203211Y480088D01*
X223215Y460756D02*
X232613Y460756D01*
X223215Y460756D02*
X223215Y463367D01*
X223217Y463467D01*
X223223Y463567D01*
X223232Y463666D01*
X223246Y463766D01*
X223263Y463864D01*
X223284Y463962D01*
X223308Y464059D01*
X223337Y464155D01*
X223369Y464250D01*
X223404Y464343D01*
X223443Y464435D01*
X223486Y464526D01*
X223532Y464614D01*
X223582Y464701D01*
X223634Y464786D01*
X223690Y464869D01*
X223749Y464950D01*
X223812Y465028D01*
X223877Y465104D01*
X223945Y465178D01*
X224015Y465248D01*
X224089Y465316D01*
X224165Y465381D01*
X224243Y465444D01*
X224324Y465503D01*
X224407Y465559D01*
X224492Y465611D01*
X224579Y465661D01*
X224667Y465707D01*
X224758Y465750D01*
X224850Y465789D01*
X224943Y465824D01*
X225038Y465856D01*
X225134Y465885D01*
X225231Y465909D01*
X225329Y465930D01*
X225427Y465947D01*
X225527Y465961D01*
X225626Y465970D01*
X225726Y465976D01*
X225826Y465978D01*
X225826Y465977D02*
X230003Y465977D01*
X230003Y465978D02*
X230103Y465976D01*
X230203Y465970D01*
X230302Y465961D01*
X230402Y465947D01*
X230500Y465930D01*
X230598Y465909D01*
X230695Y465885D01*
X230791Y465856D01*
X230886Y465824D01*
X230979Y465789D01*
X231071Y465750D01*
X231162Y465707D01*
X231250Y465661D01*
X231337Y465611D01*
X231422Y465559D01*
X231505Y465503D01*
X231586Y465444D01*
X231664Y465381D01*
X231740Y465316D01*
X231814Y465248D01*
X231884Y465178D01*
X231952Y465104D01*
X232017Y465028D01*
X232080Y464950D01*
X232139Y464869D01*
X232195Y464786D01*
X232247Y464701D01*
X232297Y464614D01*
X232343Y464526D01*
X232386Y464435D01*
X232425Y464343D01*
X232460Y464250D01*
X232492Y464155D01*
X232521Y464059D01*
X232545Y463962D01*
X232566Y463864D01*
X232583Y463766D01*
X232597Y463666D01*
X232606Y463567D01*
X232612Y463467D01*
X232614Y463367D01*
X232613Y463367D02*
X232613Y460756D01*
X232613Y469683D02*
X223215Y472815D01*
X232613Y475948D01*
X230264Y475165D02*
X230264Y470466D01*
X232613Y481350D02*
X223215Y481350D01*
X223215Y483960D02*
X223215Y478739D01*
X223215Y489884D02*
X232613Y486751D01*
X232613Y493017D02*
X223215Y489884D01*
X230264Y492234D02*
X230264Y487535D01*
X251573Y465977D02*
X251573Y464411D01*
X251573Y465977D02*
X256794Y465977D01*
X256794Y462844D01*
X256792Y462755D01*
X256786Y462667D01*
X256777Y462579D01*
X256764Y462491D01*
X256747Y462404D01*
X256727Y462318D01*
X256702Y462233D01*
X256675Y462148D01*
X256643Y462065D01*
X256609Y461984D01*
X256570Y461904D01*
X256529Y461826D01*
X256484Y461749D01*
X256436Y461675D01*
X256385Y461602D01*
X256331Y461532D01*
X256273Y461465D01*
X256213Y461399D01*
X256151Y461337D01*
X256085Y461277D01*
X256018Y461219D01*
X255948Y461165D01*
X255875Y461114D01*
X255801Y461066D01*
X255724Y461021D01*
X255646Y460980D01*
X255566Y460941D01*
X255485Y460907D01*
X255402Y460875D01*
X255317Y460848D01*
X255232Y460823D01*
X255146Y460803D01*
X255059Y460786D01*
X254971Y460773D01*
X254883Y460764D01*
X254795Y460758D01*
X254706Y460756D01*
X249484Y460756D01*
X249393Y460758D01*
X249302Y460764D01*
X249211Y460774D01*
X249121Y460788D01*
X249032Y460806D01*
X248943Y460827D01*
X248856Y460853D01*
X248770Y460882D01*
X248685Y460915D01*
X248601Y460952D01*
X248519Y460992D01*
X248440Y461036D01*
X248362Y461083D01*
X248286Y461134D01*
X248212Y461188D01*
X248141Y461245D01*
X248073Y461305D01*
X248007Y461368D01*
X247944Y461434D01*
X247884Y461502D01*
X247827Y461573D01*
X247773Y461647D01*
X247722Y461723D01*
X247675Y461800D01*
X247631Y461880D01*
X247591Y461962D01*
X247554Y462046D01*
X247521Y462130D01*
X247492Y462217D01*
X247466Y462304D01*
X247445Y462393D01*
X247427Y462482D01*
X247413Y462572D01*
X247403Y462663D01*
X247397Y462754D01*
X247395Y462845D01*
X247396Y462844D02*
X247396Y465977D01*
X247396Y470510D02*
X256794Y470510D01*
X256794Y475731D02*
X247396Y470510D01*
X247396Y475731D02*
X256794Y475731D01*
X256794Y480263D02*
X247396Y480263D01*
X247396Y482874D01*
X247398Y482974D01*
X247404Y483074D01*
X247413Y483173D01*
X247427Y483273D01*
X247444Y483371D01*
X247465Y483469D01*
X247489Y483566D01*
X247518Y483662D01*
X247550Y483757D01*
X247585Y483850D01*
X247624Y483942D01*
X247667Y484033D01*
X247713Y484121D01*
X247763Y484208D01*
X247815Y484293D01*
X247871Y484376D01*
X247930Y484457D01*
X247993Y484535D01*
X248058Y484611D01*
X248126Y484685D01*
X248196Y484755D01*
X248270Y484823D01*
X248346Y484888D01*
X248424Y484951D01*
X248505Y485010D01*
X248588Y485066D01*
X248673Y485118D01*
X248760Y485168D01*
X248848Y485214D01*
X248939Y485257D01*
X249031Y485296D01*
X249124Y485331D01*
X249219Y485363D01*
X249315Y485392D01*
X249412Y485416D01*
X249510Y485437D01*
X249608Y485454D01*
X249708Y485468D01*
X249807Y485477D01*
X249907Y485483D01*
X250007Y485485D01*
X250007Y485484D02*
X254183Y485484D01*
X254183Y485485D02*
X254283Y485483D01*
X254383Y485477D01*
X254482Y485468D01*
X254582Y485454D01*
X254680Y485437D01*
X254778Y485416D01*
X254875Y485392D01*
X254971Y485363D01*
X255066Y485331D01*
X255159Y485296D01*
X255251Y485257D01*
X255342Y485214D01*
X255430Y485168D01*
X255517Y485118D01*
X255602Y485066D01*
X255685Y485010D01*
X255766Y484951D01*
X255844Y484888D01*
X255920Y484823D01*
X255994Y484755D01*
X256064Y484685D01*
X256132Y484611D01*
X256197Y484535D01*
X256260Y484457D01*
X256319Y484376D01*
X256375Y484293D01*
X256427Y484208D01*
X256477Y484121D01*
X256523Y484033D01*
X256566Y483942D01*
X256605Y483850D01*
X256640Y483757D01*
X256672Y483662D01*
X256701Y483566D01*
X256725Y483469D01*
X256746Y483371D01*
X256763Y483273D01*
X256777Y483173D01*
X256786Y483074D01*
X256792Y482974D01*
X256794Y482874D01*
X256794Y480263D01*
X297332Y463367D02*
X297332Y460756D01*
X297333Y463367D02*
X297331Y463468D01*
X297325Y463569D01*
X297315Y463670D01*
X297302Y463770D01*
X297284Y463870D01*
X297263Y463969D01*
X297237Y464067D01*
X297208Y464164D01*
X297176Y464260D01*
X297139Y464354D01*
X297099Y464447D01*
X297055Y464539D01*
X297008Y464628D01*
X296957Y464716D01*
X296903Y464802D01*
X296846Y464885D01*
X296786Y464967D01*
X296722Y465045D01*
X296656Y465122D01*
X296586Y465195D01*
X296514Y465266D01*
X296439Y465334D01*
X296361Y465399D01*
X296281Y465461D01*
X296199Y465520D01*
X296114Y465576D01*
X296028Y465628D01*
X295939Y465677D01*
X295848Y465723D01*
X295756Y465764D01*
X295662Y465803D01*
X295567Y465837D01*
X295471Y465868D01*
X295373Y465895D01*
X295275Y465919D01*
X295175Y465938D01*
X295075Y465954D01*
X294975Y465966D01*
X294874Y465974D01*
X294773Y465978D01*
X294671Y465978D01*
X294570Y465974D01*
X294469Y465966D01*
X294369Y465954D01*
X294269Y465938D01*
X294169Y465919D01*
X294071Y465895D01*
X293973Y465868D01*
X293877Y465837D01*
X293782Y465803D01*
X293688Y465764D01*
X293596Y465723D01*
X293505Y465677D01*
X293417Y465628D01*
X293330Y465576D01*
X293245Y465520D01*
X293163Y465461D01*
X293083Y465399D01*
X293005Y465334D01*
X292930Y465266D01*
X292858Y465195D01*
X292788Y465122D01*
X292722Y465045D01*
X292658Y464967D01*
X292598Y464885D01*
X292541Y464802D01*
X292487Y464716D01*
X292436Y464628D01*
X292389Y464539D01*
X292345Y464447D01*
X292305Y464354D01*
X292268Y464260D01*
X292236Y464164D01*
X292207Y464067D01*
X292181Y463969D01*
X292160Y463870D01*
X292142Y463770D01*
X292129Y463670D01*
X292119Y463569D01*
X292113Y463468D01*
X292111Y463367D01*
X287934Y463889D02*
X287934Y460756D01*
X287935Y463889D02*
X287937Y463979D01*
X287943Y464068D01*
X287952Y464158D01*
X287966Y464247D01*
X287983Y464335D01*
X288004Y464422D01*
X288029Y464509D01*
X288058Y464594D01*
X288090Y464678D01*
X288125Y464760D01*
X288165Y464841D01*
X288207Y464920D01*
X288253Y464997D01*
X288303Y465072D01*
X288355Y465145D01*
X288411Y465216D01*
X288469Y465284D01*
X288531Y465349D01*
X288595Y465412D01*
X288662Y465472D01*
X288731Y465529D01*
X288803Y465583D01*
X288877Y465634D01*
X288953Y465682D01*
X289031Y465726D01*
X289111Y465767D01*
X289193Y465805D01*
X289276Y465839D01*
X289361Y465869D01*
X289447Y465896D01*
X289533Y465919D01*
X289621Y465938D01*
X289710Y465953D01*
X289799Y465965D01*
X289888Y465973D01*
X289978Y465977D01*
X290068Y465977D01*
X290158Y465973D01*
X290247Y465965D01*
X290336Y465953D01*
X290425Y465938D01*
X290513Y465919D01*
X290599Y465896D01*
X290685Y465869D01*
X290770Y465839D01*
X290853Y465805D01*
X290935Y465767D01*
X291015Y465726D01*
X291093Y465682D01*
X291169Y465634D01*
X291243Y465583D01*
X291315Y465529D01*
X291384Y465472D01*
X291451Y465412D01*
X291515Y465349D01*
X291577Y465284D01*
X291635Y465216D01*
X291691Y465145D01*
X291743Y465072D01*
X291793Y464997D01*
X291839Y464920D01*
X291881Y464841D01*
X291921Y464760D01*
X291956Y464678D01*
X291988Y464594D01*
X292017Y464509D01*
X292042Y464422D01*
X292063Y464335D01*
X292080Y464247D01*
X292094Y464158D01*
X292103Y464068D01*
X292109Y463979D01*
X292111Y463889D01*
X292111Y461800D01*
X287934Y469378D02*
X297332Y472511D01*
X287934Y475643D01*
X297332Y479044D02*
X297332Y481654D01*
X297333Y481654D02*
X297331Y481755D01*
X297325Y481856D01*
X297315Y481957D01*
X297302Y482057D01*
X297284Y482157D01*
X297263Y482256D01*
X297237Y482354D01*
X297208Y482451D01*
X297176Y482547D01*
X297139Y482641D01*
X297099Y482734D01*
X297055Y482826D01*
X297008Y482915D01*
X296957Y483003D01*
X296903Y483089D01*
X296846Y483172D01*
X296786Y483254D01*
X296722Y483332D01*
X296656Y483409D01*
X296586Y483482D01*
X296514Y483553D01*
X296439Y483621D01*
X296361Y483686D01*
X296281Y483748D01*
X296199Y483807D01*
X296114Y483863D01*
X296028Y483915D01*
X295939Y483964D01*
X295848Y484010D01*
X295756Y484051D01*
X295662Y484090D01*
X295567Y484124D01*
X295471Y484155D01*
X295373Y484182D01*
X295275Y484206D01*
X295175Y484225D01*
X295075Y484241D01*
X294975Y484253D01*
X294874Y484261D01*
X294773Y484265D01*
X294671Y484265D01*
X294570Y484261D01*
X294469Y484253D01*
X294369Y484241D01*
X294269Y484225D01*
X294169Y484206D01*
X294071Y484182D01*
X293973Y484155D01*
X293877Y484124D01*
X293782Y484090D01*
X293688Y484051D01*
X293596Y484010D01*
X293505Y483964D01*
X293417Y483915D01*
X293330Y483863D01*
X293245Y483807D01*
X293163Y483748D01*
X293083Y483686D01*
X293005Y483621D01*
X292930Y483553D01*
X292858Y483482D01*
X292788Y483409D01*
X292722Y483332D01*
X292658Y483254D01*
X292598Y483172D01*
X292541Y483089D01*
X292487Y483003D01*
X292436Y482915D01*
X292389Y482826D01*
X292345Y482734D01*
X292305Y482641D01*
X292268Y482547D01*
X292236Y482451D01*
X292207Y482354D01*
X292181Y482256D01*
X292160Y482157D01*
X292142Y482057D01*
X292129Y481957D01*
X292119Y481856D01*
X292113Y481755D01*
X292111Y481654D01*
X287934Y482177D02*
X287934Y479044D01*
X287935Y482177D02*
X287937Y482267D01*
X287943Y482356D01*
X287952Y482446D01*
X287966Y482535D01*
X287983Y482623D01*
X288004Y482710D01*
X288029Y482797D01*
X288058Y482882D01*
X288090Y482966D01*
X288125Y483048D01*
X288165Y483129D01*
X288207Y483208D01*
X288253Y483285D01*
X288303Y483360D01*
X288355Y483433D01*
X288411Y483504D01*
X288469Y483572D01*
X288531Y483637D01*
X288595Y483700D01*
X288662Y483760D01*
X288731Y483817D01*
X288803Y483871D01*
X288877Y483922D01*
X288953Y483970D01*
X289031Y484014D01*
X289111Y484055D01*
X289193Y484093D01*
X289276Y484127D01*
X289361Y484157D01*
X289447Y484184D01*
X289533Y484207D01*
X289621Y484226D01*
X289710Y484241D01*
X289799Y484253D01*
X289888Y484261D01*
X289978Y484265D01*
X290068Y484265D01*
X290158Y484261D01*
X290247Y484253D01*
X290336Y484241D01*
X290425Y484226D01*
X290513Y484207D01*
X290599Y484184D01*
X290685Y484157D01*
X290770Y484127D01*
X290853Y484093D01*
X290935Y484055D01*
X291015Y484014D01*
X291093Y483970D01*
X291169Y483922D01*
X291243Y483871D01*
X291315Y483817D01*
X291384Y483760D01*
X291451Y483700D01*
X291515Y483637D01*
X291577Y483572D01*
X291635Y483504D01*
X291691Y483433D01*
X291743Y483360D01*
X291793Y483285D01*
X291839Y483208D01*
X291881Y483129D01*
X291921Y483048D01*
X291956Y482966D01*
X291988Y482882D01*
X292017Y482797D01*
X292042Y482710D01*
X292063Y482623D01*
X292080Y482535D01*
X292094Y482446D01*
X292103Y482356D01*
X292109Y482267D01*
X292111Y482177D01*
X292111Y480088D01*
X312115Y460756D02*
X321513Y460756D01*
X312115Y460756D02*
X312115Y463367D01*
X312117Y463467D01*
X312123Y463567D01*
X312132Y463666D01*
X312146Y463766D01*
X312163Y463864D01*
X312184Y463962D01*
X312208Y464059D01*
X312237Y464155D01*
X312269Y464250D01*
X312304Y464343D01*
X312343Y464435D01*
X312386Y464526D01*
X312432Y464614D01*
X312482Y464701D01*
X312534Y464786D01*
X312590Y464869D01*
X312649Y464950D01*
X312712Y465028D01*
X312777Y465104D01*
X312845Y465178D01*
X312915Y465248D01*
X312989Y465316D01*
X313065Y465381D01*
X313143Y465444D01*
X313224Y465503D01*
X313307Y465559D01*
X313392Y465611D01*
X313479Y465661D01*
X313567Y465707D01*
X313658Y465750D01*
X313750Y465789D01*
X313843Y465824D01*
X313938Y465856D01*
X314034Y465885D01*
X314131Y465909D01*
X314229Y465930D01*
X314327Y465947D01*
X314427Y465961D01*
X314526Y465970D01*
X314626Y465976D01*
X314726Y465978D01*
X314726Y465977D02*
X318903Y465977D01*
X318903Y465978D02*
X319003Y465976D01*
X319103Y465970D01*
X319202Y465961D01*
X319302Y465947D01*
X319400Y465930D01*
X319498Y465909D01*
X319595Y465885D01*
X319691Y465856D01*
X319786Y465824D01*
X319879Y465789D01*
X319971Y465750D01*
X320062Y465707D01*
X320150Y465661D01*
X320237Y465611D01*
X320322Y465559D01*
X320405Y465503D01*
X320486Y465444D01*
X320564Y465381D01*
X320640Y465316D01*
X320714Y465248D01*
X320784Y465178D01*
X320852Y465104D01*
X320917Y465028D01*
X320980Y464950D01*
X321039Y464869D01*
X321095Y464786D01*
X321147Y464701D01*
X321197Y464614D01*
X321243Y464526D01*
X321286Y464435D01*
X321325Y464343D01*
X321360Y464250D01*
X321392Y464155D01*
X321421Y464059D01*
X321445Y463962D01*
X321466Y463864D01*
X321483Y463766D01*
X321497Y463666D01*
X321506Y463567D01*
X321512Y463467D01*
X321514Y463367D01*
X321513Y463367D02*
X321513Y460756D01*
X321513Y469683D02*
X312115Y472815D01*
X321513Y475948D01*
X319164Y475165D02*
X319164Y470466D01*
X321513Y481350D02*
X312115Y481350D01*
X312115Y483960D02*
X312115Y478739D01*
X312115Y489884D02*
X321513Y486751D01*
X321513Y493017D02*
X312115Y489884D01*
X319164Y492234D02*
X319164Y487535D01*
X340473Y465977D02*
X340473Y464411D01*
X340473Y465977D02*
X345694Y465977D01*
X345694Y462844D01*
X345692Y462755D01*
X345686Y462667D01*
X345677Y462579D01*
X345664Y462491D01*
X345647Y462404D01*
X345627Y462318D01*
X345602Y462233D01*
X345575Y462148D01*
X345543Y462065D01*
X345509Y461984D01*
X345470Y461904D01*
X345429Y461826D01*
X345384Y461749D01*
X345336Y461675D01*
X345285Y461602D01*
X345231Y461532D01*
X345173Y461465D01*
X345113Y461399D01*
X345051Y461337D01*
X344985Y461277D01*
X344918Y461219D01*
X344848Y461165D01*
X344775Y461114D01*
X344701Y461066D01*
X344624Y461021D01*
X344546Y460980D01*
X344466Y460941D01*
X344385Y460907D01*
X344302Y460875D01*
X344217Y460848D01*
X344132Y460823D01*
X344046Y460803D01*
X343959Y460786D01*
X343871Y460773D01*
X343783Y460764D01*
X343695Y460758D01*
X343606Y460756D01*
X338384Y460756D01*
X338293Y460758D01*
X338202Y460764D01*
X338111Y460774D01*
X338021Y460788D01*
X337932Y460806D01*
X337843Y460827D01*
X337756Y460853D01*
X337670Y460882D01*
X337585Y460915D01*
X337501Y460952D01*
X337419Y460992D01*
X337340Y461036D01*
X337262Y461083D01*
X337186Y461134D01*
X337112Y461188D01*
X337041Y461245D01*
X336973Y461305D01*
X336907Y461368D01*
X336844Y461434D01*
X336784Y461502D01*
X336727Y461573D01*
X336673Y461647D01*
X336622Y461723D01*
X336575Y461800D01*
X336531Y461880D01*
X336491Y461962D01*
X336454Y462046D01*
X336421Y462130D01*
X336392Y462217D01*
X336366Y462304D01*
X336345Y462393D01*
X336327Y462482D01*
X336313Y462572D01*
X336303Y462663D01*
X336297Y462754D01*
X336295Y462845D01*
X336296Y462844D02*
X336296Y465977D01*
X336296Y470510D02*
X345694Y470510D01*
X345694Y475731D02*
X336296Y470510D01*
X336296Y475731D02*
X345694Y475731D01*
X345694Y480263D02*
X336296Y480263D01*
X336296Y482874D01*
X336298Y482974D01*
X336304Y483074D01*
X336313Y483173D01*
X336327Y483273D01*
X336344Y483371D01*
X336365Y483469D01*
X336389Y483566D01*
X336418Y483662D01*
X336450Y483757D01*
X336485Y483850D01*
X336524Y483942D01*
X336567Y484033D01*
X336613Y484121D01*
X336663Y484208D01*
X336715Y484293D01*
X336771Y484376D01*
X336830Y484457D01*
X336893Y484535D01*
X336958Y484611D01*
X337026Y484685D01*
X337096Y484755D01*
X337170Y484823D01*
X337246Y484888D01*
X337324Y484951D01*
X337405Y485010D01*
X337488Y485066D01*
X337573Y485118D01*
X337660Y485168D01*
X337748Y485214D01*
X337839Y485257D01*
X337931Y485296D01*
X338024Y485331D01*
X338119Y485363D01*
X338215Y485392D01*
X338312Y485416D01*
X338410Y485437D01*
X338508Y485454D01*
X338608Y485468D01*
X338707Y485477D01*
X338807Y485483D01*
X338907Y485485D01*
X338907Y485484D02*
X343083Y485484D01*
X343083Y485485D02*
X343183Y485483D01*
X343283Y485477D01*
X343382Y485468D01*
X343482Y485454D01*
X343580Y485437D01*
X343678Y485416D01*
X343775Y485392D01*
X343871Y485363D01*
X343966Y485331D01*
X344059Y485296D01*
X344151Y485257D01*
X344242Y485214D01*
X344330Y485168D01*
X344417Y485118D01*
X344502Y485066D01*
X344585Y485010D01*
X344666Y484951D01*
X344744Y484888D01*
X344820Y484823D01*
X344894Y484755D01*
X344964Y484685D01*
X345032Y484611D01*
X345097Y484535D01*
X345160Y484457D01*
X345219Y484376D01*
X345275Y484293D01*
X345327Y484208D01*
X345377Y484121D01*
X345423Y484033D01*
X345466Y483942D01*
X345505Y483850D01*
X345540Y483757D01*
X345572Y483662D01*
X345601Y483566D01*
X345625Y483469D01*
X345646Y483371D01*
X345663Y483273D01*
X345677Y483173D01*
X345686Y483074D01*
X345692Y482974D01*
X345694Y482874D01*
X345694Y480263D01*
D13*
X50800Y550926D02*
X41063Y543137D01*
X50800Y550926D02*
X50800Y515874D01*
X41063Y515874D02*
X60537Y515874D01*
X140674Y550926D02*
X140886Y550923D01*
X141097Y550916D01*
X141309Y550903D01*
X141520Y550885D01*
X141730Y550862D01*
X141940Y550834D01*
X142149Y550801D01*
X142358Y550763D01*
X142565Y550720D01*
X142771Y550671D01*
X142976Y550618D01*
X143180Y550560D01*
X143382Y550497D01*
X143583Y550429D01*
X143781Y550357D01*
X143978Y550279D01*
X144174Y550197D01*
X144367Y550110D01*
X144558Y550018D01*
X144746Y549922D01*
X144933Y549822D01*
X145116Y549716D01*
X145298Y549607D01*
X145476Y549493D01*
X145652Y549375D01*
X145825Y549252D01*
X145995Y549126D01*
X146161Y548995D01*
X146325Y548861D01*
X146485Y548722D01*
X146642Y548580D01*
X146795Y548434D01*
X146945Y548284D01*
X147091Y548131D01*
X147233Y547974D01*
X147372Y547814D01*
X147506Y547650D01*
X147637Y547484D01*
X147763Y547314D01*
X147886Y547141D01*
X148004Y546965D01*
X148118Y546787D01*
X148227Y546605D01*
X148333Y546422D01*
X148433Y546235D01*
X148529Y546047D01*
X148621Y545856D01*
X148708Y545663D01*
X148790Y545467D01*
X148868Y545270D01*
X148940Y545072D01*
X149008Y544871D01*
X149071Y544669D01*
X149129Y544465D01*
X149182Y544260D01*
X149231Y544054D01*
X149274Y543847D01*
X149312Y543638D01*
X149345Y543429D01*
X149373Y543219D01*
X149396Y543009D01*
X149414Y542798D01*
X149427Y542586D01*
X149434Y542375D01*
X149437Y542163D01*
X140674Y550926D02*
X140402Y550923D01*
X140130Y550913D01*
X139858Y550896D01*
X139587Y550873D01*
X139316Y550844D01*
X139046Y550808D01*
X138777Y550765D01*
X138509Y550716D01*
X138243Y550660D01*
X137978Y550598D01*
X137714Y550530D01*
X137452Y550455D01*
X137193Y550374D01*
X136935Y550287D01*
X136679Y550193D01*
X136426Y550094D01*
X136175Y549988D01*
X135926Y549876D01*
X135681Y549758D01*
X135438Y549635D01*
X135199Y549505D01*
X134963Y549370D01*
X134730Y549229D01*
X134500Y549082D01*
X134274Y548930D01*
X134052Y548773D01*
X133834Y548610D01*
X133620Y548442D01*
X133410Y548269D01*
X133204Y548091D01*
X133002Y547908D01*
X132805Y547720D01*
X132613Y547527D01*
X132425Y547330D01*
X132242Y547128D01*
X132065Y546922D01*
X131892Y546712D01*
X131724Y546497D01*
X131561Y546279D01*
X131404Y546056D01*
X131252Y545830D01*
X131106Y545601D01*
X130965Y545368D01*
X130830Y545131D01*
X130701Y544892D01*
X130578Y544649D01*
X130460Y544403D01*
X130349Y544155D01*
X130243Y543904D01*
X130144Y543650D01*
X130051Y543395D01*
X129964Y543137D01*
X146516Y535347D02*
X146681Y535509D01*
X146843Y535674D01*
X147000Y535843D01*
X147153Y536016D01*
X147301Y536193D01*
X147446Y536373D01*
X147585Y536557D01*
X147721Y536744D01*
X147851Y536935D01*
X147977Y537128D01*
X148098Y537325D01*
X148215Y537525D01*
X148326Y537727D01*
X148432Y537932D01*
X148534Y538140D01*
X148630Y538350D01*
X148721Y538562D01*
X148807Y538776D01*
X148887Y538993D01*
X148962Y539211D01*
X149032Y539431D01*
X149096Y539653D01*
X149155Y539877D01*
X149208Y540101D01*
X149256Y540327D01*
X149298Y540554D01*
X149335Y540782D01*
X149366Y541011D01*
X149392Y541241D01*
X149412Y541471D01*
X149426Y541701D01*
X149434Y541932D01*
X149437Y542163D01*
X146516Y535347D02*
X129963Y515874D01*
X149437Y515874D01*
X218863Y515874D02*
X228600Y515874D01*
X228837Y515877D01*
X229074Y515886D01*
X229311Y515900D01*
X229547Y515920D01*
X229783Y515946D01*
X230018Y515978D01*
X230252Y516015D01*
X230485Y516058D01*
X230717Y516107D01*
X230948Y516161D01*
X231177Y516221D01*
X231405Y516287D01*
X231631Y516358D01*
X231856Y516434D01*
X232078Y516516D01*
X232299Y516604D01*
X232517Y516697D01*
X232733Y516795D01*
X232946Y516898D01*
X233157Y517006D01*
X233365Y517120D01*
X233571Y517238D01*
X233773Y517362D01*
X233973Y517490D01*
X234169Y517624D01*
X234362Y517762D01*
X234551Y517904D01*
X234737Y518051D01*
X234919Y518203D01*
X235098Y518359D01*
X235272Y518520D01*
X235443Y518684D01*
X235610Y518853D01*
X235772Y519025D01*
X235930Y519202D01*
X236084Y519383D01*
X236234Y519567D01*
X236379Y519754D01*
X236519Y519945D01*
X236655Y520140D01*
X236785Y520338D01*
X236911Y520539D01*
X237032Y520743D01*
X237149Y520949D01*
X237260Y521159D01*
X237365Y521371D01*
X237466Y521586D01*
X237561Y521803D01*
X237651Y522022D01*
X237736Y522244D01*
X237815Y522467D01*
X237889Y522692D01*
X237958Y522920D01*
X238020Y523148D01*
X238078Y523378D01*
X238129Y523610D01*
X238175Y523842D01*
X238215Y524076D01*
X238250Y524311D01*
X238279Y524546D01*
X238302Y524782D01*
X238319Y525019D01*
X238331Y525255D01*
X238336Y525492D01*
X238336Y525730D01*
X238331Y525967D01*
X238319Y526203D01*
X238302Y526440D01*
X238279Y526676D01*
X238250Y526911D01*
X238215Y527146D01*
X238175Y527380D01*
X238129Y527612D01*
X238078Y527844D01*
X238020Y528074D01*
X237958Y528302D01*
X237889Y528530D01*
X237815Y528755D01*
X237736Y528978D01*
X237651Y529200D01*
X237561Y529419D01*
X237466Y529636D01*
X237365Y529851D01*
X237260Y530063D01*
X237149Y530273D01*
X237032Y530480D01*
X236911Y530683D01*
X236785Y530884D01*
X236655Y531082D01*
X236519Y531277D01*
X236379Y531468D01*
X236234Y531655D01*
X236084Y531839D01*
X235930Y532020D01*
X235772Y532197D01*
X235610Y532369D01*
X235443Y532538D01*
X235272Y532702D01*
X235098Y532863D01*
X234919Y533019D01*
X234737Y533171D01*
X234551Y533318D01*
X234362Y533460D01*
X234169Y533598D01*
X233973Y533732D01*
X233773Y533860D01*
X233571Y533984D01*
X233365Y534102D01*
X233157Y534216D01*
X232946Y534324D01*
X232733Y534427D01*
X232517Y534525D01*
X232299Y534618D01*
X232078Y534706D01*
X231856Y534788D01*
X231631Y534864D01*
X231405Y534935D01*
X231177Y535001D01*
X230948Y535061D01*
X230717Y535115D01*
X230485Y535164D01*
X230252Y535207D01*
X230018Y535244D01*
X229783Y535276D01*
X229547Y535302D01*
X229311Y535322D01*
X229074Y535336D01*
X228837Y535345D01*
X228600Y535348D01*
X230547Y550926D02*
X218863Y550926D01*
X230547Y550926D02*
X230737Y550924D01*
X230926Y550917D01*
X231116Y550905D01*
X231305Y550889D01*
X231493Y550868D01*
X231681Y550843D01*
X231868Y550813D01*
X232055Y550779D01*
X232241Y550740D01*
X232425Y550696D01*
X232609Y550648D01*
X232791Y550596D01*
X232972Y550539D01*
X233151Y550478D01*
X233329Y550412D01*
X233506Y550342D01*
X233680Y550268D01*
X233853Y550190D01*
X234024Y550107D01*
X234193Y550020D01*
X234359Y549929D01*
X234523Y549835D01*
X234685Y549736D01*
X234845Y549633D01*
X235002Y549526D01*
X235156Y549416D01*
X235307Y549302D01*
X235456Y549184D01*
X235602Y549063D01*
X235745Y548938D01*
X235884Y548810D01*
X236021Y548678D01*
X236154Y548543D01*
X236284Y548405D01*
X236411Y548264D01*
X236534Y548119D01*
X236654Y547972D01*
X236769Y547822D01*
X236882Y547669D01*
X236990Y547513D01*
X237095Y547355D01*
X237196Y547195D01*
X237292Y547032D01*
X237385Y546866D01*
X237474Y546698D01*
X237559Y546529D01*
X237639Y546357D01*
X237716Y546183D01*
X237788Y546008D01*
X237855Y545831D01*
X237919Y545652D01*
X237978Y545472D01*
X238033Y545290D01*
X238083Y545107D01*
X238128Y544923D01*
X238170Y544738D01*
X238206Y544552D01*
X238239Y544365D01*
X238266Y544177D01*
X238289Y543989D01*
X238308Y543800D01*
X238322Y543611D01*
X238331Y543421D01*
X238335Y543232D01*
X238335Y543042D01*
X238331Y542853D01*
X238322Y542663D01*
X238308Y542474D01*
X238289Y542285D01*
X238266Y542097D01*
X238239Y541909D01*
X238206Y541722D01*
X238170Y541536D01*
X238128Y541351D01*
X238083Y541167D01*
X238033Y540984D01*
X237978Y540802D01*
X237919Y540622D01*
X237855Y540443D01*
X237788Y540266D01*
X237716Y540091D01*
X237639Y539917D01*
X237559Y539745D01*
X237474Y539576D01*
X237385Y539408D01*
X237292Y539243D01*
X237196Y539079D01*
X237095Y538919D01*
X236990Y538761D01*
X236882Y538605D01*
X236769Y538452D01*
X236654Y538302D01*
X236534Y538155D01*
X236411Y538010D01*
X236284Y537869D01*
X236154Y537731D01*
X236021Y537596D01*
X235884Y537464D01*
X235745Y537336D01*
X235602Y537211D01*
X235456Y537090D01*
X235307Y536972D01*
X235156Y536858D01*
X235002Y536748D01*
X234845Y536641D01*
X234685Y536538D01*
X234523Y536439D01*
X234359Y536345D01*
X234193Y536254D01*
X234024Y536167D01*
X233853Y536084D01*
X233680Y536006D01*
X233506Y535932D01*
X233329Y535862D01*
X233151Y535796D01*
X232972Y535735D01*
X232791Y535678D01*
X232609Y535626D01*
X232425Y535578D01*
X232241Y535534D01*
X232055Y535495D01*
X231868Y535461D01*
X231681Y535431D01*
X231493Y535406D01*
X231305Y535385D01*
X231116Y535369D01*
X230926Y535357D01*
X230737Y535350D01*
X230547Y535348D01*
X230547Y535347D02*
X222758Y535347D01*
X307763Y523663D02*
X315553Y550926D01*
X307763Y523663D02*
X327237Y523663D01*
X321395Y515874D02*
X321395Y531453D01*
D10*
X95250Y487800D02*
X95250Y431800D01*
X95250Y502800D02*
X95250Y558800D01*
X184150Y487800D02*
X184150Y431800D01*
X184150Y502800D02*
X184150Y558800D01*
X273050Y487800D02*
X273050Y431800D01*
X273050Y502800D02*
X273050Y558800D01*
D14*
X99949Y581152D03*
D15*
X115443Y581152D03*
D16*
X137922Y581152D03*
D17*
X159512Y581152D03*
D18*
X186055Y581152D03*
D19*
X99949Y581406D03*
D20*
X115570Y581406D03*
D21*
X138049Y581406D03*
D22*
X159512Y581406D03*
D23*
X186055Y581406D03*
D24*
X99822Y581660D03*
D14*
X115697Y581660D03*
D25*
X138176Y581660D03*
D26*
X159639Y581660D03*
D23*
X186055Y581660D03*
D27*
X99822Y581914D03*
D28*
X115824Y581914D03*
D29*
X138303Y581914D03*
D26*
X159639Y581914D03*
D30*
X186182Y581914D03*
D31*
X99695Y582168D03*
D19*
X115951Y582168D03*
D32*
X138430Y582168D03*
D33*
X159766Y582168D03*
D34*
X186309Y582168D03*
D35*
X99695Y582422D03*
D24*
X116078Y582422D03*
D36*
X138557Y582422D03*
D33*
X159766Y582422D03*
D34*
X186309Y582422D03*
D37*
X99568Y582676D03*
D38*
X116205Y582676D03*
D17*
X138684Y582676D03*
D39*
X159893Y582676D03*
D40*
X186436Y582676D03*
D41*
X99568Y582930D03*
D27*
X116332Y582930D03*
D42*
X138811Y582930D03*
D39*
X159893Y582930D03*
D40*
X186436Y582930D03*
D43*
X99441Y583184D03*
D31*
X116459Y583184D03*
D22*
X138938Y583184D03*
D44*
X160020Y583184D03*
D45*
X186563Y583184D03*
D21*
X99441Y583438D03*
D46*
X116586Y583438D03*
D26*
X139065Y583438D03*
D44*
X160020Y583438D03*
D45*
X186563Y583438D03*
D29*
X99441Y583692D03*
D35*
X116713Y583692D03*
D33*
X139192Y583692D03*
D47*
X160147Y583692D03*
D48*
X186690Y583692D03*
D32*
X99314Y583946D03*
D37*
X116840Y583946D03*
D39*
X139319Y583946D03*
D47*
X160147Y583946D03*
D48*
X186690Y583946D03*
D17*
X99314Y584200D03*
D49*
X116967Y584200D03*
D44*
X139446Y584200D03*
D50*
X160274Y584200D03*
D51*
X186817Y584200D03*
D42*
X99187Y584454D03*
D41*
X117094Y584454D03*
D47*
X139573Y584454D03*
D50*
X160274Y584454D03*
D51*
X186817Y584454D03*
D26*
X99187Y584708D03*
D43*
X117221Y584708D03*
D50*
X139700Y584708D03*
D52*
X160401Y584708D03*
D53*
X186944Y584708D03*
D33*
X99060Y584962D03*
D16*
X117348Y584962D03*
D52*
X139827Y584962D03*
X160401Y584962D03*
D53*
X186944Y584962D03*
D44*
X99060Y585216D03*
D21*
X117475Y585216D03*
D54*
X139954Y585216D03*
D52*
X160401Y585216D03*
D55*
X187071Y585216D03*
D47*
X98933Y585470D03*
D25*
X117602Y585470D03*
D56*
X140081Y585470D03*
D54*
X160528Y585470D03*
D55*
X187071Y585470D03*
D50*
X98806Y585724D03*
D29*
X117729Y585724D03*
D57*
X131318Y585724D03*
D58*
X160274Y585724D03*
D59*
X187198Y585724D03*
D60*
X92583Y585978D03*
D61*
X108585Y585978D03*
D62*
X110871Y585978D03*
D63*
X125984Y585978D03*
D64*
X131191Y585978D03*
D65*
X151638Y585978D03*
D61*
X170561Y585978D03*
D59*
X187198Y585978D03*
D66*
X92202Y586232D03*
D61*
X108585Y586232D03*
D57*
X110744Y586232D03*
D63*
X126238Y586232D03*
D64*
X131191Y586232D03*
D62*
X151511Y586232D03*
D61*
X170561Y586232D03*
D67*
X187325Y586232D03*
D66*
X91948Y586486D03*
D61*
X108585Y586486D03*
D57*
X110744Y586486D03*
D63*
X126492Y586486D03*
D64*
X131191Y586486D03*
D62*
X151511Y586486D03*
D61*
X170561Y586486D03*
D57*
X183134Y586486D03*
D61*
X192659Y586486D03*
D66*
X91694Y586740D03*
D61*
X108585Y586740D03*
D57*
X110744Y586740D03*
D63*
X126746Y586740D03*
D64*
X131191Y586740D03*
D62*
X151511Y586740D03*
D61*
X170561Y586740D03*
D57*
X183134Y586740D03*
D61*
X192659Y586740D03*
D66*
X91440Y586994D03*
D61*
X108585Y586994D03*
D57*
X110744Y586994D03*
D63*
X127000Y586994D03*
D64*
X131191Y586994D03*
D62*
X151511Y586994D03*
D61*
X170561Y586994D03*
D57*
X183134Y586994D03*
D61*
X192659Y586994D03*
D66*
X91186Y587248D03*
D61*
X108585Y587248D03*
D57*
X110744Y587248D03*
D63*
X127254Y587248D03*
D64*
X131191Y587248D03*
D62*
X151511Y587248D03*
D61*
X170561Y587248D03*
D57*
X183134Y587248D03*
D61*
X192659Y587248D03*
D66*
X90932Y587502D03*
D61*
X108585Y587502D03*
D57*
X110744Y587502D03*
D63*
X127508Y587502D03*
D64*
X131191Y587502D03*
D62*
X151511Y587502D03*
D61*
X170561Y587502D03*
D57*
X183134Y587502D03*
D61*
X192659Y587502D03*
D68*
X90805Y587756D03*
D61*
X108585Y587756D03*
D57*
X110744Y587756D03*
D63*
X127762Y587756D03*
D64*
X131191Y587756D03*
D62*
X151511Y587756D03*
D61*
X170561Y587756D03*
D57*
X183134Y587756D03*
D61*
X192659Y587756D03*
D69*
X90678Y588010D03*
D61*
X108585Y588010D03*
D57*
X110744Y588010D03*
D63*
X128016Y588010D03*
D64*
X131191Y588010D03*
D62*
X151511Y588010D03*
D61*
X170561Y588010D03*
D57*
X183134Y588010D03*
D61*
X192659Y588010D03*
D70*
X90551Y588264D03*
D61*
X108585Y588264D03*
D57*
X110744Y588264D03*
D63*
X128270Y588264D03*
D64*
X131191Y588264D03*
D62*
X151511Y588264D03*
D61*
X170561Y588264D03*
D57*
X183134Y588264D03*
D61*
X192659Y588264D03*
D71*
X90424Y588518D03*
D61*
X108585Y588518D03*
D57*
X110744Y588518D03*
D63*
X128524Y588518D03*
D64*
X131191Y588518D03*
D62*
X151511Y588518D03*
D61*
X170561Y588518D03*
D57*
X183134Y588518D03*
D61*
X192659Y588518D03*
D72*
X90297Y588772D03*
D61*
X108585Y588772D03*
D57*
X110744Y588772D03*
D63*
X128778Y588772D03*
D64*
X131191Y588772D03*
D62*
X151511Y588772D03*
D61*
X170561Y588772D03*
D57*
X183134Y588772D03*
D61*
X192659Y588772D03*
D73*
X90170Y589026D03*
D61*
X108585Y589026D03*
D57*
X110744Y589026D03*
D63*
X129032Y589026D03*
D64*
X131191Y589026D03*
D62*
X151511Y589026D03*
D61*
X170561Y589026D03*
D57*
X183134Y589026D03*
D61*
X192659Y589026D03*
D74*
X90043Y589280D03*
D61*
X108585Y589280D03*
D57*
X110744Y589280D03*
D63*
X129286Y589280D03*
D64*
X131191Y589280D03*
D62*
X151511Y589280D03*
D61*
X170561Y589280D03*
D57*
X183134Y589280D03*
D61*
X192659Y589280D03*
D75*
X89916Y589534D03*
D61*
X108585Y589534D03*
D57*
X110744Y589534D03*
D61*
X129413Y589534D03*
D64*
X131191Y589534D03*
D62*
X151511Y589534D03*
D61*
X170561Y589534D03*
D57*
X183134Y589534D03*
D61*
X192659Y589534D03*
D76*
X89789Y589788D03*
D61*
X108585Y589788D03*
D57*
X110744Y589788D03*
D61*
X129413Y589788D03*
D64*
X131191Y589788D03*
D62*
X151511Y589788D03*
D61*
X170561Y589788D03*
D57*
X183134Y589788D03*
D61*
X192659Y589788D03*
D77*
X89662Y590042D03*
D61*
X108585Y590042D03*
D64*
X110871Y590042D03*
D61*
X129413Y590042D03*
D64*
X131191Y590042D03*
D62*
X151511Y590042D03*
D61*
X170561Y590042D03*
D57*
X183134Y590042D03*
D61*
X192659Y590042D03*
D78*
X89535Y590296D03*
D61*
X108585Y590296D03*
D79*
X110998Y590296D03*
D61*
X129413Y590296D03*
D64*
X131191Y590296D03*
D62*
X151511Y590296D03*
D61*
X170561Y590296D03*
D57*
X183134Y590296D03*
D61*
X192659Y590296D03*
D80*
X89408Y590550D03*
D61*
X108585Y590550D03*
D81*
X111125Y590550D03*
D61*
X129413Y590550D03*
D64*
X131191Y590550D03*
D62*
X151511Y590550D03*
D61*
X170561Y590550D03*
D57*
X183134Y590550D03*
D61*
X192659Y590550D03*
D82*
X89281Y590804D03*
D61*
X108585Y590804D03*
D83*
X111252Y590804D03*
D61*
X129413Y590804D03*
D64*
X131191Y590804D03*
D62*
X151511Y590804D03*
D61*
X170561Y590804D03*
D57*
X183134Y590804D03*
D61*
X192659Y590804D03*
D84*
X89154Y591058D03*
D61*
X108585Y591058D03*
D85*
X111379Y591058D03*
D61*
X129413Y591058D03*
D64*
X131191Y591058D03*
D62*
X151511Y591058D03*
D61*
X170561Y591058D03*
D57*
X183134Y591058D03*
D61*
X192659Y591058D03*
D84*
X89154Y591312D03*
D61*
X108585Y591312D03*
D86*
X111506Y591312D03*
D61*
X129413Y591312D03*
D64*
X131191Y591312D03*
D62*
X151511Y591312D03*
D61*
X170561Y591312D03*
D57*
X183134Y591312D03*
D61*
X192659Y591312D03*
D84*
X89154Y591566D03*
D61*
X108585Y591566D03*
D86*
X111760Y591566D03*
D61*
X129413Y591566D03*
D64*
X131191Y591566D03*
D62*
X151511Y591566D03*
D61*
X170561Y591566D03*
D57*
X183134Y591566D03*
D61*
X192659Y591566D03*
D84*
X89154Y591820D03*
D61*
X108585Y591820D03*
D87*
X117221Y591820D03*
D61*
X129413Y591820D03*
D64*
X131191Y591820D03*
D62*
X151511Y591820D03*
D61*
X170561Y591820D03*
D57*
X183134Y591820D03*
D61*
X192659Y591820D03*
D84*
X89154Y592074D03*
D61*
X108585Y592074D03*
D63*
X122682Y592074D03*
D61*
X129413Y592074D03*
D64*
X131191Y592074D03*
X141605Y592074D03*
D62*
X151511Y592074D03*
D64*
X162179Y592074D03*
D61*
X170561Y592074D03*
D57*
X183134Y592074D03*
D61*
X192659Y592074D03*
D84*
X89154Y592328D03*
D61*
X108585Y592328D03*
X122809Y592328D03*
X129413Y592328D03*
D64*
X131191Y592328D03*
X141605Y592328D03*
D62*
X151511Y592328D03*
D65*
X162052Y592328D03*
D61*
X170561Y592328D03*
D57*
X183134Y592328D03*
D61*
X192659Y592328D03*
D84*
X89154Y592582D03*
D64*
X99695Y592582D03*
D61*
X108585Y592582D03*
X122809Y592582D03*
X129413Y592582D03*
D64*
X131191Y592582D03*
X141605Y592582D03*
D62*
X151511Y592582D03*
D65*
X162052Y592582D03*
D61*
X170561Y592582D03*
D57*
X183134Y592582D03*
D61*
X192659Y592582D03*
D84*
X89154Y592836D03*
D64*
X99695Y592836D03*
D61*
X108585Y592836D03*
X122809Y592836D03*
X129413Y592836D03*
D64*
X131191Y592836D03*
X141605Y592836D03*
D62*
X151511Y592836D03*
D65*
X162052Y592836D03*
D61*
X170561Y592836D03*
D57*
X183134Y592836D03*
D61*
X192659Y592836D03*
D84*
X89154Y593090D03*
D64*
X99695Y593090D03*
D61*
X108585Y593090D03*
X122809Y593090D03*
X129413Y593090D03*
D64*
X131191Y593090D03*
X141605Y593090D03*
D62*
X151511Y593090D03*
D65*
X162052Y593090D03*
D61*
X170561Y593090D03*
D57*
X183134Y593090D03*
D61*
X192659Y593090D03*
D84*
X89154Y593344D03*
D64*
X99695Y593344D03*
D61*
X108585Y593344D03*
X122809Y593344D03*
X129413Y593344D03*
D64*
X131191Y593344D03*
X141605Y593344D03*
D62*
X151511Y593344D03*
D65*
X162052Y593344D03*
D61*
X170561Y593344D03*
D57*
X183134Y593344D03*
D61*
X192659Y593344D03*
D84*
X89154Y593598D03*
D64*
X99695Y593598D03*
D61*
X108585Y593598D03*
X122809Y593598D03*
X129413Y593598D03*
D64*
X131191Y593598D03*
X141605Y593598D03*
D62*
X151511Y593598D03*
D65*
X162052Y593598D03*
D61*
X170561Y593598D03*
D57*
X183134Y593598D03*
D61*
X192659Y593598D03*
D84*
X89154Y593852D03*
D64*
X99695Y593852D03*
D61*
X108585Y593852D03*
X122809Y593852D03*
X129413Y593852D03*
D64*
X131191Y593852D03*
X141605Y593852D03*
D62*
X151511Y593852D03*
D65*
X162052Y593852D03*
D61*
X170561Y593852D03*
D57*
X183134Y593852D03*
D61*
X192659Y593852D03*
D84*
X89154Y594106D03*
D64*
X99695Y594106D03*
D61*
X108585Y594106D03*
D38*
X116205Y594106D03*
D61*
X129413Y594106D03*
D64*
X131191Y594106D03*
X141605Y594106D03*
D62*
X151511Y594106D03*
D65*
X162052Y594106D03*
D61*
X170561Y594106D03*
D57*
X183134Y594106D03*
D61*
X192659Y594106D03*
D84*
X89154Y594360D03*
D64*
X99695Y594360D03*
D61*
X108585Y594360D03*
D38*
X116205Y594360D03*
D61*
X129413Y594360D03*
D64*
X131191Y594360D03*
X141605Y594360D03*
D62*
X151511Y594360D03*
D65*
X162052Y594360D03*
D61*
X170561Y594360D03*
D57*
X183134Y594360D03*
D61*
X192659Y594360D03*
D84*
X89154Y594614D03*
D64*
X99695Y594614D03*
D61*
X108585Y594614D03*
D38*
X116205Y594614D03*
D61*
X129413Y594614D03*
D64*
X131191Y594614D03*
X141605Y594614D03*
D62*
X151511Y594614D03*
D65*
X162052Y594614D03*
D61*
X170561Y594614D03*
D57*
X183134Y594614D03*
D61*
X192659Y594614D03*
D84*
X89154Y594868D03*
D64*
X99695Y594868D03*
D61*
X108585Y594868D03*
D38*
X116205Y594868D03*
D61*
X129413Y594868D03*
D64*
X131191Y594868D03*
X141605Y594868D03*
D62*
X151511Y594868D03*
D65*
X162052Y594868D03*
D61*
X170561Y594868D03*
D19*
X177927Y594868D03*
D61*
X192659Y594868D03*
D84*
X89154Y595122D03*
D64*
X99695Y595122D03*
D61*
X108585Y595122D03*
D38*
X116205Y595122D03*
D61*
X129413Y595122D03*
D64*
X131191Y595122D03*
X141605Y595122D03*
D62*
X151511Y595122D03*
D65*
X162052Y595122D03*
D61*
X170561Y595122D03*
D19*
X177927Y595122D03*
D61*
X192659Y595122D03*
D84*
X89154Y595376D03*
D64*
X99695Y595376D03*
D61*
X108585Y595376D03*
D38*
X116205Y595376D03*
D61*
X129413Y595376D03*
D64*
X131191Y595376D03*
X141605Y595376D03*
D62*
X151511Y595376D03*
D65*
X162052Y595376D03*
D61*
X170561Y595376D03*
D19*
X177927Y595376D03*
D61*
X192659Y595376D03*
D84*
X89154Y595630D03*
D64*
X99695Y595630D03*
D61*
X108585Y595630D03*
D38*
X116205Y595630D03*
D61*
X129413Y595630D03*
D64*
X131191Y595630D03*
X141605Y595630D03*
D62*
X151511Y595630D03*
D65*
X162052Y595630D03*
D61*
X170561Y595630D03*
D19*
X177927Y595630D03*
D61*
X192659Y595630D03*
D84*
X89154Y595884D03*
D64*
X99695Y595884D03*
D61*
X108585Y595884D03*
D38*
X116205Y595884D03*
D61*
X129413Y595884D03*
D64*
X131191Y595884D03*
X141605Y595884D03*
D62*
X151511Y595884D03*
D65*
X162052Y595884D03*
D61*
X170561Y595884D03*
D19*
X177927Y595884D03*
D61*
X192659Y595884D03*
D84*
X89154Y596138D03*
D64*
X99695Y596138D03*
D61*
X108585Y596138D03*
D38*
X116205Y596138D03*
D61*
X129413Y596138D03*
D64*
X131191Y596138D03*
X141605Y596138D03*
D62*
X151511Y596138D03*
X162179Y596138D03*
D61*
X170561Y596138D03*
D19*
X177927Y596138D03*
D61*
X192659Y596138D03*
D84*
X89154Y596392D03*
D64*
X99695Y596392D03*
D61*
X108585Y596392D03*
D38*
X116205Y596392D03*
D61*
X129413Y596392D03*
D64*
X131191Y596392D03*
D79*
X141478Y596392D03*
D62*
X151511Y596392D03*
D61*
X170561Y596392D03*
D19*
X177927Y596392D03*
D61*
X192659Y596392D03*
D84*
X89154Y596646D03*
D64*
X99695Y596646D03*
D61*
X108585Y596646D03*
D38*
X116205Y596646D03*
D61*
X129413Y596646D03*
D64*
X131191Y596646D03*
D62*
X151511Y596646D03*
D61*
X170561Y596646D03*
D19*
X177927Y596646D03*
D61*
X192659Y596646D03*
D84*
X89154Y596900D03*
D64*
X99695Y596900D03*
D61*
X108585Y596900D03*
D62*
X110871Y596900D03*
D61*
X129413Y596900D03*
D64*
X131191Y596900D03*
D62*
X151511Y596900D03*
D61*
X170561Y596900D03*
D19*
X177927Y596900D03*
D61*
X192659Y596900D03*
D84*
X89154Y597154D03*
D64*
X99695Y597154D03*
D61*
X108585Y597154D03*
D57*
X110744Y597154D03*
D61*
X129413Y597154D03*
D64*
X131191Y597154D03*
D62*
X151511Y597154D03*
D61*
X170561Y597154D03*
D19*
X177927Y597154D03*
D61*
X192659Y597154D03*
D84*
X89154Y597408D03*
D64*
X99695Y597408D03*
D61*
X108585Y597408D03*
D57*
X110744Y597408D03*
D61*
X129413Y597408D03*
D64*
X131191Y597408D03*
D62*
X151511Y597408D03*
D61*
X170561Y597408D03*
D28*
X177800Y597408D03*
D61*
X192659Y597408D03*
D84*
X89154Y597662D03*
D64*
X99695Y597662D03*
D61*
X108585Y597662D03*
D57*
X110744Y597662D03*
D61*
X129413Y597662D03*
D64*
X131191Y597662D03*
D62*
X151511Y597662D03*
D61*
X170561Y597662D03*
D64*
X172593Y597662D03*
D61*
X192659Y597662D03*
D84*
X89154Y597916D03*
D64*
X99695Y597916D03*
D61*
X108585Y597916D03*
D57*
X110744Y597916D03*
D61*
X129413Y597916D03*
D64*
X131191Y597916D03*
D62*
X151511Y597916D03*
D61*
X170561Y597916D03*
D64*
X172593Y597916D03*
D61*
X192659Y597916D03*
D84*
X89154Y598170D03*
D64*
X99695Y598170D03*
D61*
X108585Y598170D03*
D57*
X110744Y598170D03*
D61*
X129413Y598170D03*
D64*
X131191Y598170D03*
D62*
X151511Y598170D03*
D61*
X170561Y598170D03*
D64*
X172593Y598170D03*
D61*
X192659Y598170D03*
D84*
X89154Y598424D03*
D64*
X99695Y598424D03*
D61*
X108585Y598424D03*
D57*
X110744Y598424D03*
D61*
X129413Y598424D03*
D64*
X131191Y598424D03*
D62*
X151511Y598424D03*
D61*
X170561Y598424D03*
D64*
X172593Y598424D03*
D61*
X192659Y598424D03*
D84*
X89154Y598678D03*
D64*
X99695Y598678D03*
D61*
X108585Y598678D03*
D57*
X110744Y598678D03*
D61*
X129413Y598678D03*
D64*
X131191Y598678D03*
D62*
X151511Y598678D03*
D61*
X170561Y598678D03*
D64*
X172593Y598678D03*
D61*
X192659Y598678D03*
D84*
X89154Y598932D03*
D64*
X99695Y598932D03*
D61*
X108585Y598932D03*
D57*
X110744Y598932D03*
D61*
X129413Y598932D03*
D64*
X131191Y598932D03*
D62*
X151511Y598932D03*
D61*
X170561Y598932D03*
D64*
X172593Y598932D03*
D61*
X192659Y598932D03*
D84*
X89154Y599186D03*
D64*
X99695Y599186D03*
D61*
X108585Y599186D03*
D57*
X110744Y599186D03*
D61*
X129413Y599186D03*
D64*
X131191Y599186D03*
D65*
X151384Y599186D03*
D61*
X170561Y599186D03*
D64*
X172593Y599186D03*
D61*
X192659Y599186D03*
D84*
X89154Y599440D03*
D64*
X99695Y599440D03*
D61*
X108585Y599440D03*
D57*
X110744Y599440D03*
D61*
X129413Y599440D03*
D64*
X131191Y599440D03*
D61*
X149987Y599440D03*
D64*
X151765Y599440D03*
D61*
X170561Y599440D03*
D64*
X172593Y599440D03*
D61*
X192659Y599440D03*
D84*
X89154Y599694D03*
D64*
X99695Y599694D03*
D61*
X108585Y599694D03*
D57*
X110744Y599694D03*
D61*
X129413Y599694D03*
D64*
X131191Y599694D03*
D61*
X149733Y599694D03*
D64*
X151765Y599694D03*
D61*
X170561Y599694D03*
D64*
X172593Y599694D03*
D61*
X192659Y599694D03*
D84*
X89154Y599948D03*
D64*
X99695Y599948D03*
D61*
X108585Y599948D03*
D57*
X110744Y599948D03*
D61*
X129413Y599948D03*
D64*
X131191Y599948D03*
D61*
X149479Y599948D03*
D64*
X151765Y599948D03*
D61*
X170561Y599948D03*
D64*
X172593Y599948D03*
D61*
X192659Y599948D03*
D84*
X89154Y600202D03*
D64*
X99695Y600202D03*
D61*
X108585Y600202D03*
D57*
X110744Y600202D03*
D61*
X129413Y600202D03*
D64*
X131191Y600202D03*
D61*
X149225Y600202D03*
D64*
X151765Y600202D03*
D61*
X170561Y600202D03*
D64*
X172593Y600202D03*
D61*
X192659Y600202D03*
D84*
X89154Y600456D03*
D64*
X99695Y600456D03*
D61*
X108585Y600456D03*
D57*
X110744Y600456D03*
D61*
X129413Y600456D03*
D64*
X131191Y600456D03*
D63*
X149098Y600456D03*
D64*
X151765Y600456D03*
D61*
X170561Y600456D03*
D64*
X172593Y600456D03*
D61*
X192659Y600456D03*
D84*
X89154Y600710D03*
D64*
X99695Y600710D03*
D61*
X108585Y600710D03*
D57*
X110744Y600710D03*
D61*
X129413Y600710D03*
D64*
X131191Y600710D03*
D86*
X149098Y600710D03*
D64*
X151765Y600710D03*
D61*
X170561Y600710D03*
D64*
X172593Y600710D03*
D61*
X192659Y600710D03*
D84*
X89154Y600964D03*
D64*
X99695Y600964D03*
D61*
X108585Y600964D03*
D57*
X110744Y600964D03*
D34*
X124079Y600964D03*
D63*
X129286Y600964D03*
D64*
X131191Y600964D03*
D85*
X149225Y600964D03*
D64*
X151765Y600964D03*
D61*
X170561Y600964D03*
D64*
X172593Y600964D03*
D61*
X192659Y600964D03*
D84*
X89154Y601218D03*
D64*
X99695Y601218D03*
D61*
X108585Y601218D03*
D57*
X110744Y601218D03*
D55*
X124333Y601218D03*
D64*
X131191Y601218D03*
D85*
X149479Y601218D03*
D79*
X151892Y601218D03*
D53*
X165608Y601218D03*
D64*
X172593Y601218D03*
D61*
X192659Y601218D03*
D84*
X89154Y601472D03*
D64*
X99695Y601472D03*
D61*
X108585Y601472D03*
D57*
X110744Y601472D03*
D53*
X124206Y601472D03*
D64*
X131191Y601472D03*
D81*
X141605Y601472D03*
D86*
X149606Y601472D03*
D79*
X151892Y601472D03*
D51*
X165481Y601472D03*
D64*
X172593Y601472D03*
D61*
X192659Y601472D03*
D84*
X89154Y601726D03*
D64*
X99695Y601726D03*
D61*
X108585Y601726D03*
D57*
X110744Y601726D03*
D61*
X119253Y601726D03*
D64*
X131191Y601726D03*
X141605Y601726D03*
D86*
X149860Y601726D03*
D81*
X152019Y601726D03*
D88*
X160528Y601726D03*
D64*
X172593Y601726D03*
D61*
X192659Y601726D03*
D84*
X89154Y601980D03*
D64*
X99695Y601980D03*
D61*
X108585Y601980D03*
D57*
X110744Y601980D03*
D61*
X119253Y601980D03*
D64*
X131191Y601980D03*
X141605Y601980D03*
D89*
X149987Y601980D03*
D83*
X152146Y601980D03*
D88*
X160528Y601980D03*
D64*
X172593Y601980D03*
D61*
X192659Y601980D03*
D84*
X89154Y602234D03*
D64*
X99695Y602234D03*
D61*
X108585Y602234D03*
D57*
X110744Y602234D03*
D61*
X119253Y602234D03*
D64*
X131191Y602234D03*
X141605Y602234D03*
D63*
X150114Y602234D03*
D85*
X152273Y602234D03*
D88*
X160528Y602234D03*
D64*
X172593Y602234D03*
D81*
X183261Y602234D03*
D61*
X192659Y602234D03*
D84*
X89154Y602488D03*
D64*
X99695Y602488D03*
D61*
X108585Y602488D03*
D57*
X110744Y602488D03*
D61*
X119253Y602488D03*
D64*
X131191Y602488D03*
X141605Y602488D03*
D63*
X150114Y602488D03*
D86*
X152400Y602488D03*
D88*
X160528Y602488D03*
D64*
X172593Y602488D03*
D79*
X183388Y602488D03*
D61*
X192659Y602488D03*
D84*
X89154Y602742D03*
D64*
X99695Y602742D03*
D61*
X108585Y602742D03*
D57*
X110744Y602742D03*
D90*
X123190Y602742D03*
D64*
X131191Y602742D03*
X141605Y602742D03*
D61*
X150241Y602742D03*
D89*
X152527Y602742D03*
D61*
X160655Y602742D03*
D64*
X172593Y602742D03*
D79*
X183388Y602742D03*
D61*
X192659Y602742D03*
D84*
X89154Y602996D03*
D64*
X99695Y602996D03*
D61*
X108585Y602996D03*
D57*
X110744Y602996D03*
D23*
X123317Y602996D03*
D64*
X131191Y602996D03*
X141605Y602996D03*
D61*
X150241Y602996D03*
D63*
X152654Y602996D03*
D90*
X164592Y602996D03*
D64*
X172593Y602996D03*
D79*
X183388Y602996D03*
D61*
X192659Y602996D03*
D84*
X89154Y603250D03*
D64*
X99695Y603250D03*
D61*
X108585Y603250D03*
D57*
X110744Y603250D03*
D30*
X123444Y603250D03*
D64*
X131191Y603250D03*
X141605Y603250D03*
D61*
X150241Y603250D03*
D63*
X152908Y603250D03*
D23*
X164719Y603250D03*
D64*
X172593Y603250D03*
D79*
X183388Y603250D03*
D61*
X192659Y603250D03*
D84*
X89154Y603504D03*
D64*
X99695Y603504D03*
D61*
X108585Y603504D03*
D57*
X110744Y603504D03*
D34*
X123571Y603504D03*
D64*
X131191Y603504D03*
X141605Y603504D03*
D61*
X150241Y603504D03*
X153035Y603504D03*
D30*
X164846Y603504D03*
D64*
X172593Y603504D03*
D79*
X183388Y603504D03*
D61*
X192659Y603504D03*
D84*
X89154Y603758D03*
D64*
X99695Y603758D03*
D61*
X108585Y603758D03*
D57*
X110744Y603758D03*
D40*
X123698Y603758D03*
D64*
X131191Y603758D03*
X141605Y603758D03*
D61*
X150241Y603758D03*
X153289Y603758D03*
D34*
X164973Y603758D03*
D64*
X172593Y603758D03*
D79*
X183388Y603758D03*
D61*
X192659Y603758D03*
D84*
X89154Y604012D03*
D64*
X99695Y604012D03*
D61*
X108585Y604012D03*
D57*
X110744Y604012D03*
D45*
X123825Y604012D03*
D64*
X131191Y604012D03*
X141605Y604012D03*
D61*
X150241Y604012D03*
X153543Y604012D03*
D40*
X165100Y604012D03*
D64*
X172593Y604012D03*
D79*
X183388Y604012D03*
D61*
X192659Y604012D03*
D84*
X89154Y604266D03*
D64*
X99695Y604266D03*
D61*
X108585Y604266D03*
D64*
X110871Y604266D03*
D48*
X123952Y604266D03*
D64*
X131191Y604266D03*
X141605Y604266D03*
D61*
X150241Y604266D03*
X153797Y604266D03*
D45*
X165227Y604266D03*
D64*
X172593Y604266D03*
D79*
X183388Y604266D03*
D61*
X192659Y604266D03*
D84*
X89154Y604520D03*
D64*
X99695Y604520D03*
D61*
X108585Y604520D03*
D64*
X110871Y604520D03*
D51*
X124079Y604520D03*
D64*
X131191Y604520D03*
X141605Y604520D03*
D61*
X150241Y604520D03*
X154051Y604520D03*
D48*
X165354Y604520D03*
D64*
X172593Y604520D03*
D79*
X183388Y604520D03*
D61*
X192659Y604520D03*
D84*
X89154Y604774D03*
D64*
X99695Y604774D03*
D61*
X108585Y604774D03*
D79*
X110998Y604774D03*
D53*
X124206Y604774D03*
D64*
X131191Y604774D03*
X141605Y604774D03*
D61*
X150241Y604774D03*
X154305Y604774D03*
D51*
X165481Y604774D03*
D64*
X172593Y604774D03*
D79*
X183388Y604774D03*
D61*
X192659Y604774D03*
D84*
X89154Y605028D03*
D64*
X99695Y605028D03*
D61*
X108585Y605028D03*
D81*
X111125Y605028D03*
D55*
X124333Y605028D03*
D64*
X131191Y605028D03*
X141605Y605028D03*
D61*
X150241Y605028D03*
X154559Y605028D03*
D53*
X165608Y605028D03*
D64*
X172593Y605028D03*
D79*
X183388Y605028D03*
D61*
X192659Y605028D03*
D84*
X89154Y605282D03*
D64*
X99695Y605282D03*
D61*
X108585Y605282D03*
D83*
X111252Y605282D03*
D55*
X124333Y605282D03*
D64*
X131191Y605282D03*
X141605Y605282D03*
D61*
X150241Y605282D03*
X154813Y605282D03*
X170561Y605282D03*
D64*
X172593Y605282D03*
D79*
X183388Y605282D03*
D61*
X192659Y605282D03*
D84*
X89154Y605536D03*
D64*
X99695Y605536D03*
D61*
X108585Y605536D03*
D85*
X111379Y605536D03*
D88*
X129540Y605536D03*
D64*
X131191Y605536D03*
D61*
X150241Y605536D03*
X155067Y605536D03*
X170561Y605536D03*
D64*
X172593Y605536D03*
D79*
X183388Y605536D03*
D61*
X192659Y605536D03*
D84*
X89154Y605790D03*
D64*
X99695Y605790D03*
D61*
X108585Y605790D03*
D86*
X111506Y605790D03*
D88*
X129540Y605790D03*
D64*
X131191Y605790D03*
D61*
X150241Y605790D03*
X155321Y605790D03*
X170561Y605790D03*
D64*
X172593Y605790D03*
D79*
X183388Y605790D03*
D61*
X192659Y605790D03*
D84*
X89154Y606044D03*
D64*
X99695Y606044D03*
D61*
X108585Y606044D03*
D63*
X111760Y606044D03*
D88*
X129540Y606044D03*
D64*
X131191Y606044D03*
D61*
X150241Y606044D03*
X155575Y606044D03*
X170561Y606044D03*
D64*
X172593Y606044D03*
D79*
X183388Y606044D03*
D61*
X192659Y606044D03*
D84*
X89154Y606298D03*
D64*
X99695Y606298D03*
D61*
X108585Y606298D03*
D63*
X111760Y606298D03*
D88*
X129540Y606298D03*
D64*
X131191Y606298D03*
D61*
X150241Y606298D03*
X155829Y606298D03*
X170561Y606298D03*
D64*
X172593Y606298D03*
D79*
X183388Y606298D03*
D61*
X192659Y606298D03*
D84*
X89154Y606552D03*
D64*
X99695Y606552D03*
D61*
X108585Y606552D03*
X111887Y606552D03*
D88*
X129540Y606552D03*
D64*
X131191Y606552D03*
D61*
X150241Y606552D03*
X156083Y606552D03*
X170561Y606552D03*
D64*
X172593Y606552D03*
D79*
X183388Y606552D03*
D61*
X192659Y606552D03*
D84*
X89154Y606806D03*
D64*
X99695Y606806D03*
D61*
X108585Y606806D03*
X112141Y606806D03*
D88*
X129540Y606806D03*
D64*
X131191Y606806D03*
D61*
X150241Y606806D03*
X156337Y606806D03*
X170561Y606806D03*
D64*
X172593Y606806D03*
D79*
X183388Y606806D03*
D61*
X192659Y606806D03*
D84*
X89154Y607060D03*
D64*
X99695Y607060D03*
D61*
X108585Y607060D03*
X112395Y607060D03*
D88*
X129540Y607060D03*
D64*
X131191Y607060D03*
D61*
X150241Y607060D03*
X156591Y607060D03*
X170561Y607060D03*
D64*
X172593Y607060D03*
D79*
X183388Y607060D03*
D61*
X192659Y607060D03*
D84*
X89154Y607314D03*
D64*
X99695Y607314D03*
D61*
X108585Y607314D03*
X112649Y607314D03*
D88*
X129540Y607314D03*
D64*
X131191Y607314D03*
D61*
X150241Y607314D03*
X156845Y607314D03*
X170561Y607314D03*
D64*
X172593Y607314D03*
D79*
X183388Y607314D03*
D61*
X192659Y607314D03*
D84*
X89154Y607568D03*
D64*
X99695Y607568D03*
D61*
X108585Y607568D03*
D88*
X113030Y607568D03*
X129540Y607568D03*
D64*
X131191Y607568D03*
D61*
X150241Y607568D03*
X157099Y607568D03*
X170561Y607568D03*
D64*
X172593Y607568D03*
D79*
X183388Y607568D03*
D61*
X192659Y607568D03*
D84*
X89154Y607822D03*
D64*
X99695Y607822D03*
D61*
X108585Y607822D03*
D88*
X113284Y607822D03*
X129540Y607822D03*
D64*
X131191Y607822D03*
D61*
X150241Y607822D03*
X157353Y607822D03*
X170561Y607822D03*
D64*
X172593Y607822D03*
D79*
X183388Y607822D03*
D61*
X192659Y607822D03*
D84*
X89154Y608076D03*
D64*
X99695Y608076D03*
D61*
X108585Y608076D03*
X113411Y608076D03*
D88*
X129540Y608076D03*
D64*
X131191Y608076D03*
D61*
X150241Y608076D03*
X157607Y608076D03*
X170561Y608076D03*
D64*
X172593Y608076D03*
D79*
X183388Y608076D03*
D61*
X192659Y608076D03*
D84*
X89154Y608330D03*
D64*
X99695Y608330D03*
D61*
X108585Y608330D03*
X113665Y608330D03*
D88*
X129540Y608330D03*
D64*
X131191Y608330D03*
D61*
X150241Y608330D03*
X157861Y608330D03*
X170561Y608330D03*
D64*
X172593Y608330D03*
D79*
X183388Y608330D03*
D61*
X192659Y608330D03*
D84*
X89154Y608584D03*
D64*
X99695Y608584D03*
D61*
X108585Y608584D03*
X113919Y608584D03*
D88*
X129540Y608584D03*
D64*
X131191Y608584D03*
D61*
X150241Y608584D03*
X158115Y608584D03*
X170561Y608584D03*
D64*
X172593Y608584D03*
D79*
X183388Y608584D03*
D61*
X192659Y608584D03*
D84*
X89154Y608838D03*
D64*
X99695Y608838D03*
D61*
X108585Y608838D03*
X114173Y608838D03*
D88*
X129540Y608838D03*
D64*
X131191Y608838D03*
D61*
X150241Y608838D03*
X158369Y608838D03*
X170561Y608838D03*
D64*
X172593Y608838D03*
D79*
X183388Y608838D03*
D61*
X192659Y608838D03*
D84*
X89154Y609092D03*
D64*
X99695Y609092D03*
D61*
X108585Y609092D03*
D88*
X114554Y609092D03*
X129540Y609092D03*
D64*
X131191Y609092D03*
D61*
X150241Y609092D03*
X158623Y609092D03*
X170561Y609092D03*
D64*
X172593Y609092D03*
D79*
X183388Y609092D03*
D61*
X192659Y609092D03*
D84*
X89154Y609346D03*
D64*
X99695Y609346D03*
D61*
X108585Y609346D03*
D88*
X114808Y609346D03*
X129540Y609346D03*
D64*
X131191Y609346D03*
D61*
X150241Y609346D03*
X158877Y609346D03*
X170561Y609346D03*
D64*
X172593Y609346D03*
D79*
X183388Y609346D03*
D61*
X192659Y609346D03*
D84*
X89154Y609600D03*
D64*
X99695Y609600D03*
D61*
X108585Y609600D03*
D88*
X115062Y609600D03*
X129540Y609600D03*
D79*
X131318Y609600D03*
D61*
X150241Y609600D03*
X159131Y609600D03*
X170561Y609600D03*
D64*
X172593Y609600D03*
D79*
X183388Y609600D03*
D61*
X192659Y609600D03*
D84*
X89154Y609854D03*
D64*
X99695Y609854D03*
D61*
X108585Y609854D03*
X115189Y609854D03*
D88*
X129540Y609854D03*
D81*
X131445Y609854D03*
D61*
X150241Y609854D03*
X159385Y609854D03*
X170561Y609854D03*
D79*
X172720Y609854D03*
X183388Y609854D03*
D61*
X192659Y609854D03*
D84*
X89154Y610108D03*
D64*
X99695Y610108D03*
D61*
X108585Y610108D03*
X115443Y610108D03*
D88*
X129540Y610108D03*
D83*
X131572Y610108D03*
D61*
X150241Y610108D03*
X159639Y610108D03*
X170561Y610108D03*
D81*
X172847Y610108D03*
D79*
X183388Y610108D03*
D61*
X192659Y610108D03*
D65*
X89408Y610362D03*
D64*
X99695Y610362D03*
D61*
X108585Y610362D03*
X115697Y610362D03*
D88*
X129540Y610362D03*
D85*
X131699Y610362D03*
D61*
X150241Y610362D03*
X159893Y610362D03*
X170561Y610362D03*
D83*
X172974Y610362D03*
D79*
X183388Y610362D03*
D61*
X192659Y610362D03*
D57*
X89662Y610616D03*
D64*
X99695Y610616D03*
D61*
X108585Y610616D03*
D88*
X116078Y610616D03*
X129540Y610616D03*
D86*
X131826Y610616D03*
D61*
X150241Y610616D03*
X160147Y610616D03*
X170561Y610616D03*
D85*
X173101Y610616D03*
D88*
X182372Y610616D03*
D85*
X183769Y610616D03*
D61*
X192659Y610616D03*
D79*
X89916Y610870D03*
D64*
X99695Y610870D03*
D61*
X108585Y610870D03*
D88*
X116332Y610870D03*
X129540Y610870D03*
D89*
X131953Y610870D03*
D61*
X150241Y610870D03*
X160401Y610870D03*
X170561Y610870D03*
D86*
X173228Y610870D03*
D88*
X182372Y610870D03*
D86*
X183896Y610870D03*
D61*
X192659Y610870D03*
D83*
X90170Y611124D03*
D61*
X98679Y611124D03*
D83*
X100076Y611124D03*
D61*
X108585Y611124D03*
D88*
X116586Y611124D03*
X129540Y611124D03*
D89*
X132207Y611124D03*
D61*
X150241Y611124D03*
X160655Y611124D03*
X170561Y611124D03*
D89*
X173355Y611124D03*
D88*
X182372Y611124D03*
D89*
X184023Y611124D03*
D61*
X192659Y611124D03*
D86*
X90424Y611378D03*
D61*
X98679Y611378D03*
D86*
X100330Y611378D03*
D61*
X108585Y611378D03*
D63*
X116840Y611378D03*
D61*
X129413Y611378D03*
D86*
X132588Y611378D03*
X149860Y611378D03*
D63*
X161036Y611378D03*
D61*
X170561Y611378D03*
D63*
X173482Y611378D03*
D88*
X182372Y611378D03*
D89*
X184277Y611378D03*
D63*
X192532Y611378D03*
D89*
X90805Y611632D03*
D63*
X98552Y611632D03*
D89*
X100711Y611632D03*
D63*
X108458Y611632D03*
D28*
X123190Y611632D03*
D26*
X141351Y611632D03*
D45*
X165989Y611632D03*
D61*
X173609Y611632D03*
X182245Y611632D03*
D23*
X188341Y611632D03*
D66*
X94742Y611886D03*
D60*
X104775Y611886D03*
D91*
X123190Y611886D03*
D22*
X141478Y611886D03*
D90*
X178054Y611886D03*
D92*
X188468Y611886D03*
D12*
X670433Y416405D02*
X670433Y414359D01*
X670431Y414290D01*
X670425Y414222D01*
X670416Y414153D01*
X670402Y414086D01*
X670385Y414019D01*
X670364Y413953D01*
X670340Y413889D01*
X670311Y413826D01*
X670280Y413765D01*
X670245Y413706D01*
X670207Y413648D01*
X670165Y413593D01*
X670121Y413541D01*
X670073Y413491D01*
X670023Y413443D01*
X669971Y413399D01*
X669916Y413358D01*
X669858Y413319D01*
X669799Y413284D01*
X669738Y413253D01*
X669675Y413224D01*
X669611Y413200D01*
X669545Y413179D01*
X669478Y413162D01*
X669411Y413148D01*
X669343Y413139D01*
X669274Y413133D01*
X669205Y413131D01*
X666750Y413131D01*
X666681Y413133D01*
X666613Y413139D01*
X666544Y413148D01*
X666477Y413162D01*
X666410Y413179D01*
X666344Y413200D01*
X666280Y413224D01*
X666217Y413253D01*
X666156Y413284D01*
X666097Y413319D01*
X666039Y413357D01*
X665984Y413399D01*
X665932Y413443D01*
X665882Y413491D01*
X665834Y413541D01*
X665790Y413593D01*
X665748Y413648D01*
X665710Y413706D01*
X665675Y413765D01*
X665644Y413826D01*
X665615Y413889D01*
X665591Y413953D01*
X665570Y414019D01*
X665553Y414086D01*
X665539Y414153D01*
X665530Y414222D01*
X665524Y414290D01*
X665522Y414359D01*
X665522Y416405D01*
X671661Y416405D01*
X671730Y416403D01*
X671798Y416397D01*
X671867Y416388D01*
X671934Y416374D01*
X672001Y416357D01*
X672067Y416336D01*
X672131Y416312D01*
X672194Y416283D01*
X672255Y416252D01*
X672314Y416217D01*
X672372Y416179D01*
X672427Y416137D01*
X672479Y416093D01*
X672529Y416045D01*
X672577Y415995D01*
X672621Y415943D01*
X672663Y415888D01*
X672701Y415830D01*
X672736Y415771D01*
X672767Y415710D01*
X672796Y415647D01*
X672820Y415583D01*
X672841Y415517D01*
X672858Y415450D01*
X672872Y415383D01*
X672881Y415314D01*
X672887Y415246D01*
X672889Y415177D01*
X672888Y415177D02*
X672888Y413540D01*
X670433Y419686D02*
X665522Y419686D01*
X663476Y419481D02*
X663067Y419481D01*
X663067Y419890D01*
X663476Y419890D01*
X663476Y419481D01*
X665522Y422051D02*
X665522Y424507D01*
X663067Y422870D02*
X669205Y422870D01*
X669205Y422869D02*
X669274Y422871D01*
X669342Y422877D01*
X669411Y422886D01*
X669478Y422900D01*
X669545Y422917D01*
X669611Y422938D01*
X669675Y422962D01*
X669738Y422991D01*
X669799Y423022D01*
X669858Y423057D01*
X669916Y423095D01*
X669971Y423137D01*
X670023Y423181D01*
X670073Y423229D01*
X670121Y423279D01*
X670165Y423331D01*
X670207Y423386D01*
X670245Y423444D01*
X670280Y423503D01*
X670311Y423564D01*
X670340Y423627D01*
X670364Y423691D01*
X670385Y423757D01*
X670402Y423824D01*
X670416Y423891D01*
X670425Y423960D01*
X670431Y424028D01*
X670433Y424097D01*
X670433Y424507D01*
X670433Y427558D02*
X663067Y427558D01*
X665522Y427558D02*
X665522Y429604D01*
X665524Y429673D01*
X665530Y429741D01*
X665539Y429810D01*
X665553Y429877D01*
X665570Y429944D01*
X665591Y430010D01*
X665615Y430074D01*
X665644Y430137D01*
X665675Y430198D01*
X665710Y430257D01*
X665748Y430315D01*
X665790Y430370D01*
X665834Y430422D01*
X665882Y430472D01*
X665932Y430520D01*
X665984Y430564D01*
X666039Y430606D01*
X666097Y430644D01*
X666156Y430679D01*
X666217Y430710D01*
X666280Y430739D01*
X666344Y430763D01*
X666410Y430784D01*
X666477Y430801D01*
X666544Y430815D01*
X666613Y430824D01*
X666681Y430830D01*
X666750Y430832D01*
X670433Y430832D01*
X669205Y434386D02*
X665522Y434386D01*
X669205Y434386D02*
X669274Y434388D01*
X669342Y434394D01*
X669411Y434403D01*
X669478Y434417D01*
X669545Y434434D01*
X669611Y434455D01*
X669675Y434479D01*
X669738Y434508D01*
X669799Y434539D01*
X669858Y434574D01*
X669916Y434612D01*
X669971Y434654D01*
X670023Y434698D01*
X670073Y434746D01*
X670121Y434796D01*
X670165Y434848D01*
X670207Y434903D01*
X670245Y434961D01*
X670280Y435020D01*
X670311Y435081D01*
X670340Y435144D01*
X670364Y435208D01*
X670385Y435274D01*
X670402Y435341D01*
X670416Y435408D01*
X670425Y435477D01*
X670431Y435545D01*
X670433Y435614D01*
X670433Y437660D01*
X665522Y437660D01*
X663067Y441254D02*
X670433Y441254D01*
X670433Y443300D01*
X670431Y443369D01*
X670425Y443437D01*
X670416Y443506D01*
X670402Y443573D01*
X670385Y443640D01*
X670364Y443706D01*
X670340Y443770D01*
X670311Y443833D01*
X670280Y443894D01*
X670245Y443953D01*
X670207Y444011D01*
X670165Y444066D01*
X670121Y444118D01*
X670073Y444168D01*
X670023Y444216D01*
X669971Y444260D01*
X669916Y444302D01*
X669858Y444340D01*
X669799Y444375D01*
X669738Y444406D01*
X669675Y444435D01*
X669611Y444459D01*
X669545Y444480D01*
X669478Y444497D01*
X669411Y444511D01*
X669342Y444520D01*
X669274Y444526D01*
X669205Y444528D01*
X666750Y444528D01*
X666681Y444526D01*
X666613Y444520D01*
X666544Y444511D01*
X666477Y444497D01*
X666410Y444480D01*
X666344Y444459D01*
X666280Y444435D01*
X666217Y444406D01*
X666156Y444375D01*
X666097Y444340D01*
X666039Y444302D01*
X665984Y444260D01*
X665932Y444216D01*
X665882Y444168D01*
X665834Y444118D01*
X665790Y444066D01*
X665749Y444011D01*
X665710Y443953D01*
X665675Y443894D01*
X665644Y443833D01*
X665615Y443770D01*
X665591Y443706D01*
X665570Y443640D01*
X665553Y443573D01*
X665539Y443506D01*
X665530Y443438D01*
X665524Y443369D01*
X665522Y443300D01*
X665522Y441254D01*
X670024Y447279D02*
X670433Y447279D01*
X670024Y447279D02*
X670024Y447688D01*
X670433Y447688D01*
X670433Y447279D01*
X670433Y451716D02*
X670433Y453353D01*
X670433Y451716D02*
X670431Y451647D01*
X670425Y451579D01*
X670416Y451510D01*
X670402Y451443D01*
X670385Y451376D01*
X670364Y451310D01*
X670340Y451246D01*
X670311Y451183D01*
X670280Y451122D01*
X670245Y451063D01*
X670207Y451005D01*
X670165Y450950D01*
X670121Y450898D01*
X670073Y450848D01*
X670023Y450800D01*
X669971Y450756D01*
X669916Y450715D01*
X669858Y450676D01*
X669799Y450641D01*
X669738Y450610D01*
X669675Y450581D01*
X669611Y450557D01*
X669545Y450536D01*
X669478Y450519D01*
X669411Y450505D01*
X669343Y450496D01*
X669274Y450490D01*
X669205Y450488D01*
X666750Y450488D01*
X666681Y450490D01*
X666613Y450496D01*
X666544Y450505D01*
X666477Y450519D01*
X666410Y450536D01*
X666344Y450557D01*
X666280Y450581D01*
X666217Y450610D01*
X666156Y450641D01*
X666097Y450676D01*
X666039Y450714D01*
X665984Y450756D01*
X665932Y450800D01*
X665882Y450848D01*
X665834Y450898D01*
X665790Y450950D01*
X665748Y451005D01*
X665710Y451063D01*
X665675Y451122D01*
X665644Y451183D01*
X665615Y451246D01*
X665591Y451310D01*
X665570Y451376D01*
X665553Y451443D01*
X665539Y451510D01*
X665530Y451579D01*
X665524Y451647D01*
X665522Y451716D01*
X665522Y453353D01*
X667159Y456088D02*
X668796Y456088D01*
X667159Y456087D02*
X667080Y456089D01*
X667001Y456095D01*
X666922Y456104D01*
X666844Y456117D01*
X666767Y456135D01*
X666691Y456155D01*
X666616Y456180D01*
X666542Y456208D01*
X666469Y456239D01*
X666398Y456275D01*
X666329Y456313D01*
X666262Y456355D01*
X666197Y456400D01*
X666134Y456448D01*
X666073Y456499D01*
X666016Y456553D01*
X665960Y456609D01*
X665908Y456668D01*
X665858Y456730D01*
X665812Y456794D01*
X665768Y456860D01*
X665728Y456928D01*
X665692Y456998D01*
X665658Y457070D01*
X665628Y457144D01*
X665602Y457218D01*
X665579Y457294D01*
X665561Y457371D01*
X665545Y457448D01*
X665534Y457527D01*
X665526Y457605D01*
X665522Y457684D01*
X665522Y457764D01*
X665526Y457843D01*
X665534Y457921D01*
X665545Y458000D01*
X665561Y458077D01*
X665579Y458154D01*
X665602Y458230D01*
X665628Y458304D01*
X665658Y458378D01*
X665692Y458450D01*
X665728Y458520D01*
X665768Y458588D01*
X665812Y458654D01*
X665858Y458718D01*
X665908Y458780D01*
X665960Y458839D01*
X666016Y458895D01*
X666073Y458949D01*
X666134Y459000D01*
X666197Y459048D01*
X666262Y459093D01*
X666329Y459135D01*
X666398Y459173D01*
X666469Y459209D01*
X666542Y459240D01*
X666616Y459268D01*
X666691Y459293D01*
X666767Y459313D01*
X666844Y459331D01*
X666922Y459344D01*
X667001Y459353D01*
X667080Y459359D01*
X667159Y459361D01*
X668796Y459361D01*
X668875Y459359D01*
X668954Y459353D01*
X669033Y459344D01*
X669111Y459331D01*
X669188Y459313D01*
X669264Y459293D01*
X669339Y459268D01*
X669413Y459240D01*
X669486Y459209D01*
X669557Y459173D01*
X669626Y459135D01*
X669693Y459093D01*
X669758Y459048D01*
X669821Y459000D01*
X669882Y458949D01*
X669939Y458895D01*
X669995Y458839D01*
X670047Y458780D01*
X670097Y458718D01*
X670143Y458654D01*
X670187Y458588D01*
X670227Y458520D01*
X670263Y458450D01*
X670297Y458378D01*
X670327Y458304D01*
X670353Y458230D01*
X670376Y458154D01*
X670394Y458077D01*
X670410Y458000D01*
X670421Y457921D01*
X670429Y457843D01*
X670433Y457764D01*
X670433Y457684D01*
X670429Y457605D01*
X670421Y457527D01*
X670410Y457448D01*
X670394Y457371D01*
X670376Y457294D01*
X670353Y457218D01*
X670327Y457144D01*
X670297Y457070D01*
X670263Y456998D01*
X670227Y456928D01*
X670187Y456860D01*
X670143Y456794D01*
X670097Y456730D01*
X670047Y456668D01*
X669995Y456609D01*
X669939Y456553D01*
X669882Y456499D01*
X669821Y456448D01*
X669758Y456400D01*
X669693Y456355D01*
X669626Y456313D01*
X669557Y456275D01*
X669486Y456239D01*
X669413Y456208D01*
X669339Y456180D01*
X669264Y456155D01*
X669188Y456135D01*
X669111Y456117D01*
X669033Y456104D01*
X668954Y456095D01*
X668875Y456089D01*
X668796Y456087D01*
X670433Y462828D02*
X665522Y462828D01*
X665522Y466511D01*
X665524Y466580D01*
X665530Y466648D01*
X665539Y466717D01*
X665553Y466784D01*
X665570Y466851D01*
X665591Y466917D01*
X665615Y466981D01*
X665644Y467044D01*
X665675Y467105D01*
X665710Y467164D01*
X665748Y467222D01*
X665790Y467277D01*
X665834Y467329D01*
X665882Y467379D01*
X665932Y467427D01*
X665984Y467471D01*
X666039Y467513D01*
X666097Y467551D01*
X666156Y467586D01*
X666217Y467617D01*
X666280Y467646D01*
X666344Y467670D01*
X666410Y467691D01*
X666477Y467708D01*
X666544Y467722D01*
X666613Y467731D01*
X666681Y467737D01*
X666750Y467739D01*
X670433Y467739D01*
X670433Y465283D02*
X665522Y465283D01*
X671251Y470962D02*
X662249Y474235D01*
X663067Y477431D02*
X670433Y477431D01*
X663067Y477431D02*
X663067Y479477D01*
X663069Y479566D01*
X663075Y479655D01*
X663085Y479744D01*
X663098Y479832D01*
X663115Y479920D01*
X663137Y480007D01*
X663162Y480092D01*
X663190Y480177D01*
X663223Y480260D01*
X663259Y480342D01*
X663298Y480422D01*
X663341Y480500D01*
X663387Y480576D01*
X663437Y480651D01*
X663490Y480723D01*
X663546Y480792D01*
X663605Y480859D01*
X663666Y480924D01*
X663731Y480985D01*
X663798Y481044D01*
X663867Y481100D01*
X663939Y481153D01*
X664014Y481203D01*
X664090Y481249D01*
X664168Y481292D01*
X664248Y481331D01*
X664330Y481367D01*
X664413Y481400D01*
X664498Y481428D01*
X664583Y481453D01*
X664670Y481475D01*
X664758Y481492D01*
X664846Y481505D01*
X664935Y481515D01*
X665024Y481521D01*
X665113Y481523D01*
X665202Y481521D01*
X665291Y481515D01*
X665380Y481505D01*
X665468Y481492D01*
X665556Y481475D01*
X665643Y481453D01*
X665728Y481428D01*
X665813Y481400D01*
X665896Y481367D01*
X665978Y481331D01*
X666058Y481292D01*
X666136Y481249D01*
X666212Y481203D01*
X666287Y481153D01*
X666359Y481100D01*
X666428Y481044D01*
X666495Y480985D01*
X666560Y480924D01*
X666621Y480859D01*
X666680Y480792D01*
X666736Y480723D01*
X666789Y480651D01*
X666839Y480576D01*
X666885Y480500D01*
X666928Y480422D01*
X666967Y480342D01*
X667003Y480260D01*
X667036Y480177D01*
X667064Y480092D01*
X667089Y480007D01*
X667111Y479920D01*
X667128Y479832D01*
X667141Y479744D01*
X667151Y479655D01*
X667157Y479566D01*
X667159Y479477D01*
X667159Y477431D01*
X667159Y479886D02*
X670433Y481523D01*
X672888Y484373D02*
X672888Y485191D01*
X665522Y487647D01*
X665522Y484373D02*
X670433Y486010D01*
X665522Y490225D02*
X665522Y493499D01*
X670433Y490225D01*
X670433Y493499D01*
X670433Y497549D02*
X670433Y499595D01*
X670433Y497549D02*
X670431Y497480D01*
X670425Y497412D01*
X670416Y497343D01*
X670402Y497276D01*
X670385Y497209D01*
X670364Y497143D01*
X670340Y497079D01*
X670311Y497016D01*
X670280Y496955D01*
X670245Y496896D01*
X670207Y496838D01*
X670165Y496783D01*
X670121Y496731D01*
X670073Y496681D01*
X670023Y496633D01*
X669971Y496589D01*
X669916Y496548D01*
X669858Y496509D01*
X669799Y496474D01*
X669738Y496443D01*
X669675Y496414D01*
X669611Y496390D01*
X669545Y496369D01*
X669478Y496352D01*
X669411Y496338D01*
X669343Y496329D01*
X669274Y496323D01*
X669205Y496321D01*
X667159Y496321D01*
X667080Y496323D01*
X667001Y496329D01*
X666922Y496338D01*
X666844Y496351D01*
X666767Y496369D01*
X666691Y496389D01*
X666616Y496414D01*
X666542Y496442D01*
X666469Y496473D01*
X666398Y496509D01*
X666329Y496547D01*
X666262Y496589D01*
X666197Y496634D01*
X666134Y496682D01*
X666073Y496733D01*
X666016Y496787D01*
X665960Y496843D01*
X665908Y496902D01*
X665858Y496964D01*
X665812Y497028D01*
X665768Y497094D01*
X665728Y497162D01*
X665692Y497232D01*
X665658Y497304D01*
X665628Y497378D01*
X665602Y497452D01*
X665579Y497528D01*
X665561Y497605D01*
X665545Y497682D01*
X665534Y497761D01*
X665526Y497839D01*
X665522Y497918D01*
X665522Y497998D01*
X665526Y498077D01*
X665534Y498155D01*
X665545Y498234D01*
X665561Y498311D01*
X665579Y498388D01*
X665602Y498464D01*
X665628Y498538D01*
X665658Y498612D01*
X665692Y498684D01*
X665728Y498754D01*
X665768Y498822D01*
X665812Y498888D01*
X665858Y498952D01*
X665908Y499014D01*
X665960Y499073D01*
X666016Y499129D01*
X666073Y499183D01*
X666134Y499234D01*
X666197Y499282D01*
X666262Y499327D01*
X666329Y499369D01*
X666398Y499407D01*
X666469Y499443D01*
X666542Y499474D01*
X666616Y499502D01*
X666691Y499527D01*
X666767Y499547D01*
X666844Y499565D01*
X666922Y499578D01*
X667001Y499587D01*
X667080Y499593D01*
X667159Y499595D01*
X667978Y499595D01*
X667978Y496321D01*
X670433Y503888D02*
X670433Y505935D01*
X670433Y503888D02*
X670431Y503819D01*
X670425Y503751D01*
X670416Y503682D01*
X670402Y503615D01*
X670385Y503548D01*
X670364Y503482D01*
X670340Y503418D01*
X670311Y503355D01*
X670280Y503294D01*
X670245Y503235D01*
X670207Y503177D01*
X670165Y503122D01*
X670121Y503070D01*
X670073Y503020D01*
X670023Y502972D01*
X669971Y502928D01*
X669916Y502887D01*
X669858Y502848D01*
X669799Y502813D01*
X669738Y502782D01*
X669675Y502753D01*
X669611Y502729D01*
X669545Y502708D01*
X669478Y502691D01*
X669411Y502677D01*
X669343Y502668D01*
X669274Y502662D01*
X669205Y502660D01*
X669205Y502661D02*
X667159Y502661D01*
X667080Y502663D01*
X667001Y502669D01*
X666922Y502678D01*
X666844Y502691D01*
X666767Y502709D01*
X666691Y502729D01*
X666616Y502754D01*
X666542Y502782D01*
X666469Y502813D01*
X666398Y502849D01*
X666329Y502887D01*
X666262Y502929D01*
X666197Y502974D01*
X666134Y503022D01*
X666073Y503073D01*
X666016Y503127D01*
X665960Y503183D01*
X665908Y503242D01*
X665858Y503304D01*
X665812Y503368D01*
X665768Y503434D01*
X665728Y503502D01*
X665692Y503572D01*
X665658Y503644D01*
X665628Y503718D01*
X665602Y503792D01*
X665579Y503868D01*
X665561Y503945D01*
X665545Y504022D01*
X665534Y504101D01*
X665526Y504179D01*
X665522Y504258D01*
X665522Y504338D01*
X665526Y504417D01*
X665534Y504495D01*
X665545Y504574D01*
X665561Y504651D01*
X665579Y504728D01*
X665602Y504804D01*
X665628Y504878D01*
X665658Y504952D01*
X665692Y505024D01*
X665728Y505094D01*
X665768Y505162D01*
X665812Y505228D01*
X665858Y505292D01*
X665908Y505354D01*
X665960Y505413D01*
X666016Y505469D01*
X666073Y505523D01*
X666134Y505574D01*
X666197Y505622D01*
X666262Y505667D01*
X666329Y505709D01*
X666398Y505747D01*
X666469Y505783D01*
X666542Y505814D01*
X666616Y505842D01*
X666691Y505867D01*
X666767Y505887D01*
X666844Y505905D01*
X666922Y505918D01*
X667001Y505927D01*
X667080Y505933D01*
X667159Y505935D01*
X667978Y505935D01*
X667978Y502661D01*
X664704Y509079D02*
X663067Y511125D01*
X670433Y511125D01*
X670433Y509079D02*
X670433Y513171D01*
X664704Y516394D02*
X663067Y518440D01*
X670433Y518440D01*
X670433Y516394D02*
X670433Y520486D01*
X667159Y525346D02*
X667159Y527802D01*
X667159Y525346D02*
X667157Y525268D01*
X667152Y525190D01*
X667142Y525113D01*
X667129Y525036D01*
X667113Y524960D01*
X667093Y524885D01*
X667069Y524811D01*
X667042Y524738D01*
X667011Y524666D01*
X666977Y524596D01*
X666940Y524528D01*
X666899Y524461D01*
X666855Y524396D01*
X666809Y524334D01*
X666759Y524274D01*
X666707Y524216D01*
X666652Y524161D01*
X666594Y524109D01*
X666534Y524059D01*
X666472Y524013D01*
X666407Y523969D01*
X666341Y523928D01*
X666272Y523891D01*
X666202Y523857D01*
X666130Y523826D01*
X666057Y523799D01*
X665983Y523775D01*
X665908Y523755D01*
X665832Y523739D01*
X665755Y523726D01*
X665678Y523716D01*
X665600Y523711D01*
X665522Y523709D01*
X665113Y523709D01*
X665113Y523710D02*
X665024Y523712D01*
X664935Y523718D01*
X664846Y523728D01*
X664758Y523741D01*
X664670Y523758D01*
X664583Y523780D01*
X664498Y523805D01*
X664413Y523833D01*
X664330Y523866D01*
X664248Y523902D01*
X664168Y523941D01*
X664090Y523984D01*
X664014Y524030D01*
X663939Y524080D01*
X663867Y524133D01*
X663798Y524189D01*
X663731Y524248D01*
X663666Y524309D01*
X663605Y524374D01*
X663546Y524441D01*
X663490Y524510D01*
X663437Y524582D01*
X663387Y524657D01*
X663341Y524733D01*
X663298Y524811D01*
X663259Y524891D01*
X663223Y524973D01*
X663190Y525056D01*
X663162Y525141D01*
X663137Y525226D01*
X663115Y525313D01*
X663098Y525401D01*
X663085Y525489D01*
X663075Y525578D01*
X663069Y525667D01*
X663067Y525756D01*
X663069Y525845D01*
X663075Y525934D01*
X663085Y526023D01*
X663098Y526111D01*
X663115Y526199D01*
X663137Y526286D01*
X663162Y526371D01*
X663190Y526456D01*
X663223Y526539D01*
X663259Y526621D01*
X663298Y526701D01*
X663341Y526779D01*
X663387Y526855D01*
X663437Y526930D01*
X663490Y527002D01*
X663546Y527071D01*
X663605Y527138D01*
X663666Y527203D01*
X663731Y527264D01*
X663798Y527323D01*
X663867Y527379D01*
X663939Y527432D01*
X664014Y527482D01*
X664090Y527528D01*
X664168Y527571D01*
X664248Y527610D01*
X664330Y527646D01*
X664413Y527679D01*
X664498Y527707D01*
X664583Y527732D01*
X664670Y527754D01*
X664758Y527771D01*
X664846Y527784D01*
X664935Y527794D01*
X665024Y527800D01*
X665113Y527802D01*
X667159Y527802D01*
X667271Y527800D01*
X667382Y527794D01*
X667494Y527785D01*
X667605Y527772D01*
X667715Y527754D01*
X667825Y527734D01*
X667934Y527709D01*
X668042Y527681D01*
X668149Y527649D01*
X668255Y527613D01*
X668360Y527574D01*
X668463Y527531D01*
X668565Y527485D01*
X668665Y527435D01*
X668764Y527382D01*
X668860Y527325D01*
X668955Y527266D01*
X669047Y527203D01*
X669137Y527137D01*
X669225Y527068D01*
X669311Y526996D01*
X669394Y526921D01*
X669474Y526843D01*
X669552Y526763D01*
X669627Y526680D01*
X669699Y526594D01*
X669768Y526506D01*
X669834Y526416D01*
X669897Y526324D01*
X669956Y526229D01*
X670013Y526133D01*
X670066Y526034D01*
X670116Y525934D01*
X670162Y525832D01*
X670205Y525729D01*
X670244Y525624D01*
X670280Y525518D01*
X670312Y525411D01*
X670340Y525303D01*
X670365Y525194D01*
X670385Y525084D01*
X670403Y524974D01*
X670416Y524863D01*
X670425Y524751D01*
X670431Y524640D01*
X670433Y524528D01*
X671251Y530702D02*
X662249Y533976D01*
X665522Y537042D02*
X669205Y537042D01*
X669274Y537044D01*
X669342Y537050D01*
X669411Y537059D01*
X669478Y537073D01*
X669545Y537090D01*
X669611Y537111D01*
X669675Y537135D01*
X669738Y537164D01*
X669799Y537195D01*
X669858Y537230D01*
X669916Y537268D01*
X669971Y537310D01*
X670023Y537354D01*
X670073Y537402D01*
X670121Y537452D01*
X670165Y537504D01*
X670207Y537559D01*
X670245Y537617D01*
X670280Y537676D01*
X670311Y537737D01*
X670340Y537800D01*
X670364Y537864D01*
X670385Y537930D01*
X670402Y537997D01*
X670416Y538064D01*
X670425Y538133D01*
X670431Y538201D01*
X670433Y538270D01*
X670433Y540316D01*
X665522Y540316D01*
X667568Y544240D02*
X668387Y546286D01*
X667568Y544240D02*
X667543Y544181D01*
X667514Y544124D01*
X667481Y544069D01*
X667445Y544016D01*
X667407Y543965D01*
X667365Y543917D01*
X667320Y543871D01*
X667273Y543828D01*
X667223Y543788D01*
X667171Y543751D01*
X667116Y543717D01*
X667060Y543686D01*
X667002Y543659D01*
X666942Y543636D01*
X666882Y543616D01*
X666820Y543600D01*
X666757Y543587D01*
X666693Y543579D01*
X666630Y543574D01*
X666566Y543573D01*
X666502Y543576D01*
X666438Y543583D01*
X666375Y543594D01*
X666313Y543608D01*
X666251Y543626D01*
X666191Y543648D01*
X666132Y543673D01*
X666075Y543702D01*
X666020Y543735D01*
X665967Y543770D01*
X665916Y543809D01*
X665867Y543851D01*
X665821Y543895D01*
X665778Y543943D01*
X665738Y543992D01*
X665701Y544045D01*
X665667Y544099D01*
X665636Y544155D01*
X665609Y544213D01*
X665585Y544272D01*
X665566Y544333D01*
X665549Y544395D01*
X665537Y544458D01*
X665528Y544521D01*
X665523Y544585D01*
X665522Y544649D01*
X665526Y544785D01*
X665534Y544920D01*
X665546Y545056D01*
X665562Y545190D01*
X665582Y545325D01*
X665605Y545458D01*
X665633Y545591D01*
X665664Y545723D01*
X665699Y545854D01*
X665738Y545984D01*
X665781Y546113D01*
X665828Y546240D01*
X665878Y546366D01*
X665932Y546491D01*
X668387Y546286D02*
X668412Y546345D01*
X668441Y546402D01*
X668474Y546457D01*
X668510Y546510D01*
X668548Y546561D01*
X668590Y546609D01*
X668635Y546655D01*
X668682Y546698D01*
X668732Y546738D01*
X668784Y546775D01*
X668839Y546809D01*
X668895Y546840D01*
X668953Y546867D01*
X669013Y546890D01*
X669073Y546910D01*
X669135Y546926D01*
X669198Y546939D01*
X669262Y546947D01*
X669325Y546952D01*
X669389Y546953D01*
X669453Y546950D01*
X669517Y546943D01*
X669580Y546932D01*
X669642Y546918D01*
X669704Y546900D01*
X669764Y546878D01*
X669823Y546853D01*
X669880Y546824D01*
X669935Y546791D01*
X669988Y546756D01*
X670039Y546717D01*
X670088Y546675D01*
X670134Y546631D01*
X670177Y546583D01*
X670217Y546534D01*
X670254Y546481D01*
X670288Y546427D01*
X670319Y546371D01*
X670346Y546313D01*
X670370Y546254D01*
X670389Y546193D01*
X670406Y546131D01*
X670418Y546068D01*
X670427Y546005D01*
X670432Y545941D01*
X670433Y545877D01*
X670429Y545713D01*
X670421Y545549D01*
X670409Y545385D01*
X670393Y545222D01*
X670373Y545059D01*
X670350Y544896D01*
X670322Y544735D01*
X670291Y544573D01*
X670256Y544413D01*
X670217Y544254D01*
X670174Y544095D01*
X670128Y543938D01*
X670078Y543781D01*
X670024Y543626D01*
X670433Y550250D02*
X663067Y550250D01*
X670433Y550250D02*
X670433Y552297D01*
X670431Y552366D01*
X670425Y552434D01*
X670416Y552503D01*
X670402Y552570D01*
X670385Y552637D01*
X670364Y552703D01*
X670340Y552767D01*
X670311Y552830D01*
X670280Y552891D01*
X670245Y552950D01*
X670207Y553008D01*
X670165Y553063D01*
X670121Y553115D01*
X670073Y553165D01*
X670023Y553213D01*
X669971Y553257D01*
X669916Y553299D01*
X669858Y553337D01*
X669799Y553372D01*
X669738Y553403D01*
X669675Y553432D01*
X669611Y553456D01*
X669545Y553477D01*
X669478Y553494D01*
X669411Y553508D01*
X669342Y553517D01*
X669274Y553523D01*
X669205Y553525D01*
X669205Y553524D02*
X666750Y553524D01*
X666750Y553525D02*
X666681Y553523D01*
X666613Y553517D01*
X666544Y553508D01*
X666477Y553494D01*
X666410Y553477D01*
X666344Y553456D01*
X666280Y553432D01*
X666217Y553403D01*
X666156Y553372D01*
X666097Y553337D01*
X666039Y553299D01*
X665984Y553257D01*
X665932Y553213D01*
X665882Y553165D01*
X665834Y553115D01*
X665790Y553063D01*
X665749Y553008D01*
X665710Y552950D01*
X665675Y552891D01*
X665644Y552830D01*
X665615Y552767D01*
X665591Y552703D01*
X665570Y552637D01*
X665553Y552570D01*
X665539Y552503D01*
X665530Y552435D01*
X665524Y552366D01*
X665522Y552297D01*
X665522Y550250D01*
X666341Y556628D02*
X666341Y559083D01*
X666343Y559161D01*
X666348Y559239D01*
X666358Y559316D01*
X666371Y559393D01*
X666387Y559469D01*
X666407Y559544D01*
X666431Y559618D01*
X666458Y559691D01*
X666489Y559763D01*
X666523Y559833D01*
X666560Y559902D01*
X666601Y559968D01*
X666645Y560033D01*
X666691Y560095D01*
X666741Y560155D01*
X666793Y560213D01*
X666848Y560268D01*
X666906Y560320D01*
X666966Y560370D01*
X667028Y560416D01*
X667093Y560460D01*
X667160Y560501D01*
X667228Y560538D01*
X667298Y560572D01*
X667370Y560603D01*
X667443Y560630D01*
X667517Y560654D01*
X667592Y560674D01*
X667668Y560690D01*
X667745Y560703D01*
X667822Y560713D01*
X667900Y560718D01*
X667978Y560720D01*
X668387Y560720D01*
X668476Y560718D01*
X668565Y560712D01*
X668654Y560702D01*
X668742Y560689D01*
X668830Y560672D01*
X668917Y560650D01*
X669002Y560625D01*
X669087Y560597D01*
X669170Y560564D01*
X669252Y560528D01*
X669332Y560489D01*
X669410Y560446D01*
X669486Y560400D01*
X669561Y560350D01*
X669633Y560297D01*
X669702Y560241D01*
X669769Y560182D01*
X669834Y560121D01*
X669895Y560056D01*
X669954Y559989D01*
X670010Y559920D01*
X670063Y559848D01*
X670113Y559773D01*
X670159Y559697D01*
X670202Y559619D01*
X670241Y559539D01*
X670277Y559457D01*
X670310Y559374D01*
X670338Y559289D01*
X670363Y559204D01*
X670385Y559117D01*
X670402Y559029D01*
X670415Y558941D01*
X670425Y558852D01*
X670431Y558763D01*
X670433Y558674D01*
X670431Y558585D01*
X670425Y558496D01*
X670415Y558407D01*
X670402Y558319D01*
X670385Y558231D01*
X670363Y558144D01*
X670338Y558059D01*
X670310Y557974D01*
X670277Y557891D01*
X670241Y557809D01*
X670202Y557729D01*
X670159Y557651D01*
X670113Y557575D01*
X670063Y557500D01*
X670010Y557428D01*
X669954Y557359D01*
X669895Y557292D01*
X669834Y557227D01*
X669769Y557166D01*
X669702Y557107D01*
X669633Y557051D01*
X669561Y556998D01*
X669486Y556948D01*
X669410Y556902D01*
X669332Y556859D01*
X669252Y556820D01*
X669170Y556784D01*
X669087Y556751D01*
X669002Y556723D01*
X668917Y556698D01*
X668830Y556676D01*
X668742Y556659D01*
X668654Y556646D01*
X668565Y556636D01*
X668476Y556630D01*
X668387Y556628D01*
X666341Y556628D01*
X666227Y556630D01*
X666113Y556636D01*
X665999Y556646D01*
X665885Y556660D01*
X665772Y556678D01*
X665660Y556700D01*
X665549Y556725D01*
X665439Y556755D01*
X665329Y556788D01*
X665221Y556825D01*
X665115Y556866D01*
X665009Y556911D01*
X664906Y556959D01*
X664804Y557011D01*
X664704Y557067D01*
X664606Y557125D01*
X664510Y557188D01*
X664417Y557253D01*
X664325Y557322D01*
X664237Y557394D01*
X664150Y557469D01*
X664067Y557547D01*
X663986Y557628D01*
X663908Y557711D01*
X663833Y557797D01*
X663761Y557886D01*
X663692Y557978D01*
X663627Y558071D01*
X663565Y558167D01*
X663506Y558265D01*
X663450Y558365D01*
X663398Y558467D01*
X663350Y558570D01*
X663305Y558675D01*
X663264Y558782D01*
X663227Y558890D01*
X663194Y559000D01*
X663164Y559110D01*
X663139Y559221D01*
X663117Y559333D01*
X663099Y559446D01*
X663085Y559560D01*
X663075Y559674D01*
X663069Y559788D01*
X663067Y559902D01*
X663067Y565580D02*
X668796Y563943D01*
X668796Y568035D01*
X667159Y566808D02*
X670433Y566808D01*
D93*
X593992Y436016D03*
D94*
X634619Y436016D03*
D95*
X593903Y436194D03*
X634619Y436194D03*
D96*
X593992Y436372D03*
X634530Y436372D03*
D97*
X593992Y436550D03*
X634530Y436550D03*
D98*
X594081Y436728D03*
X634441Y436728D03*
D99*
X594081Y436905D03*
X634441Y436905D03*
D100*
X594170Y437083D03*
D101*
X634441Y437083D03*
D102*
X594170Y437261D03*
X634352Y437261D03*
D103*
X594170Y437439D03*
D104*
X634352Y437439D03*
D105*
X594258Y437617D03*
X634263Y437617D03*
D106*
X594258Y437794D03*
X634263Y437794D03*
D107*
X594347Y437972D03*
X634175Y437972D03*
D108*
X594347Y438150D03*
D109*
X634175Y438150D03*
D110*
X594436Y438328D03*
X634086Y438328D03*
D111*
X594436Y438506D03*
X634086Y438506D03*
D112*
X594525Y438683D03*
X633997Y438683D03*
D113*
X594525Y438861D03*
X633997Y438861D03*
D114*
X594614Y439039D03*
D93*
X604304Y439039D03*
X624218Y439039D03*
D114*
X633908Y439039D03*
D115*
X594614Y439217D03*
D95*
X604215Y439217D03*
X624307Y439217D03*
D116*
X633908Y439217D03*
D117*
X594703Y439395D03*
D96*
X604126Y439395D03*
D118*
X624484Y439395D03*
D119*
X633908Y439395D03*
D120*
X594703Y439572D03*
D121*
X603949Y439572D03*
X624573Y439572D03*
D120*
X633819Y439572D03*
D122*
X594792Y439750D03*
D123*
X603771Y439750D03*
X624751Y439750D03*
D124*
X633819Y439750D03*
D125*
X594792Y439928D03*
D99*
X603682Y439928D03*
X624840Y439928D03*
D126*
X633730Y439928D03*
D127*
X594881Y440106D03*
D128*
X603504Y440106D03*
D101*
X625018Y440106D03*
D129*
X633730Y440106D03*
D130*
X594881Y440284D03*
D131*
X603504Y440284D03*
X625196Y440284D03*
D130*
X633641Y440284D03*
D132*
X594881Y440461D03*
D133*
X603326Y440461D03*
D134*
X625196Y440461D03*
D132*
X633641Y440461D03*
D135*
X597103Y440639D03*
D136*
X631419Y440639D03*
D137*
X597103Y440817D03*
X631419Y440817D03*
D138*
X597014Y440995D03*
X631508Y440995D03*
D139*
X597014Y441173D03*
D140*
X631508Y441173D03*
D141*
X596925Y441350D03*
X631596Y441350D03*
D142*
X596837Y441528D03*
X631685Y441528D03*
D143*
X596837Y441706D03*
X631685Y441706D03*
D144*
X596748Y441884D03*
D145*
X631774Y441884D03*
D146*
X596748Y442062D03*
X631774Y442062D03*
X596748Y442239D03*
X631774Y442239D03*
D147*
X596837Y442417D03*
D148*
X631774Y442417D03*
D149*
X596837Y442595D03*
X631685Y442595D03*
D147*
X596837Y442773D03*
X631685Y442773D03*
D149*
X597014Y442951D03*
X631508Y442951D03*
D146*
X597103Y443128D03*
X631419Y443128D03*
D147*
X597192Y443306D03*
D148*
X631419Y443306D03*
D146*
X597281Y443484D03*
X631241Y443484D03*
D148*
X597459Y443662D03*
D150*
X631152Y443662D03*
D151*
X597548Y443840D03*
D146*
X631063Y443840D03*
D151*
X597548Y444017D03*
X630974Y444017D03*
D152*
X597726Y444195D03*
D150*
X630796Y444195D03*
D153*
X597814Y444373D03*
D151*
X630796Y444373D03*
D150*
X597903Y444551D03*
D144*
X630707Y444551D03*
D154*
X597992Y444729D03*
D153*
X630530Y444729D03*
D143*
X598081Y444906D03*
X630441Y444906D03*
D144*
X598170Y445084D03*
D145*
X630352Y445084D03*
D143*
X598259Y445262D03*
X630263Y445262D03*
D155*
X598437Y445440D03*
D156*
X630174Y445440D03*
D143*
X598437Y445618D03*
X630085Y445618D03*
D157*
X598526Y445795D03*
X629996Y445795D03*
D156*
X598703Y445973D03*
X629818Y445973D03*
D158*
X598792Y446151D03*
D157*
X629818Y446151D03*
D156*
X598881Y446329D03*
X629641Y446329D03*
D158*
X598970Y446507D03*
X629552Y446507D03*
X599148Y446684D03*
X629552Y446684D03*
D142*
X599148Y446862D03*
X629374Y446862D03*
D141*
X599237Y447040D03*
D159*
X629285Y447040D03*
D160*
X599415Y447218D03*
D142*
X629196Y447218D03*
D141*
X599415Y447396D03*
X629107Y447396D03*
X599592Y447573D03*
D139*
X629018Y447573D03*
D161*
X599681Y447751D03*
D160*
X628929Y447751D03*
D139*
X599681Y447929D03*
D140*
X628841Y447929D03*
D162*
X599859Y448107D03*
D161*
X628663Y448107D03*
D163*
X599948Y448285D03*
X628574Y448285D03*
D140*
X600037Y448462D03*
X628485Y448462D03*
D164*
X600126Y448640D03*
X628396Y448640D03*
D163*
X600304Y448818D03*
D165*
X628307Y448818D03*
D164*
X600304Y448996D03*
X628218Y448996D03*
D165*
X600393Y449174D03*
X628129Y449174D03*
X600570Y449351D03*
D137*
X628040Y449351D03*
D138*
X600570Y449529D03*
X627952Y449529D03*
D163*
X600659Y449707D03*
D165*
X627952Y449707D03*
D164*
X600659Y449885D03*
X627863Y449885D03*
D139*
X600570Y450063D03*
D140*
X627952Y450063D03*
D141*
X600659Y450240D03*
X627863Y450240D03*
D160*
X600659Y450418D03*
D142*
X627952Y450418D03*
D157*
X600659Y450596D03*
D158*
X627952Y450596D03*
D156*
X600659Y450774D03*
X627863Y450774D03*
D143*
X600570Y450952D03*
X627952Y450952D03*
D154*
X600659Y451129D03*
D153*
X627863Y451129D03*
D145*
X600659Y451307D03*
D152*
X627952Y451307D03*
D146*
X600659Y451485D03*
X627863Y451485D03*
D148*
X600659Y451663D03*
X627863Y451663D03*
D149*
X600570Y451841D03*
X627952Y451841D03*
D166*
X600659Y452018D03*
X627863Y452018D03*
D167*
X600659Y452196D03*
D168*
X627952Y452196D03*
D169*
X600659Y452374D03*
X627863Y452374D03*
D170*
X600659Y452552D03*
X627863Y452552D03*
D171*
X600659Y452730D03*
D172*
X627952Y452730D03*
D171*
X600659Y452907D03*
X627863Y452907D03*
D173*
X600659Y453085D03*
D174*
X627952Y453085D03*
D175*
X600659Y453263D03*
D176*
X627863Y453263D03*
D177*
X600659Y453441D03*
D178*
X627863Y453441D03*
D179*
X600570Y453619D03*
D180*
X627952Y453619D03*
D179*
X600570Y453796D03*
D180*
X627952Y453796D03*
D178*
X600481Y453974D03*
D181*
X628129Y453974D03*
D176*
X600304Y454152D03*
D175*
X628218Y454152D03*
D173*
X600126Y454330D03*
X628396Y454330D03*
D171*
X599948Y454508D03*
X628574Y454508D03*
D172*
X599859Y454685D03*
D169*
X628752Y454685D03*
D182*
X599681Y454863D03*
D170*
X628929Y454863D03*
D183*
X599504Y455041D03*
D184*
X629018Y455041D03*
D167*
X599415Y455219D03*
D147*
X629196Y455219D03*
D149*
X599148Y455397D03*
X629374Y455397D03*
D146*
X599059Y455574D03*
X629463Y455574D03*
D150*
X598970Y455752D03*
D148*
X629641Y455752D03*
D151*
X598792Y455930D03*
D185*
X629730Y455930D03*
D144*
X598703Y456108D03*
D150*
X629907Y456108D03*
D153*
X598526Y456286D03*
D154*
X629996Y456286D03*
X598348Y456463D03*
D153*
X630174Y456463D03*
D148*
X597992Y456641D03*
X630530Y456641D03*
D169*
X597459Y456819D03*
D172*
X631152Y456819D03*
D186*
X596837Y456997D03*
D181*
X631685Y456997D03*
D187*
X596392Y457175D03*
D188*
X632219Y457175D03*
D189*
X595859Y457352D03*
D190*
X632663Y457352D03*
D191*
X595236Y457530D03*
D192*
X633286Y457530D03*
D193*
X594703Y457708D03*
D194*
X633908Y457708D03*
D195*
X594170Y457886D03*
D196*
X634352Y457886D03*
D197*
X593636Y458064D03*
X634886Y458064D03*
D198*
X593547Y458241D03*
D199*
X635064Y458241D03*
D200*
X593369Y458419D03*
X635152Y458419D03*
D201*
X593369Y458597D03*
X635152Y458597D03*
D202*
X593281Y458775D03*
X635241Y458775D03*
D197*
X593281Y458953D03*
X635241Y458953D03*
D203*
X593192Y459130D03*
X635330Y459130D03*
D204*
X593192Y459308D03*
X635330Y459308D03*
D203*
X593192Y459486D03*
X635330Y459486D03*
D205*
X593103Y459664D03*
X635419Y459664D03*
D206*
X593103Y459842D03*
X635419Y459842D03*
X593103Y460019D03*
X635419Y460019D03*
D207*
X593014Y460197D03*
D208*
X635508Y460197D03*
D209*
X593014Y460375D03*
D210*
X635508Y460375D03*
D207*
X593014Y460553D03*
D208*
X635508Y460553D03*
D209*
X593014Y460731D03*
D210*
X635508Y460731D03*
D209*
X593014Y460908D03*
D211*
X635597Y460908D03*
D195*
X592925Y461086D03*
X635597Y461086D03*
D211*
X592925Y461264D03*
X635597Y461264D03*
D195*
X592925Y461442D03*
X635597Y461442D03*
D211*
X592925Y461620D03*
X635597Y461620D03*
X592925Y461797D03*
X635597Y461797D03*
D195*
X592925Y461975D03*
X635597Y461975D03*
D211*
X592925Y462153D03*
X635597Y462153D03*
D195*
X592925Y462331D03*
D212*
X635686Y462331D03*
D211*
X592925Y462509D03*
D213*
X635686Y462509D03*
D211*
X592925Y462686D03*
D213*
X635686Y462686D03*
D195*
X592925Y462864D03*
D212*
X635686Y462864D03*
D211*
X592925Y463042D03*
D213*
X635686Y463042D03*
D195*
X592925Y463220D03*
D212*
X635686Y463220D03*
D211*
X592925Y463398D03*
X635597Y463398D03*
X592925Y463575D03*
X635597Y463575D03*
D195*
X592925Y463753D03*
X635597Y463753D03*
D211*
X592925Y463931D03*
X635597Y463931D03*
D195*
X592925Y464109D03*
X635597Y464109D03*
D211*
X592925Y464287D03*
X635597Y464287D03*
X592925Y464464D03*
X635597Y464464D03*
D207*
X593014Y464642D03*
D208*
X635508Y464642D03*
D209*
X593014Y464820D03*
D210*
X635508Y464820D03*
D207*
X593014Y464998D03*
D208*
X635508Y464998D03*
D209*
X593014Y465176D03*
D210*
X635508Y465176D03*
D206*
X593103Y465353D03*
X635419Y465353D03*
D205*
X593103Y465531D03*
X635419Y465531D03*
D206*
X593103Y465709D03*
X635419Y465709D03*
D204*
X593192Y465887D03*
X635330Y465887D03*
D203*
X593192Y466065D03*
X635330Y466065D03*
X593192Y466242D03*
X635330Y466242D03*
D202*
X593281Y466420D03*
X635241Y466420D03*
D197*
X593281Y466598D03*
X635241Y466598D03*
D200*
X593369Y466776D03*
X635152Y466776D03*
D201*
X593369Y466954D03*
X635152Y466954D03*
D214*
X593458Y467131D03*
D199*
X635064Y467131D03*
D215*
X593547Y467309D03*
D200*
X634975Y467309D03*
D206*
X593992Y467487D03*
X634530Y467487D03*
D216*
X594525Y467665D03*
D217*
X634086Y467665D03*
D218*
X594970Y467843D03*
X633552Y467843D03*
D219*
X595592Y468020D03*
X632930Y468020D03*
D220*
X596125Y468198D03*
X632397Y468198D03*
D221*
X596659Y468376D03*
D222*
X631952Y468376D03*
D174*
X597192Y468554D03*
X631330Y468554D03*
D183*
X597726Y468732D03*
D184*
X630796Y468732D03*
D154*
X598348Y468909D03*
D153*
X630174Y468909D03*
D155*
X598615Y469087D03*
X629907Y469087D03*
D143*
X598792Y469265D03*
D153*
X629818Y469265D03*
D145*
X598881Y469443D03*
D144*
X629641Y469443D03*
D153*
X599059Y469621D03*
D151*
X629552Y469621D03*
X599148Y469798D03*
X629374Y469798D03*
D148*
X599237Y469976D03*
X629285Y469976D03*
D149*
X599504Y470154D03*
D146*
X629107Y470154D03*
D167*
X599592Y470332D03*
X628929Y470332D03*
D166*
X599770Y470510D03*
X628752Y470510D03*
D223*
X599948Y470687D03*
D169*
X628574Y470687D03*
D224*
X600215Y470865D03*
D173*
X628396Y470865D03*
D225*
X600393Y471043D03*
X628129Y471043D03*
D181*
X600570Y471221D03*
D186*
X627952Y471221D03*
D226*
X600837Y471399D03*
X627685Y471399D03*
D188*
X601104Y471576D03*
D227*
X627418Y471576D03*
D228*
X601548Y471754D03*
X626974Y471754D03*
D219*
X601993Y471932D03*
X626529Y471932D03*
D229*
X614350Y472110D03*
D230*
X614261Y472288D03*
X614261Y472465D03*
D231*
X614261Y472643D03*
D232*
X614261Y472821D03*
D233*
X614350Y472999D03*
D234*
X614261Y473177D03*
D235*
X614350Y473354D03*
D236*
X614261Y473532D03*
D237*
X614350Y473710D03*
D238*
X614261Y473888D03*
D239*
X614261Y474066D03*
D240*
X614261Y474243D03*
D241*
X614261Y474421D03*
D242*
X614350Y474599D03*
D243*
X614261Y474777D03*
D244*
X614261Y474955D03*
D245*
X614261Y475132D03*
D246*
X614261Y475310D03*
D245*
X614261Y475488D03*
D246*
X614261Y475666D03*
D245*
X614261Y475844D03*
D244*
X614261Y476021D03*
D241*
X614261Y476199D03*
D240*
X614261Y476377D03*
D238*
X614261Y476555D03*
D247*
X614261Y476733D03*
X614261Y476910D03*
D248*
X614261Y477088D03*
D232*
X614261Y477266D03*
D249*
X614350Y477444D03*
D230*
X614261Y477622D03*
D250*
X614261Y477799D03*
D251*
X614350Y477977D03*
D252*
X614261Y478155D03*
D253*
X614261Y478333D03*
D254*
X614350Y478511D03*
D255*
X614261Y478688D03*
D256*
X614261Y478866D03*
D257*
X614350Y479044D03*
D258*
X614261Y479222D03*
D259*
X614261Y479400D03*
D260*
X614261Y479577D03*
D261*
X614350Y479755D03*
D262*
X614261Y479933D03*
D263*
X614261Y480111D03*
D264*
X614350Y480289D03*
D265*
X614261Y480466D03*
D266*
X614261Y480644D03*
D267*
X614261Y480822D03*
D268*
X614261Y481000D03*
D269*
X614261Y481178D03*
D270*
X614350Y481355D03*
D271*
X614261Y481533D03*
D272*
X614261Y481711D03*
D273*
X614350Y481889D03*
D274*
X614261Y482067D03*
D275*
X614261Y482244D03*
D276*
X614261Y482422D03*
D277*
X614261Y482600D03*
D278*
X614261Y482778D03*
D279*
X614261Y482956D03*
X614261Y483133D03*
D278*
X614261Y483311D03*
D277*
X614261Y483489D03*
D280*
X614261Y483667D03*
D274*
X614261Y483845D03*
D272*
X614261Y484022D03*
D271*
X614261Y484200D03*
D269*
X614261Y484378D03*
D281*
X595059Y484556D03*
D205*
X614261Y484556D03*
D281*
X633463Y484556D03*
D282*
X594970Y484734D03*
D283*
X614350Y484734D03*
D282*
X633552Y484734D03*
D284*
X594970Y484911D03*
D285*
X614261Y484911D03*
D284*
X633552Y484911D03*
D286*
X594970Y485089D03*
D287*
X614261Y485089D03*
D288*
X633641Y485089D03*
D289*
X594881Y485267D03*
D290*
X614261Y485267D03*
D289*
X633641Y485267D03*
D291*
X594881Y485445D03*
D292*
X614261Y485445D03*
D291*
X633641Y485445D03*
D293*
X594792Y485623D03*
D172*
X614261Y485623D03*
D293*
X633730Y485623D03*
D294*
X594792Y485800D03*
D149*
X614261Y485800D03*
D294*
X633730Y485800D03*
D295*
X594703Y485978D03*
D142*
X614261Y485978D03*
D295*
X633819Y485978D03*
D296*
X594703Y486156D03*
D165*
X614261Y486156D03*
D296*
X633819Y486156D03*
D297*
X594614Y486334D03*
D298*
X614350Y486334D03*
D297*
X633908Y486334D03*
D299*
X594614Y486512D03*
D300*
X614261Y486512D03*
D299*
X633908Y486512D03*
D112*
X594525Y486689D03*
D301*
X614350Y486689D03*
D112*
X633997Y486689D03*
D302*
X594525Y486867D03*
D303*
X614261Y486867D03*
D302*
X633997Y486867D03*
D304*
X594525Y487045D03*
D305*
X614261Y487045D03*
D306*
X634086Y487045D03*
D307*
X594436Y487223D03*
D308*
X614350Y487223D03*
D307*
X634086Y487223D03*
D309*
X594436Y487401D03*
D310*
X614261Y487401D03*
D311*
X634175Y487401D03*
D312*
X594347Y487578D03*
D310*
X614261Y487578D03*
D312*
X634175Y487578D03*
D313*
X594347Y487756D03*
D281*
X614261Y487756D03*
D314*
X634175Y487756D03*
D315*
X594258Y487934D03*
D316*
X614350Y487934D03*
D315*
X634263Y487934D03*
D317*
X594258Y488112D03*
D318*
X614261Y488112D03*
D317*
X634263Y488112D03*
D319*
X594170Y488290D03*
D320*
X614261Y488290D03*
D319*
X634352Y488290D03*
D321*
X594170Y488467D03*
D320*
X614261Y488467D03*
D322*
X634352Y488467D03*
D323*
X594081Y488645D03*
D318*
X614261Y488645D03*
D323*
X634441Y488645D03*
D324*
X594081Y488823D03*
D282*
X614350Y488823D03*
D325*
X634441Y488823D03*
D326*
X594081Y489001D03*
D327*
X614261Y489001D03*
D328*
X634530Y489001D03*
D329*
X593992Y489179D03*
D330*
X614261Y489179D03*
D331*
X634530Y489179D03*
D332*
X593992Y489356D03*
D330*
X614261Y489356D03*
D333*
X634619Y489356D03*
D327*
X614261Y489534D03*
D330*
X614261Y489712D03*
D334*
X614350Y489890D03*
D132*
X614261Y490068D03*
X614261Y490245D03*
D335*
X614261Y490423D03*
D132*
X614261Y490601D03*
D286*
X614350Y490779D03*
D130*
X614261Y490957D03*
X614261Y491134D03*
D288*
X614261Y491312D03*
D130*
X614261Y491490D03*
D336*
X614350Y491668D03*
D337*
X614350Y491846D03*
D289*
X614261Y492023D03*
D127*
X614261Y492201D03*
D289*
X614261Y492379D03*
D127*
X614261Y492557D03*
D338*
X614350Y492735D03*
D339*
X614261Y492912D03*
D291*
X614261Y493090D03*
D339*
X614261Y493268D03*
D291*
X614261Y493446D03*
D125*
X614350Y493624D03*
D340*
X614261Y493801D03*
D341*
X614261Y493979D03*
D340*
X614261Y494157D03*
D341*
X614261Y494335D03*
D293*
X614350Y494513D03*
X614350Y494690D03*
D124*
X614261Y494868D03*
D342*
X614261Y495046D03*
D124*
X614261Y495224D03*
D342*
X614261Y495402D03*
D294*
X614350Y495579D03*
D343*
X614261Y495757D03*
D120*
X614261Y495935D03*
D295*
X614261Y496113D03*
D12*
X91327Y571909D02*
X89281Y571909D01*
X91327Y571909D02*
X91416Y571907D01*
X91505Y571901D01*
X91594Y571891D01*
X91682Y571878D01*
X91770Y571861D01*
X91857Y571839D01*
X91942Y571814D01*
X92027Y571786D01*
X92110Y571753D01*
X92192Y571717D01*
X92272Y571678D01*
X92350Y571635D01*
X92426Y571589D01*
X92501Y571539D01*
X92573Y571486D01*
X92642Y571430D01*
X92709Y571371D01*
X92774Y571310D01*
X92835Y571245D01*
X92894Y571178D01*
X92950Y571109D01*
X93003Y571037D01*
X93053Y570962D01*
X93099Y570886D01*
X93142Y570808D01*
X93181Y570728D01*
X93217Y570646D01*
X93250Y570563D01*
X93278Y570478D01*
X93303Y570393D01*
X93325Y570306D01*
X93342Y570218D01*
X93355Y570130D01*
X93365Y570041D01*
X93371Y569952D01*
X93373Y569863D01*
X93371Y569774D01*
X93365Y569685D01*
X93355Y569596D01*
X93342Y569508D01*
X93325Y569420D01*
X93303Y569333D01*
X93278Y569248D01*
X93250Y569163D01*
X93217Y569080D01*
X93181Y568998D01*
X93142Y568918D01*
X93099Y568840D01*
X93053Y568764D01*
X93003Y568689D01*
X92950Y568617D01*
X92894Y568548D01*
X92835Y568481D01*
X92774Y568416D01*
X92709Y568355D01*
X92642Y568296D01*
X92573Y568240D01*
X92501Y568187D01*
X92426Y568137D01*
X92350Y568091D01*
X92272Y568048D01*
X92192Y568009D01*
X92110Y567973D01*
X92027Y567940D01*
X91942Y567912D01*
X91857Y567887D01*
X91770Y567865D01*
X91682Y567848D01*
X91594Y567835D01*
X91505Y567825D01*
X91416Y567819D01*
X91327Y567817D01*
X89281Y567817D01*
X89281Y575183D01*
X91327Y575183D01*
X91406Y575181D01*
X91485Y575175D01*
X91564Y575166D01*
X91642Y575153D01*
X91719Y575135D01*
X91795Y575115D01*
X91870Y575090D01*
X91944Y575062D01*
X92017Y575031D01*
X92088Y574995D01*
X92157Y574957D01*
X92224Y574915D01*
X92289Y574870D01*
X92352Y574822D01*
X92413Y574771D01*
X92470Y574717D01*
X92526Y574661D01*
X92578Y574602D01*
X92628Y574540D01*
X92674Y574476D01*
X92718Y574410D01*
X92758Y574342D01*
X92794Y574272D01*
X92828Y574200D01*
X92858Y574126D01*
X92884Y574052D01*
X92907Y573976D01*
X92925Y573899D01*
X92941Y573822D01*
X92952Y573743D01*
X92960Y573665D01*
X92964Y573586D01*
X92964Y573506D01*
X92960Y573427D01*
X92952Y573349D01*
X92941Y573270D01*
X92925Y573193D01*
X92907Y573116D01*
X92884Y573040D01*
X92858Y572966D01*
X92828Y572892D01*
X92794Y572820D01*
X92758Y572750D01*
X92718Y572682D01*
X92674Y572616D01*
X92628Y572552D01*
X92578Y572490D01*
X92526Y572431D01*
X92470Y572375D01*
X92413Y572321D01*
X92352Y572270D01*
X92289Y572222D01*
X92224Y572177D01*
X92157Y572135D01*
X92088Y572097D01*
X92017Y572061D01*
X91944Y572030D01*
X91870Y572002D01*
X91795Y571977D01*
X91719Y571957D01*
X91642Y571939D01*
X91564Y571926D01*
X91485Y571917D01*
X91406Y571911D01*
X91327Y571909D01*
X95825Y575183D02*
X98281Y571705D01*
X100736Y575183D01*
X98281Y571705D02*
X98281Y567817D01*
X107746Y567817D02*
X107746Y575183D01*
X109792Y575183D01*
X109881Y575181D01*
X109970Y575175D01*
X110059Y575165D01*
X110147Y575152D01*
X110235Y575135D01*
X110322Y575113D01*
X110407Y575088D01*
X110492Y575060D01*
X110575Y575027D01*
X110657Y574991D01*
X110737Y574952D01*
X110815Y574909D01*
X110891Y574863D01*
X110966Y574813D01*
X111038Y574760D01*
X111107Y574704D01*
X111174Y574645D01*
X111239Y574584D01*
X111300Y574519D01*
X111359Y574452D01*
X111415Y574383D01*
X111468Y574311D01*
X111518Y574236D01*
X111564Y574160D01*
X111607Y574082D01*
X111646Y574002D01*
X111682Y573920D01*
X111715Y573837D01*
X111743Y573752D01*
X111768Y573667D01*
X111790Y573580D01*
X111807Y573492D01*
X111820Y573404D01*
X111830Y573315D01*
X111836Y573226D01*
X111838Y573137D01*
X111836Y573048D01*
X111830Y572959D01*
X111820Y572870D01*
X111807Y572782D01*
X111790Y572694D01*
X111768Y572607D01*
X111743Y572522D01*
X111715Y572437D01*
X111682Y572354D01*
X111646Y572272D01*
X111607Y572192D01*
X111564Y572114D01*
X111518Y572038D01*
X111468Y571963D01*
X111415Y571891D01*
X111359Y571822D01*
X111300Y571755D01*
X111239Y571690D01*
X111174Y571629D01*
X111107Y571570D01*
X111038Y571514D01*
X110966Y571461D01*
X110891Y571411D01*
X110815Y571365D01*
X110737Y571322D01*
X110657Y571283D01*
X110575Y571247D01*
X110492Y571214D01*
X110407Y571186D01*
X110322Y571161D01*
X110235Y571139D01*
X110147Y571122D01*
X110059Y571109D01*
X109970Y571099D01*
X109881Y571093D01*
X109792Y571091D01*
X107746Y571091D01*
X110202Y571091D02*
X111839Y567817D01*
X117056Y571705D02*
X114601Y575183D01*
X117056Y571705D02*
X119512Y575183D01*
X117056Y571705D02*
X117056Y567817D01*
X122082Y575183D02*
X126174Y575183D01*
X122082Y567817D01*
X126174Y567817D01*
X129413Y567817D02*
X132686Y567817D01*
X129413Y567817D02*
X129413Y575183D01*
X132686Y575183D01*
X131868Y571909D02*
X129413Y571909D01*
X135752Y567817D02*
X139026Y567817D01*
X135752Y567817D02*
X135752Y575183D01*
X139026Y575183D01*
X138208Y571909D02*
X135752Y571909D01*
X141833Y573546D02*
X143879Y575183D01*
X143879Y567817D01*
X141833Y567817D02*
X145925Y567817D01*
X149148Y573546D02*
X151194Y575183D01*
X151194Y567817D01*
X149148Y567817D02*
X153240Y567817D01*
X158100Y571091D02*
X160555Y571091D01*
X158100Y571091D02*
X158022Y571093D01*
X157944Y571098D01*
X157867Y571108D01*
X157790Y571121D01*
X157714Y571137D01*
X157639Y571157D01*
X157565Y571181D01*
X157492Y571208D01*
X157420Y571239D01*
X157350Y571273D01*
X157281Y571310D01*
X157215Y571351D01*
X157150Y571395D01*
X157088Y571441D01*
X157028Y571491D01*
X156970Y571543D01*
X156915Y571598D01*
X156863Y571656D01*
X156813Y571716D01*
X156767Y571778D01*
X156723Y571843D01*
X156682Y571910D01*
X156645Y571978D01*
X156611Y572048D01*
X156580Y572120D01*
X156553Y572193D01*
X156529Y572267D01*
X156509Y572342D01*
X156493Y572418D01*
X156480Y572495D01*
X156470Y572572D01*
X156465Y572650D01*
X156463Y572728D01*
X156463Y573137D01*
X156465Y573226D01*
X156471Y573315D01*
X156481Y573404D01*
X156494Y573492D01*
X156511Y573580D01*
X156533Y573667D01*
X156558Y573752D01*
X156586Y573837D01*
X156619Y573920D01*
X156655Y574002D01*
X156694Y574082D01*
X156737Y574160D01*
X156783Y574236D01*
X156833Y574311D01*
X156886Y574383D01*
X156942Y574452D01*
X157001Y574519D01*
X157062Y574584D01*
X157127Y574645D01*
X157194Y574704D01*
X157263Y574760D01*
X157335Y574813D01*
X157410Y574863D01*
X157486Y574909D01*
X157564Y574952D01*
X157644Y574991D01*
X157726Y575027D01*
X157809Y575060D01*
X157894Y575088D01*
X157979Y575113D01*
X158066Y575135D01*
X158154Y575152D01*
X158242Y575165D01*
X158331Y575175D01*
X158420Y575181D01*
X158509Y575183D01*
X158598Y575181D01*
X158687Y575175D01*
X158776Y575165D01*
X158864Y575152D01*
X158952Y575135D01*
X159039Y575113D01*
X159124Y575088D01*
X159209Y575060D01*
X159292Y575027D01*
X159374Y574991D01*
X159454Y574952D01*
X159532Y574909D01*
X159608Y574863D01*
X159683Y574813D01*
X159755Y574760D01*
X159824Y574704D01*
X159891Y574645D01*
X159956Y574584D01*
X160017Y574519D01*
X160076Y574452D01*
X160132Y574383D01*
X160185Y574311D01*
X160235Y574236D01*
X160281Y574160D01*
X160324Y574082D01*
X160363Y574002D01*
X160399Y573920D01*
X160432Y573837D01*
X160460Y573752D01*
X160485Y573667D01*
X160507Y573580D01*
X160524Y573492D01*
X160537Y573404D01*
X160547Y573315D01*
X160553Y573226D01*
X160555Y573137D01*
X160555Y571091D01*
X160556Y571091D02*
X160554Y570979D01*
X160548Y570868D01*
X160539Y570756D01*
X160526Y570645D01*
X160508Y570535D01*
X160488Y570425D01*
X160463Y570316D01*
X160435Y570208D01*
X160403Y570101D01*
X160367Y569995D01*
X160328Y569890D01*
X160285Y569787D01*
X160239Y569685D01*
X160189Y569585D01*
X160136Y569486D01*
X160079Y569390D01*
X160020Y569295D01*
X159957Y569203D01*
X159891Y569113D01*
X159822Y569025D01*
X159750Y568939D01*
X159675Y568856D01*
X159597Y568776D01*
X159517Y568698D01*
X159434Y568623D01*
X159348Y568551D01*
X159260Y568482D01*
X159170Y568416D01*
X159078Y568353D01*
X158983Y568294D01*
X158887Y568237D01*
X158788Y568184D01*
X158688Y568134D01*
X158586Y568088D01*
X158483Y568045D01*
X158378Y568006D01*
X158272Y567970D01*
X158165Y567938D01*
X158057Y567910D01*
X157948Y567885D01*
X157838Y567865D01*
X157728Y567847D01*
X157617Y567834D01*
X157505Y567825D01*
X157394Y567819D01*
X157282Y567817D01*
D10*
X601980Y591820D02*
X601980Y596900D01*
X599440Y594360D02*
X604520Y594360D01*
X558800Y584200D02*
X558808Y584823D01*
X558831Y585446D01*
X558869Y586069D01*
X558922Y586690D01*
X558991Y587309D01*
X559075Y587927D01*
X559174Y588542D01*
X559288Y589155D01*
X559417Y589765D01*
X559561Y590372D01*
X559720Y590975D01*
X559894Y591573D01*
X560082Y592168D01*
X560285Y592757D01*
X560502Y593341D01*
X560733Y593920D01*
X560979Y594493D01*
X561239Y595060D01*
X561512Y595620D01*
X561799Y596173D01*
X562100Y596720D01*
X562414Y597258D01*
X562741Y597789D01*
X563081Y598311D01*
X563433Y598826D01*
X563799Y599331D01*
X564176Y599827D01*
X564566Y600314D01*
X564967Y600791D01*
X565380Y601258D01*
X565804Y601714D01*
X566239Y602161D01*
X566686Y602596D01*
X567142Y603020D01*
X567609Y603433D01*
X568086Y603834D01*
X568573Y604224D01*
X569069Y604601D01*
X569574Y604967D01*
X570089Y605319D01*
X570611Y605659D01*
X571142Y605986D01*
X571680Y606300D01*
X572227Y606601D01*
X572780Y606888D01*
X573340Y607161D01*
X573907Y607421D01*
X574480Y607667D01*
X575059Y607898D01*
X575643Y608115D01*
X576232Y608318D01*
X576827Y608506D01*
X577425Y608680D01*
X578028Y608839D01*
X578635Y608983D01*
X579245Y609112D01*
X579858Y609226D01*
X580473Y609325D01*
X581091Y609409D01*
X581710Y609478D01*
X582331Y609531D01*
X582954Y609569D01*
X583577Y609592D01*
X584200Y609600D01*
X584823Y609592D01*
X585446Y609569D01*
X586069Y609531D01*
X586690Y609478D01*
X587309Y609409D01*
X587927Y609325D01*
X588542Y609226D01*
X589155Y609112D01*
X589765Y608983D01*
X590372Y608839D01*
X590975Y608680D01*
X591573Y608506D01*
X592168Y608318D01*
X592757Y608115D01*
X593341Y607898D01*
X593920Y607667D01*
X594493Y607421D01*
X595060Y607161D01*
X595620Y606888D01*
X596173Y606601D01*
X596720Y606300D01*
X597258Y605986D01*
X597789Y605659D01*
X598311Y605319D01*
X598826Y604967D01*
X599331Y604601D01*
X599827Y604224D01*
X600314Y603834D01*
X600791Y603433D01*
X601258Y603020D01*
X601714Y602596D01*
X602161Y602161D01*
X602596Y601714D01*
X603020Y601258D01*
X603433Y600791D01*
X603834Y600314D01*
X604224Y599827D01*
X604601Y599331D01*
X604967Y598826D01*
X605319Y598311D01*
X605659Y597789D01*
X605986Y597258D01*
X606300Y596720D01*
X606601Y596173D01*
X606888Y595620D01*
X607161Y595060D01*
X607421Y594493D01*
X607667Y593920D01*
X607898Y593341D01*
X608115Y592757D01*
X608318Y592168D01*
X608506Y591573D01*
X608680Y590975D01*
X608839Y590372D01*
X608983Y589765D01*
X609112Y589155D01*
X609226Y588542D01*
X609325Y587927D01*
X609409Y587309D01*
X609478Y586690D01*
X609531Y586069D01*
X609569Y585446D01*
X609592Y584823D01*
X609600Y584200D01*
X609592Y583577D01*
X609569Y582954D01*
X609531Y582331D01*
X609478Y581710D01*
X609409Y581091D01*
X609325Y580473D01*
X609226Y579858D01*
X609112Y579245D01*
X608983Y578635D01*
X608839Y578028D01*
X608680Y577425D01*
X608506Y576827D01*
X608318Y576232D01*
X608115Y575643D01*
X607898Y575059D01*
X607667Y574480D01*
X607421Y573907D01*
X607161Y573340D01*
X606888Y572780D01*
X606601Y572227D01*
X606300Y571680D01*
X605986Y571142D01*
X605659Y570611D01*
X605319Y570089D01*
X604967Y569574D01*
X604601Y569069D01*
X604224Y568573D01*
X603834Y568086D01*
X603433Y567609D01*
X603020Y567142D01*
X602596Y566686D01*
X602161Y566239D01*
X601714Y565804D01*
X601258Y565380D01*
X600791Y564967D01*
X600314Y564566D01*
X599827Y564176D01*
X599331Y563799D01*
X598826Y563433D01*
X598311Y563081D01*
X597789Y562741D01*
X597258Y562414D01*
X596720Y562100D01*
X596173Y561799D01*
X595620Y561512D01*
X595060Y561239D01*
X594493Y560979D01*
X593920Y560733D01*
X593341Y560502D01*
X592757Y560285D01*
X592168Y560082D01*
X591573Y559894D01*
X590975Y559720D01*
X590372Y559561D01*
X589765Y559417D01*
X589155Y559288D01*
X588542Y559174D01*
X587927Y559075D01*
X587309Y558991D01*
X586690Y558922D01*
X586069Y558869D01*
X585446Y558831D01*
X584823Y558808D01*
X584200Y558800D01*
X583577Y558808D01*
X582954Y558831D01*
X582331Y558869D01*
X581710Y558922D01*
X581091Y558991D01*
X580473Y559075D01*
X579858Y559174D01*
X579245Y559288D01*
X578635Y559417D01*
X578028Y559561D01*
X577425Y559720D01*
X576827Y559894D01*
X576232Y560082D01*
X575643Y560285D01*
X575059Y560502D01*
X574480Y560733D01*
X573907Y560979D01*
X573340Y561239D01*
X572780Y561512D01*
X572227Y561799D01*
X571680Y562100D01*
X571142Y562414D01*
X570611Y562741D01*
X570089Y563081D01*
X569574Y563433D01*
X569069Y563799D01*
X568573Y564176D01*
X568086Y564566D01*
X567609Y564967D01*
X567142Y565380D01*
X566686Y565804D01*
X566239Y566239D01*
X565804Y566686D01*
X565380Y567142D01*
X564967Y567609D01*
X564566Y568086D01*
X564176Y568573D01*
X563799Y569069D01*
X563433Y569574D01*
X563081Y570089D01*
X562741Y570611D01*
X562414Y571142D01*
X562100Y571680D01*
X561799Y572227D01*
X561512Y572780D01*
X561239Y573340D01*
X560979Y573907D01*
X560733Y574480D01*
X560502Y575059D01*
X560285Y575643D01*
X560082Y576232D01*
X559894Y576827D01*
X559720Y577425D01*
X559561Y578028D01*
X559417Y578635D01*
X559288Y579245D01*
X559174Y579858D01*
X559075Y580473D01*
X558991Y581091D01*
X558922Y581710D01*
X558869Y582331D01*
X558831Y582954D01*
X558808Y583577D01*
X558800Y584200D01*
D344*
X612775Y601345D02*
X615315Y601345D01*
X612775Y601345D02*
X612675Y601347D01*
X612576Y601353D01*
X612476Y601363D01*
X612378Y601376D01*
X612279Y601394D01*
X612182Y601415D01*
X612086Y601440D01*
X611990Y601469D01*
X611896Y601502D01*
X611803Y601538D01*
X611712Y601578D01*
X611622Y601622D01*
X611534Y601669D01*
X611448Y601719D01*
X611364Y601773D01*
X611282Y601830D01*
X611203Y601890D01*
X611125Y601954D01*
X611051Y602020D01*
X610979Y602089D01*
X610910Y602161D01*
X610844Y602235D01*
X610780Y602313D01*
X610720Y602392D01*
X610663Y602474D01*
X610609Y602558D01*
X610559Y602644D01*
X610512Y602732D01*
X610468Y602822D01*
X610428Y602913D01*
X610392Y603006D01*
X610359Y603100D01*
X610330Y603196D01*
X610305Y603292D01*
X610284Y603389D01*
X610266Y603488D01*
X610253Y603586D01*
X610243Y603686D01*
X610237Y603785D01*
X610235Y603885D01*
X610235Y610235D01*
X610237Y610335D01*
X610243Y610434D01*
X610253Y610534D01*
X610266Y610632D01*
X610284Y610731D01*
X610305Y610828D01*
X610330Y610924D01*
X610359Y611020D01*
X610392Y611114D01*
X610428Y611207D01*
X610468Y611298D01*
X610512Y611388D01*
X610559Y611476D01*
X610609Y611562D01*
X610663Y611646D01*
X610720Y611728D01*
X610780Y611807D01*
X610844Y611885D01*
X610910Y611959D01*
X610979Y612031D01*
X611051Y612100D01*
X611125Y612166D01*
X611203Y612230D01*
X611282Y612290D01*
X611364Y612347D01*
X611448Y612401D01*
X611534Y612451D01*
X611622Y612498D01*
X611712Y612542D01*
X611803Y612582D01*
X611896Y612618D01*
X611990Y612651D01*
X612086Y612680D01*
X612182Y612705D01*
X612279Y612726D01*
X612378Y612744D01*
X612476Y612757D01*
X612576Y612767D01*
X612675Y612773D01*
X612775Y612775D01*
X615315Y612775D01*
X619797Y610235D02*
X622972Y612775D01*
X622972Y601345D01*
X619797Y601345D02*
X626147Y601345D01*
D10*
X381000Y152400D02*
X381000Y139700D01*
X374650Y133350D01*
X361950Y133350D01*
X355600Y139700D01*
X381000Y177800D02*
X374650Y184150D01*
X381000Y177800D02*
X381000Y165100D01*
X374650Y158750D01*
X361950Y158750D01*
X355600Y165100D01*
X355600Y177800D01*
X361950Y184150D01*
X374650Y158750D02*
X381000Y152400D01*
X361950Y158750D02*
X355600Y152400D01*
X355600Y139700D01*
X381000Y215900D02*
X381000Y228600D01*
X381000Y215900D02*
X374650Y209550D01*
X361950Y209550D01*
X355600Y215900D01*
X374650Y209550D02*
X381000Y203200D01*
X381000Y190500D01*
X374650Y184150D01*
X361950Y184150D01*
X355600Y190500D01*
X355600Y203200D01*
X361950Y209550D01*
X381000Y254000D02*
X374650Y260350D01*
X381000Y254000D02*
X381000Y241300D01*
X374650Y234950D01*
X361950Y234950D01*
X355600Y241300D01*
X355600Y254000D01*
X361950Y260350D01*
X374650Y234950D02*
X381000Y228600D01*
X361950Y234950D02*
X355600Y228600D01*
X355600Y215900D01*
X381000Y292100D02*
X381000Y304800D01*
X381000Y292100D02*
X374650Y285750D01*
X361950Y285750D01*
X355600Y292100D01*
X374650Y285750D02*
X381000Y279400D01*
X381000Y266700D01*
X374650Y260350D01*
X361950Y260350D01*
X355600Y266700D01*
X355600Y279400D01*
X361950Y285750D01*
X381000Y330200D02*
X374650Y336550D01*
X381000Y330200D02*
X381000Y317500D01*
X374650Y311150D01*
X361950Y311150D01*
X355600Y317500D01*
X355600Y330200D01*
X361950Y336550D01*
X374650Y311150D02*
X381000Y304800D01*
X361950Y311150D02*
X355600Y304800D01*
X355600Y292100D01*
X381000Y368300D02*
X381000Y381000D01*
X381000Y368300D02*
X374650Y361950D01*
X361950Y361950D01*
X355600Y368300D01*
X374650Y361950D02*
X381000Y355600D01*
X381000Y342900D01*
X374650Y336550D01*
X361950Y336550D01*
X355600Y342900D01*
X355600Y355600D01*
X361950Y361950D01*
X381000Y406400D02*
X374650Y412750D01*
X381000Y406400D02*
X381000Y393700D01*
X374650Y387350D01*
X361950Y387350D01*
X355600Y393700D01*
X355600Y406400D01*
X361950Y412750D01*
X374650Y387350D02*
X381000Y381000D01*
X361950Y387350D02*
X355600Y381000D01*
X355600Y368300D01*
X381000Y444500D02*
X381000Y457200D01*
X381000Y444500D02*
X374650Y438150D01*
X361950Y438150D01*
X355600Y444500D01*
X374650Y438150D02*
X381000Y431800D01*
X381000Y419100D01*
X374650Y412750D01*
X361950Y412750D01*
X355600Y419100D01*
X355600Y431800D01*
X361950Y438150D01*
X381000Y482600D02*
X374650Y488950D01*
X381000Y482600D02*
X381000Y469900D01*
X374650Y463550D01*
X361950Y463550D01*
X355600Y469900D01*
X355600Y482600D01*
X361950Y488950D01*
X374650Y463550D02*
X381000Y457200D01*
X361950Y463550D02*
X355600Y457200D01*
X355600Y444500D01*
X381000Y520700D02*
X381000Y533400D01*
X381000Y520700D02*
X374650Y514350D01*
X361950Y514350D01*
X355600Y520700D01*
X374650Y514350D02*
X381000Y508000D01*
X381000Y495300D01*
X374650Y488950D01*
X361950Y488950D01*
X355600Y495300D01*
X355600Y508000D01*
X361950Y514350D01*
X381000Y558800D02*
X374650Y565150D01*
X381000Y558800D02*
X381000Y546100D01*
X374650Y539750D01*
X361950Y539750D01*
X355600Y546100D01*
X355600Y558800D01*
X361950Y565150D01*
X374650Y539750D02*
X381000Y533400D01*
X361950Y539750D02*
X355600Y533400D01*
X355600Y520700D01*
X381000Y596900D02*
X381000Y609600D01*
X381000Y596900D02*
X374650Y590550D01*
X361950Y590550D01*
X355600Y596900D01*
X374650Y590550D02*
X381000Y584200D01*
X381000Y571500D01*
X374650Y565150D01*
X361950Y565150D01*
X355600Y571500D01*
X355600Y584200D01*
X361950Y590550D01*
X361950Y615950D02*
X374650Y615950D01*
X381000Y609600D01*
X361950Y615950D02*
X355600Y609600D01*
X355600Y596900D01*
X381000Y127000D02*
X381000Y114300D01*
X374650Y107950D01*
X361950Y107950D02*
X355600Y114300D01*
X374650Y133350D02*
X381000Y127000D01*
X361950Y133350D02*
X355600Y127000D01*
X355600Y114300D01*
X381000Y101600D02*
X381000Y88900D01*
X374650Y82550D01*
X361950Y82550D01*
X355600Y88900D01*
X361950Y107950D02*
X374650Y107950D01*
X381000Y101600D01*
X361950Y107950D02*
X355600Y101600D01*
X355600Y88900D01*
X381000Y76200D02*
X381000Y63500D01*
X374650Y57150D01*
X361950Y57150D02*
X355600Y63500D01*
X374650Y82550D02*
X381000Y76200D01*
X361950Y82550D02*
X355600Y76200D01*
X355600Y63500D01*
X381000Y50800D02*
X381000Y38100D01*
X374650Y31750D01*
X361950Y31750D01*
X355600Y38100D01*
X361950Y57150D02*
X374650Y57150D01*
X381000Y50800D01*
X361950Y57150D02*
X355600Y50800D01*
X355600Y38100D01*
X381000Y25400D02*
X381000Y12700D01*
X374650Y6350D01*
X361950Y6350D01*
X355600Y12700D01*
X374650Y31750D02*
X381000Y25400D01*
X361950Y31750D02*
X355600Y25400D01*
X355600Y12700D01*
X533400Y139700D02*
X533400Y152400D01*
X533400Y139700D02*
X527050Y133350D01*
X514350Y133350D01*
X508000Y139700D01*
X533400Y177800D02*
X527050Y184150D01*
X533400Y177800D02*
X533400Y165100D01*
X527050Y158750D01*
X514350Y158750D01*
X508000Y165100D01*
X508000Y177800D01*
X514350Y184150D01*
X527050Y158750D02*
X533400Y152400D01*
X514350Y158750D02*
X508000Y152400D01*
X508000Y139700D01*
X533400Y215900D02*
X533400Y228600D01*
X533400Y215900D02*
X527050Y209550D01*
X514350Y209550D01*
X508000Y215900D01*
X527050Y209550D02*
X533400Y203200D01*
X533400Y190500D01*
X527050Y184150D01*
X514350Y184150D01*
X508000Y190500D01*
X508000Y203200D01*
X514350Y209550D01*
X533400Y254000D02*
X527050Y260350D01*
X533400Y254000D02*
X533400Y241300D01*
X527050Y234950D01*
X514350Y234950D01*
X508000Y241300D01*
X508000Y254000D01*
X514350Y260350D01*
X527050Y234950D02*
X533400Y228600D01*
X514350Y234950D02*
X508000Y228600D01*
X508000Y215900D01*
X533400Y292100D02*
X533400Y304800D01*
X533400Y292100D02*
X527050Y285750D01*
X514350Y285750D01*
X508000Y292100D01*
X527050Y285750D02*
X533400Y279400D01*
X533400Y266700D01*
X527050Y260350D01*
X514350Y260350D01*
X508000Y266700D01*
X508000Y279400D01*
X514350Y285750D01*
X533400Y330200D02*
X527050Y336550D01*
X533400Y330200D02*
X533400Y317500D01*
X527050Y311150D01*
X514350Y311150D01*
X508000Y317500D01*
X508000Y330200D01*
X514350Y336550D01*
X527050Y311150D02*
X533400Y304800D01*
X514350Y311150D02*
X508000Y304800D01*
X508000Y292100D01*
X533400Y368300D02*
X533400Y381000D01*
X533400Y368300D02*
X527050Y361950D01*
X514350Y361950D01*
X508000Y368300D01*
X527050Y361950D02*
X533400Y355600D01*
X533400Y342900D01*
X527050Y336550D01*
X514350Y336550D01*
X508000Y342900D01*
X508000Y355600D01*
X514350Y361950D01*
X533400Y406400D02*
X527050Y412750D01*
X533400Y406400D02*
X533400Y393700D01*
X527050Y387350D01*
X514350Y387350D01*
X508000Y393700D01*
X508000Y406400D01*
X514350Y412750D01*
X527050Y387350D02*
X533400Y381000D01*
X514350Y387350D02*
X508000Y381000D01*
X508000Y368300D01*
X533400Y444500D02*
X533400Y457200D01*
X533400Y444500D02*
X527050Y438150D01*
X514350Y438150D01*
X508000Y444500D01*
X527050Y438150D02*
X533400Y431800D01*
X533400Y419100D01*
X527050Y412750D01*
X514350Y412750D01*
X508000Y419100D01*
X508000Y431800D01*
X514350Y438150D01*
X533400Y482600D02*
X527050Y488950D01*
X533400Y482600D02*
X533400Y469900D01*
X527050Y463550D01*
X514350Y463550D01*
X508000Y469900D01*
X508000Y482600D01*
X514350Y488950D01*
X527050Y463550D02*
X533400Y457200D01*
X514350Y463550D02*
X508000Y457200D01*
X508000Y444500D01*
X533400Y520700D02*
X533400Y533400D01*
X533400Y520700D02*
X527050Y514350D01*
X514350Y514350D01*
X508000Y520700D01*
X527050Y514350D02*
X533400Y508000D01*
X533400Y495300D01*
X527050Y488950D01*
X514350Y488950D01*
X508000Y495300D01*
X508000Y508000D01*
X514350Y514350D01*
X533400Y558800D02*
X527050Y565150D01*
X533400Y558800D02*
X533400Y546100D01*
X527050Y539750D01*
X514350Y539750D01*
X508000Y546100D01*
X508000Y558800D01*
X514350Y565150D01*
X527050Y539750D02*
X533400Y533400D01*
X514350Y539750D02*
X508000Y533400D01*
X508000Y520700D01*
X533400Y596900D02*
X533400Y609600D01*
X533400Y596900D02*
X527050Y590550D01*
X514350Y590550D01*
X508000Y596900D01*
X527050Y590550D02*
X533400Y584200D01*
X533400Y571500D01*
X527050Y565150D01*
X514350Y565150D01*
X508000Y571500D01*
X508000Y584200D01*
X514350Y590550D01*
X514350Y615950D02*
X527050Y615950D01*
X533400Y609600D01*
X514350Y615950D02*
X508000Y609600D01*
X508000Y596900D01*
X533400Y127000D02*
X533400Y114300D01*
X527050Y107950D01*
X514350Y107950D02*
X508000Y114300D01*
X527050Y133350D02*
X533400Y127000D01*
X514350Y133350D02*
X508000Y127000D01*
X508000Y114300D01*
X533400Y101600D02*
X533400Y88900D01*
X527050Y82550D01*
X514350Y82550D01*
X508000Y88900D01*
X514350Y107950D02*
X527050Y107950D01*
X533400Y101600D01*
X514350Y107950D02*
X508000Y101600D01*
X508000Y88900D01*
X533400Y76200D02*
X533400Y63500D01*
X527050Y57150D01*
X514350Y57150D02*
X508000Y63500D01*
X527050Y82550D02*
X533400Y76200D01*
X514350Y82550D02*
X508000Y76200D01*
X508000Y63500D01*
X533400Y50800D02*
X533400Y38100D01*
X527050Y31750D01*
X514350Y31750D01*
X508000Y38100D01*
X514350Y57150D02*
X527050Y57150D01*
X533400Y50800D01*
X514350Y57150D02*
X508000Y50800D01*
X508000Y38100D01*
X533400Y25400D02*
X533400Y12700D01*
X527050Y6350D01*
X514350Y6350D01*
X508000Y12700D01*
X527050Y31750D02*
X533400Y25400D01*
X514350Y31750D02*
X508000Y25400D01*
X508000Y12700D01*
X38100Y168750D02*
X38100Y181450D01*
X38100Y168750D02*
X31750Y162400D01*
X19050Y162400D01*
X12700Y168750D01*
X38100Y206850D02*
X31750Y213200D01*
X38100Y206850D02*
X38100Y194150D01*
X31750Y187800D01*
X19050Y187800D01*
X12700Y194150D01*
X12700Y206850D01*
X19050Y213200D01*
X31750Y187800D02*
X38100Y181450D01*
X19050Y187800D02*
X12700Y181450D01*
X12700Y168750D01*
X38100Y244950D02*
X38100Y257650D01*
X38100Y244950D02*
X31750Y238600D01*
X19050Y238600D01*
X12700Y244950D01*
X31750Y238600D02*
X38100Y232250D01*
X38100Y219550D01*
X31750Y213200D01*
X19050Y213200D01*
X12700Y219550D01*
X12700Y232250D01*
X19050Y238600D01*
X19050Y264000D02*
X31750Y264000D01*
X38100Y257650D01*
X19050Y264000D02*
X12700Y257650D01*
X12700Y244950D01*
X38100Y156050D02*
X38100Y143350D01*
X31750Y137000D01*
X19050Y137000D01*
X12700Y143350D01*
X31750Y162400D02*
X38100Y156050D01*
X19050Y162400D02*
X12700Y156050D01*
X12700Y143350D01*
X647700Y244950D02*
X647700Y257650D01*
X654050Y264000D01*
X666750Y264000D01*
X673100Y257650D01*
X654050Y264000D02*
X647700Y270350D01*
X647700Y283050D01*
X654050Y289400D01*
X666750Y289400D01*
X673100Y283050D01*
X673100Y270350D01*
X666750Y264000D01*
X647700Y219550D02*
X654050Y213200D01*
X647700Y219550D02*
X647700Y232250D01*
X654050Y238600D01*
X666750Y238600D01*
X673100Y232250D01*
X673100Y219550D01*
X666750Y213200D01*
X654050Y238600D02*
X647700Y244950D01*
X666750Y238600D02*
X673100Y244950D01*
X673100Y257650D01*
X647700Y181450D02*
X647700Y168750D01*
X647700Y181450D02*
X654050Y187800D01*
X666750Y187800D01*
X673100Y181450D01*
X654050Y187800D02*
X647700Y194150D01*
X647700Y206850D01*
X654050Y213200D01*
X666750Y213200D01*
X673100Y206850D01*
X673100Y194150D01*
X666750Y187800D01*
X647700Y143350D02*
X654050Y137000D01*
X647700Y143350D02*
X647700Y156050D01*
X654050Y162400D01*
X666750Y162400D01*
X673100Y156050D01*
X673100Y143350D01*
X666750Y137000D01*
X654050Y162400D02*
X647700Y168750D01*
X666750Y162400D02*
X673100Y168750D01*
X673100Y181450D01*
X647700Y105250D02*
X647700Y92550D01*
X647700Y105250D02*
X654050Y111600D01*
X666750Y111600D01*
X673100Y105250D01*
X654050Y111600D02*
X647700Y117950D01*
X647700Y130650D01*
X654050Y137000D01*
X666750Y137000D01*
X673100Y130650D01*
X673100Y117950D01*
X666750Y111600D01*
X666750Y86200D02*
X654050Y86200D01*
X647700Y92550D01*
X666750Y86200D02*
X673100Y92550D01*
X673100Y105250D01*
X647700Y295750D02*
X647700Y308450D01*
X654050Y314800D01*
X666750Y314800D01*
X673100Y308450D01*
X654050Y289400D02*
X647700Y295750D01*
X666750Y289400D02*
X673100Y295750D01*
X673100Y308450D01*
D12*
X604179Y267221D02*
X602091Y267221D01*
X602002Y267223D01*
X601914Y267229D01*
X601826Y267238D01*
X601738Y267251D01*
X601651Y267268D01*
X601565Y267288D01*
X601480Y267313D01*
X601395Y267340D01*
X601312Y267372D01*
X601231Y267406D01*
X601151Y267445D01*
X601073Y267486D01*
X600996Y267531D01*
X600922Y267579D01*
X600849Y267630D01*
X600779Y267684D01*
X600712Y267742D01*
X600646Y267802D01*
X600584Y267864D01*
X600524Y267930D01*
X600466Y267997D01*
X600412Y268067D01*
X600361Y268140D01*
X600313Y268214D01*
X600268Y268291D01*
X600227Y268369D01*
X600188Y268449D01*
X600154Y268530D01*
X600122Y268613D01*
X600095Y268698D01*
X600070Y268783D01*
X600050Y268869D01*
X600033Y268956D01*
X600020Y269044D01*
X600011Y269132D01*
X600005Y269220D01*
X600003Y269309D01*
X600002Y269309D02*
X600002Y274531D01*
X600003Y274531D02*
X600005Y274622D01*
X600011Y274713D01*
X600021Y274804D01*
X600035Y274894D01*
X600052Y274983D01*
X600074Y275071D01*
X600100Y275159D01*
X600129Y275245D01*
X600162Y275330D01*
X600199Y275413D01*
X600239Y275495D01*
X600283Y275575D01*
X600330Y275653D01*
X600381Y275729D01*
X600434Y275802D01*
X600491Y275873D01*
X600552Y275942D01*
X600615Y276007D01*
X600680Y276070D01*
X600749Y276130D01*
X600820Y276188D01*
X600893Y276241D01*
X600969Y276292D01*
X601047Y276339D01*
X601127Y276383D01*
X601209Y276423D01*
X601292Y276460D01*
X601377Y276493D01*
X601463Y276522D01*
X601551Y276548D01*
X601639Y276570D01*
X601728Y276587D01*
X601818Y276601D01*
X601909Y276611D01*
X602000Y276617D01*
X602091Y276619D01*
X604179Y276619D01*
X610520Y276620D02*
X610615Y276618D01*
X610709Y276612D01*
X610803Y276603D01*
X610897Y276590D01*
X610990Y276573D01*
X611082Y276552D01*
X611174Y276527D01*
X611264Y276499D01*
X611353Y276467D01*
X611441Y276432D01*
X611527Y276393D01*
X611612Y276351D01*
X611695Y276305D01*
X611776Y276256D01*
X611855Y276204D01*
X611932Y276149D01*
X612006Y276090D01*
X612078Y276029D01*
X612148Y275965D01*
X612215Y275898D01*
X612279Y275828D01*
X612340Y275756D01*
X612399Y275682D01*
X612454Y275605D01*
X612506Y275526D01*
X612555Y275445D01*
X612601Y275362D01*
X612643Y275277D01*
X612682Y275191D01*
X612717Y275103D01*
X612749Y275014D01*
X612777Y274924D01*
X612802Y274832D01*
X612823Y274740D01*
X612840Y274647D01*
X612853Y274553D01*
X612862Y274459D01*
X612868Y274365D01*
X612870Y274270D01*
X610520Y276619D02*
X610412Y276617D01*
X610303Y276611D01*
X610195Y276601D01*
X610088Y276588D01*
X609981Y276570D01*
X609874Y276549D01*
X609769Y276524D01*
X609664Y276495D01*
X609561Y276463D01*
X609459Y276426D01*
X609358Y276386D01*
X609259Y276343D01*
X609161Y276296D01*
X609065Y276245D01*
X608971Y276191D01*
X608879Y276134D01*
X608789Y276073D01*
X608701Y276009D01*
X608616Y275943D01*
X608533Y275873D01*
X608453Y275800D01*
X608375Y275724D01*
X608300Y275646D01*
X608228Y275565D01*
X608159Y275481D01*
X608093Y275395D01*
X608030Y275307D01*
X607971Y275216D01*
X607914Y275124D01*
X607861Y275029D01*
X607812Y274933D01*
X607766Y274834D01*
X607723Y274735D01*
X607684Y274633D01*
X607649Y274531D01*
X612086Y272442D02*
X612155Y272511D01*
X612221Y272582D01*
X612285Y272655D01*
X612346Y272731D01*
X612404Y272810D01*
X612458Y272890D01*
X612510Y272973D01*
X612558Y273057D01*
X612604Y273143D01*
X612645Y273231D01*
X612684Y273321D01*
X612719Y273412D01*
X612750Y273504D01*
X612778Y273597D01*
X612802Y273691D01*
X612822Y273786D01*
X612839Y273882D01*
X612852Y273979D01*
X612861Y274076D01*
X612867Y274173D01*
X612869Y274270D01*
X612086Y272442D02*
X607648Y267221D01*
X612869Y267221D01*
X604179Y108471D02*
X602091Y108471D01*
X602002Y108473D01*
X601914Y108479D01*
X601826Y108488D01*
X601738Y108501D01*
X601651Y108518D01*
X601565Y108538D01*
X601480Y108563D01*
X601395Y108590D01*
X601312Y108622D01*
X601231Y108656D01*
X601151Y108695D01*
X601073Y108736D01*
X600996Y108781D01*
X600922Y108829D01*
X600849Y108880D01*
X600779Y108934D01*
X600712Y108992D01*
X600646Y109052D01*
X600584Y109114D01*
X600524Y109180D01*
X600466Y109247D01*
X600412Y109317D01*
X600361Y109390D01*
X600313Y109464D01*
X600268Y109541D01*
X600227Y109619D01*
X600188Y109699D01*
X600154Y109780D01*
X600122Y109863D01*
X600095Y109948D01*
X600070Y110033D01*
X600050Y110119D01*
X600033Y110206D01*
X600020Y110294D01*
X600011Y110382D01*
X600005Y110470D01*
X600003Y110559D01*
X600002Y110559D02*
X600002Y115781D01*
X600003Y115781D02*
X600005Y115872D01*
X600011Y115963D01*
X600021Y116054D01*
X600035Y116144D01*
X600052Y116233D01*
X600074Y116321D01*
X600100Y116409D01*
X600129Y116495D01*
X600162Y116580D01*
X600199Y116663D01*
X600239Y116745D01*
X600283Y116825D01*
X600330Y116903D01*
X600381Y116979D01*
X600434Y117052D01*
X600491Y117123D01*
X600552Y117192D01*
X600615Y117257D01*
X600680Y117320D01*
X600749Y117380D01*
X600820Y117438D01*
X600893Y117491D01*
X600969Y117542D01*
X601047Y117589D01*
X601127Y117633D01*
X601209Y117673D01*
X601292Y117710D01*
X601377Y117743D01*
X601463Y117772D01*
X601551Y117798D01*
X601639Y117820D01*
X601728Y117837D01*
X601818Y117851D01*
X601909Y117861D01*
X602000Y117867D01*
X602091Y117869D01*
X604179Y117869D01*
X607648Y108471D02*
X610258Y108471D01*
X610359Y108473D01*
X610460Y108479D01*
X610561Y108489D01*
X610661Y108502D01*
X610761Y108520D01*
X610860Y108541D01*
X610958Y108567D01*
X611055Y108596D01*
X611151Y108628D01*
X611245Y108665D01*
X611338Y108705D01*
X611430Y108749D01*
X611519Y108796D01*
X611607Y108847D01*
X611693Y108901D01*
X611776Y108958D01*
X611858Y109018D01*
X611936Y109082D01*
X612013Y109148D01*
X612086Y109218D01*
X612157Y109290D01*
X612225Y109365D01*
X612290Y109443D01*
X612352Y109523D01*
X612411Y109605D01*
X612467Y109690D01*
X612519Y109776D01*
X612568Y109865D01*
X612614Y109956D01*
X612655Y110048D01*
X612694Y110142D01*
X612728Y110237D01*
X612759Y110333D01*
X612786Y110431D01*
X612810Y110529D01*
X612829Y110629D01*
X612845Y110729D01*
X612857Y110829D01*
X612865Y110930D01*
X612869Y111031D01*
X612869Y111133D01*
X612865Y111234D01*
X612857Y111335D01*
X612845Y111435D01*
X612829Y111535D01*
X612810Y111635D01*
X612786Y111733D01*
X612759Y111831D01*
X612728Y111927D01*
X612694Y112022D01*
X612655Y112116D01*
X612614Y112208D01*
X612568Y112299D01*
X612519Y112387D01*
X612467Y112474D01*
X612411Y112559D01*
X612352Y112641D01*
X612290Y112721D01*
X612225Y112799D01*
X612157Y112874D01*
X612086Y112946D01*
X612013Y113016D01*
X611936Y113082D01*
X611858Y113146D01*
X611776Y113206D01*
X611693Y113263D01*
X611607Y113317D01*
X611519Y113368D01*
X611430Y113415D01*
X611338Y113459D01*
X611245Y113499D01*
X611151Y113536D01*
X611055Y113568D01*
X610958Y113597D01*
X610860Y113623D01*
X610761Y113644D01*
X610661Y113662D01*
X610561Y113675D01*
X610460Y113685D01*
X610359Y113691D01*
X610258Y113693D01*
X610781Y117869D02*
X607648Y117869D01*
X610781Y117869D02*
X610871Y117867D01*
X610960Y117861D01*
X611050Y117852D01*
X611139Y117838D01*
X611227Y117821D01*
X611314Y117800D01*
X611401Y117775D01*
X611486Y117746D01*
X611570Y117714D01*
X611652Y117679D01*
X611733Y117639D01*
X611812Y117597D01*
X611889Y117551D01*
X611964Y117501D01*
X612037Y117449D01*
X612108Y117393D01*
X612176Y117335D01*
X612241Y117273D01*
X612304Y117209D01*
X612364Y117142D01*
X612421Y117073D01*
X612475Y117001D01*
X612526Y116927D01*
X612574Y116851D01*
X612618Y116773D01*
X612659Y116693D01*
X612697Y116611D01*
X612731Y116528D01*
X612761Y116443D01*
X612788Y116357D01*
X612811Y116271D01*
X612830Y116183D01*
X612845Y116094D01*
X612857Y116005D01*
X612865Y115916D01*
X612869Y115826D01*
X612869Y115736D01*
X612865Y115646D01*
X612857Y115557D01*
X612845Y115468D01*
X612830Y115379D01*
X612811Y115291D01*
X612788Y115205D01*
X612761Y115119D01*
X612731Y115034D01*
X612697Y114951D01*
X612659Y114869D01*
X612618Y114789D01*
X612574Y114711D01*
X612526Y114635D01*
X612475Y114561D01*
X612421Y114489D01*
X612364Y114420D01*
X612304Y114353D01*
X612241Y114289D01*
X612176Y114227D01*
X612108Y114169D01*
X612037Y114113D01*
X611964Y114061D01*
X611889Y114011D01*
X611812Y113965D01*
X611733Y113923D01*
X611652Y113883D01*
X611570Y113848D01*
X611486Y113816D01*
X611401Y113787D01*
X611314Y113762D01*
X611227Y113741D01*
X611139Y113724D01*
X611050Y113710D01*
X610960Y113701D01*
X610871Y113695D01*
X610781Y113693D01*
X610781Y113692D02*
X608692Y113692D01*
X591458Y529831D02*
X589369Y529831D01*
X589280Y529833D01*
X589192Y529839D01*
X589104Y529848D01*
X589016Y529861D01*
X588929Y529878D01*
X588843Y529898D01*
X588758Y529923D01*
X588673Y529950D01*
X588590Y529982D01*
X588509Y530016D01*
X588429Y530055D01*
X588351Y530096D01*
X588274Y530141D01*
X588200Y530189D01*
X588127Y530240D01*
X588057Y530294D01*
X587990Y530352D01*
X587924Y530412D01*
X587862Y530474D01*
X587802Y530540D01*
X587744Y530607D01*
X587690Y530677D01*
X587639Y530750D01*
X587591Y530824D01*
X587546Y530901D01*
X587505Y530979D01*
X587466Y531059D01*
X587432Y531140D01*
X587400Y531223D01*
X587373Y531308D01*
X587348Y531393D01*
X587328Y531479D01*
X587311Y531566D01*
X587298Y531654D01*
X587289Y531742D01*
X587283Y531830D01*
X587281Y531919D01*
X587281Y537141D01*
X587283Y537232D01*
X587289Y537323D01*
X587299Y537414D01*
X587313Y537504D01*
X587330Y537593D01*
X587352Y537681D01*
X587378Y537769D01*
X587407Y537855D01*
X587440Y537940D01*
X587477Y538023D01*
X587517Y538105D01*
X587561Y538185D01*
X587608Y538263D01*
X587659Y538339D01*
X587712Y538412D01*
X587769Y538483D01*
X587830Y538552D01*
X587893Y538617D01*
X587958Y538680D01*
X588027Y538740D01*
X588098Y538798D01*
X588171Y538851D01*
X588247Y538902D01*
X588325Y538949D01*
X588405Y538993D01*
X588487Y539033D01*
X588570Y539070D01*
X588655Y539103D01*
X588741Y539132D01*
X588829Y539158D01*
X588917Y539180D01*
X589006Y539197D01*
X589096Y539211D01*
X589187Y539221D01*
X589278Y539227D01*
X589369Y539229D01*
X591458Y539229D01*
X597015Y539229D02*
X594927Y531919D01*
X600148Y531919D01*
X598581Y529831D02*
X598581Y534008D01*
D10*
X411500Y469900D02*
X411500Y457200D01*
X405150Y450850D01*
X392450Y450850D01*
X386100Y457200D01*
X411500Y495300D02*
X405150Y501650D01*
X411500Y495300D02*
X411500Y482600D01*
X405150Y476250D01*
X392450Y476250D01*
X386100Y482600D01*
X386100Y495300D01*
X392450Y501650D01*
X405150Y476250D02*
X411500Y469900D01*
X392450Y476250D02*
X386100Y469900D01*
X386100Y457200D01*
X411500Y533400D02*
X411500Y546100D01*
X411500Y533400D02*
X405150Y527050D01*
X392450Y527050D01*
X386100Y533400D01*
X405150Y527050D02*
X411500Y520700D01*
X411500Y508000D01*
X405150Y501650D01*
X392450Y501650D01*
X386100Y508000D01*
X386100Y520700D01*
X392450Y527050D01*
X392450Y552450D02*
X405150Y552450D01*
X411500Y546100D01*
X392450Y552450D02*
X386100Y546100D01*
X386100Y533400D01*
X411500Y444500D02*
X411500Y431800D01*
X405150Y425450D01*
X392450Y425450D01*
X386100Y431800D01*
X405150Y450850D02*
X411500Y444500D01*
X392450Y450850D02*
X386100Y444500D01*
X386100Y431800D01*
D345*
X156750Y67450D02*
X156750Y-20550D01*
X287750Y-20550D01*
X287750Y67450D01*
X156750Y97450D02*
X156750Y120450D01*
X287750Y120450D01*
X287750Y97450D01*
D346*
X191594Y134814D02*
X191594Y143268D01*
X191593Y134814D02*
X191595Y134702D01*
X191601Y134590D01*
X191610Y134478D01*
X191624Y134366D01*
X191641Y134255D01*
X191663Y134145D01*
X191687Y134036D01*
X191716Y133927D01*
X191749Y133820D01*
X191785Y133713D01*
X191825Y133609D01*
X191868Y133505D01*
X191915Y133403D01*
X191965Y133303D01*
X192019Y133204D01*
X192077Y133108D01*
X192137Y133013D01*
X192201Y132921D01*
X192268Y132831D01*
X192338Y132743D01*
X192411Y132658D01*
X192487Y132575D01*
X192565Y132495D01*
X192647Y132417D01*
X192731Y132343D01*
X192817Y132271D01*
X192906Y132203D01*
X192998Y132138D01*
X193091Y132075D01*
X193187Y132017D01*
X193284Y131961D01*
X193384Y131909D01*
X193485Y131860D01*
X193588Y131815D01*
X193692Y131773D01*
X193797Y131735D01*
X193904Y131701D01*
X194012Y131670D01*
X194121Y131644D01*
X194231Y131620D01*
X194342Y131601D01*
X194453Y131586D01*
X194565Y131574D01*
X194677Y131566D01*
X194789Y131562D01*
X194901Y131562D01*
X195013Y131566D01*
X195125Y131574D01*
X195237Y131586D01*
X195348Y131601D01*
X195459Y131620D01*
X195569Y131644D01*
X195678Y131670D01*
X195786Y131701D01*
X195893Y131735D01*
X195998Y131773D01*
X196102Y131815D01*
X196205Y131860D01*
X196306Y131909D01*
X196406Y131961D01*
X196503Y132017D01*
X196599Y132075D01*
X196692Y132138D01*
X196784Y132203D01*
X196873Y132271D01*
X196959Y132343D01*
X197043Y132417D01*
X197125Y132495D01*
X197203Y132575D01*
X197279Y132658D01*
X197352Y132743D01*
X197422Y132831D01*
X197489Y132921D01*
X197553Y133013D01*
X197613Y133108D01*
X197671Y133204D01*
X197725Y133303D01*
X197775Y133403D01*
X197822Y133505D01*
X197865Y133609D01*
X197905Y133713D01*
X197941Y133820D01*
X197974Y133927D01*
X198003Y134036D01*
X198027Y134145D01*
X198049Y134255D01*
X198066Y134366D01*
X198080Y134478D01*
X198089Y134590D01*
X198095Y134702D01*
X198097Y134814D01*
X198097Y143268D01*
X209546Y134164D02*
X209544Y134064D01*
X209538Y133965D01*
X209529Y133866D01*
X209516Y133767D01*
X209498Y133669D01*
X209478Y133571D01*
X209453Y133475D01*
X209425Y133379D01*
X209393Y133285D01*
X209357Y133192D01*
X209318Y133100D01*
X209276Y133010D01*
X209230Y132921D01*
X209181Y132835D01*
X209128Y132750D01*
X209072Y132668D01*
X209014Y132587D01*
X208952Y132509D01*
X208887Y132433D01*
X208819Y132360D01*
X208749Y132290D01*
X208676Y132222D01*
X208600Y132157D01*
X208522Y132095D01*
X208441Y132037D01*
X208359Y131981D01*
X208274Y131928D01*
X208188Y131879D01*
X208099Y131833D01*
X208009Y131791D01*
X207917Y131752D01*
X207824Y131716D01*
X207730Y131684D01*
X207634Y131656D01*
X207538Y131631D01*
X207440Y131611D01*
X207342Y131593D01*
X207243Y131580D01*
X207144Y131571D01*
X207045Y131565D01*
X206945Y131563D01*
X206800Y131565D01*
X206656Y131571D01*
X206512Y131580D01*
X206368Y131593D01*
X206224Y131611D01*
X206081Y131631D01*
X205938Y131656D01*
X205797Y131684D01*
X205656Y131716D01*
X205515Y131752D01*
X205376Y131792D01*
X205238Y131835D01*
X205101Y131882D01*
X204966Y131932D01*
X204832Y131986D01*
X204699Y132043D01*
X204568Y132104D01*
X204438Y132168D01*
X204310Y132236D01*
X204184Y132307D01*
X204060Y132381D01*
X203938Y132459D01*
X203818Y132539D01*
X203700Y132623D01*
X203585Y132710D01*
X203471Y132800D01*
X203361Y132893D01*
X203252Y132989D01*
X203146Y133087D01*
X203043Y133189D01*
X203369Y140667D02*
X203371Y140767D01*
X203377Y140866D01*
X203386Y140965D01*
X203399Y141064D01*
X203417Y141162D01*
X203437Y141260D01*
X203462Y141356D01*
X203490Y141452D01*
X203522Y141546D01*
X203558Y141639D01*
X203597Y141731D01*
X203639Y141821D01*
X203685Y141910D01*
X203734Y141996D01*
X203787Y142081D01*
X203843Y142163D01*
X203901Y142244D01*
X203963Y142322D01*
X204028Y142398D01*
X204096Y142471D01*
X204166Y142541D01*
X204239Y142609D01*
X204315Y142674D01*
X204393Y142736D01*
X204474Y142794D01*
X204556Y142850D01*
X204641Y142903D01*
X204727Y142952D01*
X204816Y142998D01*
X204906Y143040D01*
X204998Y143079D01*
X205091Y143115D01*
X205185Y143147D01*
X205281Y143175D01*
X205377Y143200D01*
X205475Y143220D01*
X205573Y143238D01*
X205672Y143251D01*
X205771Y143260D01*
X205870Y143266D01*
X205970Y143268D01*
X206106Y143266D01*
X206243Y143260D01*
X206379Y143251D01*
X206515Y143237D01*
X206650Y143220D01*
X206785Y143199D01*
X206919Y143175D01*
X207053Y143146D01*
X207185Y143114D01*
X207317Y143078D01*
X207447Y143039D01*
X207577Y142996D01*
X207705Y142949D01*
X207832Y142899D01*
X207957Y142845D01*
X208081Y142787D01*
X208203Y142727D01*
X208324Y142662D01*
X208442Y142595D01*
X208559Y142524D01*
X208673Y142450D01*
X208786Y142373D01*
X208896Y142293D01*
X204669Y138391D02*
X204582Y138444D01*
X204498Y138501D01*
X204416Y138560D01*
X204336Y138623D01*
X204258Y138689D01*
X204184Y138758D01*
X204112Y138830D01*
X204042Y138904D01*
X203976Y138981D01*
X203913Y139060D01*
X203853Y139142D01*
X203795Y139226D01*
X203742Y139312D01*
X203691Y139401D01*
X203644Y139491D01*
X203601Y139582D01*
X203561Y139676D01*
X203525Y139771D01*
X203492Y139867D01*
X203463Y139964D01*
X203438Y140063D01*
X203417Y140162D01*
X203399Y140262D01*
X203386Y140363D01*
X203376Y140464D01*
X203370Y140565D01*
X203368Y140667D01*
X208246Y136440D02*
X208333Y136387D01*
X208417Y136330D01*
X208499Y136271D01*
X208579Y136208D01*
X208657Y136142D01*
X208731Y136073D01*
X208803Y136001D01*
X208873Y135927D01*
X208939Y135850D01*
X209002Y135771D01*
X209062Y135689D01*
X209120Y135605D01*
X209173Y135519D01*
X209224Y135430D01*
X209271Y135340D01*
X209314Y135249D01*
X209354Y135155D01*
X209390Y135060D01*
X209423Y134964D01*
X209452Y134867D01*
X209477Y134768D01*
X209498Y134669D01*
X209516Y134569D01*
X209529Y134468D01*
X209539Y134367D01*
X209545Y134266D01*
X209547Y134164D01*
X208246Y136440D02*
X204669Y138391D01*
X214662Y138066D02*
X217914Y138066D01*
X218026Y138064D01*
X218138Y138058D01*
X218250Y138049D01*
X218362Y138035D01*
X218473Y138018D01*
X218583Y137996D01*
X218692Y137972D01*
X218801Y137943D01*
X218908Y137910D01*
X219015Y137874D01*
X219119Y137834D01*
X219223Y137791D01*
X219325Y137744D01*
X219425Y137694D01*
X219524Y137640D01*
X219620Y137582D01*
X219715Y137522D01*
X219807Y137458D01*
X219897Y137391D01*
X219985Y137321D01*
X220070Y137248D01*
X220153Y137172D01*
X220233Y137094D01*
X220311Y137012D01*
X220385Y136928D01*
X220457Y136842D01*
X220525Y136753D01*
X220590Y136661D01*
X220653Y136568D01*
X220711Y136472D01*
X220767Y136375D01*
X220819Y136275D01*
X220868Y136174D01*
X220913Y136071D01*
X220955Y135967D01*
X220993Y135862D01*
X221027Y135755D01*
X221058Y135647D01*
X221084Y135538D01*
X221108Y135428D01*
X221127Y135317D01*
X221142Y135206D01*
X221154Y135094D01*
X221162Y134982D01*
X221166Y134870D01*
X221166Y134758D01*
X221162Y134646D01*
X221154Y134534D01*
X221142Y134422D01*
X221127Y134311D01*
X221108Y134200D01*
X221084Y134090D01*
X221058Y133981D01*
X221027Y133873D01*
X220993Y133766D01*
X220955Y133661D01*
X220913Y133557D01*
X220868Y133454D01*
X220819Y133353D01*
X220767Y133253D01*
X220711Y133156D01*
X220653Y133060D01*
X220590Y132967D01*
X220525Y132875D01*
X220457Y132786D01*
X220385Y132700D01*
X220311Y132616D01*
X220233Y132534D01*
X220153Y132456D01*
X220070Y132380D01*
X219985Y132307D01*
X219897Y132237D01*
X219807Y132170D01*
X219715Y132106D01*
X219620Y132046D01*
X219524Y131988D01*
X219425Y131934D01*
X219325Y131884D01*
X219223Y131837D01*
X219119Y131794D01*
X219015Y131754D01*
X218908Y131718D01*
X218801Y131685D01*
X218692Y131656D01*
X218583Y131632D01*
X218473Y131610D01*
X218362Y131593D01*
X218250Y131579D01*
X218138Y131570D01*
X218026Y131564D01*
X217914Y131562D01*
X217914Y131563D02*
X214662Y131563D01*
X214662Y143268D01*
X217914Y143268D01*
X218015Y143266D01*
X218116Y143260D01*
X218216Y143250D01*
X218316Y143237D01*
X218415Y143219D01*
X218514Y143198D01*
X218612Y143173D01*
X218708Y143144D01*
X218804Y143111D01*
X218898Y143075D01*
X218990Y143035D01*
X219081Y142991D01*
X219171Y142944D01*
X219258Y142894D01*
X219343Y142840D01*
X219426Y142783D01*
X219507Y142723D01*
X219586Y142659D01*
X219662Y142593D01*
X219735Y142524D01*
X219806Y142452D01*
X219874Y142377D01*
X219939Y142300D01*
X220000Y142220D01*
X220059Y142138D01*
X220114Y142054D01*
X220167Y141967D01*
X220215Y141879D01*
X220261Y141789D01*
X220302Y141697D01*
X220340Y141604D01*
X220375Y141509D01*
X220406Y141413D01*
X220433Y141316D01*
X220456Y141218D01*
X220475Y141119D01*
X220491Y141019D01*
X220503Y140919D01*
X220511Y140818D01*
X220515Y140717D01*
X220515Y140617D01*
X220511Y140516D01*
X220503Y140415D01*
X220491Y140315D01*
X220475Y140215D01*
X220456Y140116D01*
X220433Y140018D01*
X220406Y139921D01*
X220375Y139825D01*
X220340Y139730D01*
X220302Y139637D01*
X220261Y139545D01*
X220215Y139455D01*
X220167Y139366D01*
X220114Y139280D01*
X220059Y139196D01*
X220000Y139114D01*
X219939Y139034D01*
X219874Y138957D01*
X219806Y138882D01*
X219735Y138810D01*
X219662Y138741D01*
X219586Y138675D01*
X219507Y138611D01*
X219426Y138551D01*
X219343Y138494D01*
X219258Y138440D01*
X219171Y138390D01*
X219081Y138343D01*
X218990Y138299D01*
X218898Y138259D01*
X218804Y138223D01*
X218708Y138190D01*
X218612Y138161D01*
X218514Y138136D01*
X218415Y138115D01*
X218316Y138097D01*
X218216Y138084D01*
X218116Y138074D01*
X218015Y138068D01*
X217914Y138066D01*
X225561Y140667D02*
X228812Y143268D01*
X228812Y131563D01*
X225561Y131563D02*
X232064Y131563D01*
M02*
